if (_typeface_js && _typeface_js.loadFace) _typeface_js.loadFace({"glyphs":{"0":{"ha":611,"x_min":142,"x_max":691,"o":"m 477 812 q 632 741 574 812 q 691 528 691 670 q 590 154 691 327 q 344 -20 488 -20 q 200 54 259 -20 q 142 256 142 128 q 200 549 142 406 q 332 752 258 692 q 477 812 405 812 m 465 772 q 379 716 422 772 q 298 512 335 661 q 261 228 261 363 q 293 70 261 119 q 365 20 324 20 q 436 56 401 20 q 530 258 488 110 q 572 556 572 406 q 537 730 572 672 q 465 772 511 772 z "},"1":{"ha":611,"x_min":143,"x_max":602,"o":"m 581 820 l 602 820 l 509 454 l 431 114 q 419 56 419 71 q 431 38 419 45 q 483 26 442 31 q 543 18 513 24 l 529 -16 q 326 0 383 0 q 143 -16 241 0 l 155 18 q 235 37 190 28 q 296 64 280 46 q 343 178 319 88 l 416 458 q 452 640 452 618 q 433 663 452 663 q 296 609 418 663 l 283 643 q 498 754 459 727 q 581 820 538 782 z "},"2":{"ha":611,"x_min":102,"x_max":665,"o":"m 273 609 l 239 626 q 350 773 292 732 q 478 814 407 814 q 614 760 564 814 q 665 633 665 706 q 647 543 665 589 q 587 446 629 496 q 437 309 559 413 q 207 79 273 166 q 390 83 296 83 q 443 82 420 83 q 511 92 492 80 q 571 169 529 103 l 618 169 q 522 -18 563 93 q 420 -4 474 -9 q 308 0 367 0 q 102 -9 238 0 l 116 34 q 300 241 178 125 q 457 400 422 355 q 531 524 508 466 q 549 608 549 568 q 515 706 549 669 q 433 743 482 743 q 354 713 393 743 q 273 609 315 684 z "},"3":{"ha":611,"x_min":100,"x_max":617,"o":"m 289 654 l 261 673 q 363 773 330 752 q 483 811 422 811 q 581 779 545 811 q 617 697 617 747 q 457 473 617 591 q 541 453 512 470 q 587 401 569 436 q 605 318 605 366 q 473 75 605 187 q 240 -22 359 -22 q 143 3 186 -22 q 100 63 100 27 q 112 89 100 78 q 138 100 123 100 q 184 75 158 100 q 236 34 219 42 q 278 22 260 22 q 396 85 331 22 q 492 286 492 176 q 462 373 492 340 q 385 406 432 406 q 306 391 350 406 l 311 433 q 467 541 397 463 q 515 650 515 595 q 494 716 515 692 q 436 740 473 740 q 289 654 359 740 z "},"4":{"ha":611,"x_min":104,"x_max":663,"o":"m 632 277 l 618 205 l 513 205 l 464 -20 l 368 -20 l 417 205 q 136 203 197 207 q 123 203 128 203 q 104 217 104 203 q 120 250 104 222 q 341 536 197 382 q 644 817 486 690 l 663 817 l 634 707 l 574 470 l 529 277 l 632 277 m 432 277 q 459 395 438 311 l 525 660 q 331 465 393 534 q 186 277 270 395 l 432 277 z "},"5":{"ha":611,"x_min":90,"x_max":728,"o":"m 691 831 l 728 831 l 680 730 q 659 714 673 720 q 595 709 644 709 q 399 701 450 709 q 381 652 387 672 q 375 623 375 633 q 415 580 375 597 q 517 522 487 550 q 564 452 547 494 q 582 353 582 409 q 468 95 582 208 q 214 -18 354 -18 q 115 3 149 -18 q 90 46 90 19 q 101 75 90 64 q 127 87 112 87 q 142 85 136 87 q 169 68 147 83 q 214 44 197 50 q 256 39 231 39 q 424 117 350 39 q 498 292 498 196 q 462 408 498 357 q 357 488 425 460 q 319 511 328 500 q 309 541 309 523 q 332 630 309 560 l 378 774 q 448 790 404 787 l 593 793 q 659 803 642 795 q 691 831 676 810 z "},"6":{"ha":611,"x_min":168,"x_max":741,"o":"m 741 814 l 733 773 q 542 731 621 768 q 408 627 463 694 q 319 448 353 559 q 395 494 357 479 q 473 509 434 509 q 598 455 551 509 q 646 299 646 401 q 564 64 646 159 q 382 -18 492 -18 q 228 53 288 -18 q 168 251 168 124 q 246 536 168 401 q 451 742 324 670 q 741 814 578 814 m 306 395 q 288 220 288 289 q 320 66 288 113 q 401 19 353 19 q 486 70 454 19 q 527 263 527 136 q 498 412 527 368 q 429 456 470 456 q 372 440 403 456 q 306 395 341 425 z "},"7":{"ha":611,"x_min":202,"x_max":764,"o":"m 291 625 l 256 625 q 273 677 259 635 q 309 804 298 759 q 546 793 381 793 q 764 795 658 793 q 479 421 537 507 q 344 190 379 272 q 317 80 327 151 q 293 -11 308 9 q 254 -31 278 -31 q 218 -13 233 -31 q 202 31 202 5 q 250 180 202 94 q 557 599 317 304 l 645 708 l 390 708 q 329 696 345 708 q 291 625 314 684 z "},"8":{"ha":611,"x_min":134,"x_max":701,"o":"m 503 455 q 618 238 618 340 q 535 61 618 140 q 332 -18 452 -18 q 184 35 235 -18 q 134 151 134 88 q 155 237 134 193 q 220 322 176 281 q 379 431 255 355 q 307 599 307 513 q 374 750 307 686 q 538 813 441 813 q 655 774 610 813 q 701 681 701 734 q 659 576 701 627 q 503 455 605 508 m 472 491 q 596 596 567 557 q 625 671 625 636 q 595 740 625 711 q 522 768 566 768 q 433 732 469 768 q 396 644 396 695 q 472 491 396 572 m 408 400 q 263 269 300 324 q 226 155 226 213 q 264 61 226 99 q 360 22 303 22 q 440 45 401 22 q 502 110 479 68 q 526 193 526 151 q 503 277 526 232 q 408 400 480 322 z "},"9":{"ha":611,"x_min":100,"x_max":673,"o":"m 100 -18 l 108 22 q 299 64 220 27 q 433 169 378 102 q 522 349 488 236 q 446 302 485 317 q 368 286 408 286 q 243 341 290 286 q 195 497 195 395 q 277 731 195 636 q 459 814 349 814 q 613 743 553 814 q 673 545 673 671 q 595 260 673 395 q 390 53 517 125 q 100 -18 262 -19 m 535 401 q 553 575 553 507 q 521 730 553 683 q 439 777 488 777 q 355 726 387 777 q 314 532 314 660 q 342 384 314 427 q 412 340 371 340 q 469 356 439 340 q 535 401 500 371 z "}," ":{"ha":305,"x_min":0,"x_max":0,"o":""},"!":{"ha":389,"x_min":183,"x_max":441,"o":"m 294 224 l 254 224 q 317 772 298 547 q 323 790 318 785 q 362 807 334 800 q 427 819 409 819 q 441 805 441 819 q 436 780 441 795 q 376 559 427 754 l 294 224 m 257 146 q 301 126 283 146 q 319 76 319 106 q 298 7 319 32 q 245 -18 277 -18 q 201 0 219 -18 q 183 48 183 19 q 208 123 183 91 q 257 146 227 146 z "},"\"":{"ha":306,"x_min":204,"x_max":526,"o":"m 383 463 l 436 724 q 462 795 447 778 q 497 812 477 812 q 518 805 511 812 q 526 784 526 798 q 512 735 526 775 l 420 470 q 398 446 412 446 q 383 463 380 446 m 208 463 l 260 724 q 286 795 271 778 q 321 812 300 812 q 342 805 335 812 q 350 784 350 798 q 336 735 350 775 l 244 470 q 222 446 236 446 q 208 463 204 446 z "},"#":{"ha":945,"x_min":234,"x_max":979,"o":"m 323 18 l 399 256 l 234 256 l 258 330 l 424 330 l 477 496 l 311 496 l 336 570 l 501 570 l 574 798 l 652 798 l 580 570 l 734 570 l 807 798 l 886 798 l 812 570 l 979 570 l 954 496 l 789 496 l 736 330 l 901 330 l 877 256 l 711 256 l 635 18 l 556 18 l 633 256 l 478 256 l 401 18 l 323 18 m 503 330 l 657 330 l 710 496 l 555 496 l 503 330 z "},"$":{"ha":611,"x_min":118,"x_max":677,"o":"m 521 903 l 564 903 l 541 808 l 556 808 q 643 783 609 808 q 677 731 677 759 q 665 701 677 714 q 635 688 652 688 q 612 693 622 688 q 581 719 606 696 q 527 747 558 739 l 453 458 q 545 353 519 400 q 570 260 570 307 q 505 90 570 168 q 335 -9 439 13 l 290 -182 l 247 -182 l 290 -17 q 258 -18 273 -18 q 148 0 177 -18 q 118 48 118 19 q 131 80 118 66 q 160 94 144 94 q 214 72 174 94 q 254 53 244 56 q 304 45 273 47 l 387 372 q 303 468 324 428 q 282 557 282 507 q 342 712 282 642 q 496 801 403 782 l 521 903 m 484 751 q 389 698 422 738 q 357 608 357 659 q 417 492 357 557 l 484 751 m 349 47 q 459 105 419 61 q 500 205 500 150 q 488 261 500 237 q 424 340 475 286 l 349 47 z "},"%":{"ha":945,"x_min":224,"x_max":945,"o":"m 332 -5 q 431 166 389 92 l 679 618 q 781 812 739 729 q 836 803 798 808 q 718 601 773 702 l 500 204 q 389 -10 440 96 q 354 -6 376 -7 q 332 -5 347 -6 m 437 812 q 529 773 494 812 q 565 663 565 734 q 492 453 565 545 q 353 378 433 378 q 261 418 297 378 q 224 524 224 458 q 285 721 224 629 q 437 812 346 812 m 428 784 q 348 699 385 784 q 311 511 311 614 q 328 433 311 458 q 365 408 344 408 q 433 473 403 408 q 478 680 478 570 q 460 762 478 732 q 428 784 447 784 m 818 424 q 910 385 874 424 q 945 275 945 346 q 872 64 945 156 q 733 -10 813 -10 q 641 30 677 -10 q 605 135 605 69 q 666 332 605 241 q 818 424 726 424 m 808 395 q 729 310 766 395 q 692 122 692 225 q 708 44 692 69 q 745 19 724 19 q 814 85 783 19 q 859 291 859 181 q 841 374 859 344 q 808 395 827 395 z "},"&":{"ha":1083,"x_min":158,"x_max":1212,"o":"m 1023 772 q 991 694 1004 732 q 951 543 979 656 q 873 279 905 349 q 744 105 829 185 q 878 -16 830 11 q 974 -43 926 -43 q 1063 -14 1027 -43 q 1100 50 1100 16 q 1092 84 1100 63 q 1083 119 1083 108 q 1095 150 1083 138 q 1124 162 1106 162 q 1155 148 1143 162 q 1167 109 1167 134 q 1102 -33 1167 28 q 947 -94 1036 -94 q 869 -80 908 -94 q 795 -37 830 -65 q 700 66 771 -17 q 469 -20 592 -20 q 246 66 334 -20 q 158 278 158 151 q 243 486 158 401 q 447 572 329 572 q 544 547 511 572 q 577 488 577 522 q 436 377 577 410 q 549 311 496 354 q 713 143 618 255 q 761 210 742 178 q 798 294 780 242 q 837 431 810 326 q 871 559 861 530 q 917 672 894 623 q 970 772 939 722 q 799 749 848 772 q 728 657 728 717 q 738 594 728 640 q 741 566 741 577 q 731 539 741 550 q 704 528 720 528 q 672 545 685 528 q 659 591 659 561 q 699 714 659 654 q 803 803 739 774 q 986 831 867 831 q 1021 830 1005 831 q 1087 827 1080 827 q 1127 838 1114 827 q 1141 867 1141 849 q 1137 891 1141 873 q 1133 914 1133 907 q 1143 943 1133 932 q 1171 955 1154 955 q 1200 941 1187 955 q 1212 902 1212 926 q 1164 814 1212 852 q 1023 772 1117 777 m 319 404 q 449 422 414 402 q 484 474 484 441 q 467 513 484 498 q 421 528 450 528 q 299 470 354 528 q 244 333 244 411 q 285 208 244 272 q 393 104 326 143 q 531 66 460 66 q 671 106 600 66 q 538 262 558 243 q 449 331 500 299 q 319 393 398 363 l 319 404 z "},"'":{"ha":222,"x_min":250,"x_max":396,"o":"m 254 463 l 306 724 q 332 795 317 778 q 368 812 347 812 q 389 805 381 812 q 396 784 396 798 q 382 735 396 775 l 290 470 q 269 446 282 446 q 254 463 250 446 z "},"(":{"ha":361,"x_min":126,"x_max":659,"o":"m 659 942 q 634 921 659 931 q 498 811 593 903 q 338 604 404 718 q 233 346 273 490 q 193 68 193 203 q 204 -80 193 -14 q 236 -202 215 -146 q 288 -322 269 -289 q 295 -339 295 -334 q 283 -353 295 -353 q 262 -336 275 -353 q 166 -135 206 -264 q 126 120 126 -6 q 184 433 126 286 q 335 705 242 579 q 561 916 427 831 q 644 957 625 957 q 659 942 659 957 z "},")":{"ha":306,"x_min":-98,"x_max":434,"o":"m -98 -338 q -74 -317 -98 -327 q 62 -207 -33 -299 q 222 0 157 -114 q 327 258 287 115 q 367 536 367 401 q 356 684 367 618 q 324 806 345 751 q 272 926 292 893 q 265 943 265 938 q 277 958 265 958 q 298 941 286 958 q 394 740 354 869 q 434 484 434 610 q 376 171 434 317 q 225 -101 318 25 q -1 -312 133 -228 q -84 -353 -65 -353 q -98 -338 -98 -353 z "},"*":{"ha":583,"x_min":190,"x_max":669,"o":"m 446 958 q 490 795 460 878 q 526 791 512 791 q 658 803 568 791 q 669 770 665 787 q 525 674 590 726 q 589 523 545 605 q 562 503 576 513 q 428 606 492 562 q 295 503 368 570 q 264 526 278 513 q 331 674 307 608 q 190 770 261 727 q 201 803 195 787 q 325 793 283 793 q 368 795 338 793 q 408 958 397 883 l 427 958 q 446 958 433 958 m 430 781 q 380 761 401 781 q 359 711 359 740 q 380 661 359 682 q 430 640 401 640 q 480 661 460 640 q 501 711 501 682 q 480 761 501 740 q 430 781 460 781 z "},"+":{"ha":722,"x_min":186,"x_max":786,"o":"m 448 436 l 448 697 l 524 697 l 524 436 l 786 436 l 786 361 l 524 361 l 524 96 l 448 96 l 448 361 l 186 361 l 186 436 l 448 436 z "},",":{"ha":306,"x_min":25,"x_max":239,"o":"m 38 -211 l 25 -167 q 120 -73 87 -119 q 142 -23 142 -43 q 125 27 142 -3 q 109 79 109 58 q 127 123 109 104 q 171 142 146 142 q 219 120 199 142 q 239 65 239 97 q 218 -18 239 28 q 157 -109 198 -64 q 38 -211 100 -170 z "},"-":{"ha":389,"x_min":114,"x_max":446,"o":"m 132 312 l 446 312 l 429 245 l 114 245 l 132 312 z "},".":{"ha":306,"x_min":101,"x_max":237,"o":"m 175 146 q 219 126 201 146 q 237 76 237 106 q 216 7 237 32 q 163 -18 195 -18 q 119 0 137 -18 q 101 48 101 19 q 126 123 101 91 q 175 146 144 146 z "},"/":{"ha":472,"x_min":-16,"x_max":727,"o":"m -16 -260 l 656 939 l 727 939 l 55 -260 l -16 -260 z "},":":{"ha":361,"x_min":101,"x_max":334,"o":"m 272 564 q 316 545 298 564 q 334 494 334 525 q 313 425 334 450 q 260 400 292 400 q 216 419 234 400 q 198 467 198 437 q 223 541 198 509 q 272 564 241 564 m 175 146 q 219 126 201 146 q 237 76 237 106 q 216 7 237 32 q 163 -18 195 -18 q 119 0 137 -18 q 101 48 101 19 q 126 123 101 91 q 175 146 144 146 z "},";":{"ha":333,"x_min":24,"x_max":342,"o":"m 280 564 q 324 545 306 564 q 342 494 342 525 q 321 425 342 450 q 269 400 300 400 q 224 419 242 400 q 206 467 206 437 q 231 541 206 509 q 280 564 250 564 m 37 -211 l 24 -167 q 119 -73 85 -119 q 140 -23 140 -43 q 124 27 140 -3 q 108 79 108 58 q 126 123 108 104 q 170 142 144 142 q 217 120 197 142 q 237 65 237 97 q 217 -18 237 28 q 155 -109 197 -64 q 37 -211 99 -170 z "},"<":{"ha":722,"x_min":151,"x_max":756,"o":"m 756 157 l 756 83 l 151 361 l 151 426 l 756 703 l 756 631 l 247 393 l 756 157 z "},"=":{"ha":722,"x_min":186,"x_max":786,"o":"m 786 553 l 786 476 l 186 476 l 186 553 l 786 553 m 786 321 l 786 244 l 186 244 l 186 321 l 786 321 z "},">":{"ha":722,"x_min":224,"x_max":830,"o":"m 224 157 l 734 393 l 224 631 l 224 703 l 830 426 l 830 361 l 224 83 l 224 157 z "},"?":{"ha":528,"x_min":121,"x_max":567,"o":"m 231 223 l 187 223 q 218 395 199 357 q 277 436 231 421 q 462 532 414 481 q 509 643 509 582 q 484 720 509 692 q 420 749 458 749 q 338 711 387 749 q 311 693 317 696 q 292 690 302 690 q 263 702 275 690 q 250 732 250 715 q 285 787 250 762 q 372 813 319 813 q 510 753 453 813 q 567 602 567 693 q 503 437 567 509 q 351 350 462 391 q 254 303 267 318 q 231 223 241 289 m 195 146 q 240 126 222 146 q 258 76 258 106 q 237 7 258 32 q 184 -18 216 -18 q 139 0 157 -18 q 121 48 121 19 q 146 123 121 91 q 195 146 165 146 z "},"@":{"ha":972,"x_min":176,"x_max":1009,"o":"m 767 685 l 806 694 q 750 489 777 595 q 709 301 723 383 q 704 267 704 277 q 710 245 704 253 q 727 237 717 237 q 794 272 753 237 q 885 389 852 321 q 918 528 918 458 q 849 703 918 634 q 671 771 781 771 q 475 714 565 771 q 324 539 385 656 q 263 300 263 421 q 300 148 263 221 q 388 58 328 93 q 519 23 448 23 q 842 159 673 23 l 865 132 q 490 -22 692 -22 q 259 59 342 -22 q 176 279 176 140 q 247 546 176 420 q 440 745 318 671 q 687 819 562 819 q 852 781 777 819 q 969 683 928 743 q 1009 559 1009 623 q 943 362 1009 460 q 766 208 876 264 q 643 167 688 167 q 619 175 627 167 q 610 198 610 184 q 637 299 610 217 q 526 199 577 233 q 433 166 475 166 q 384 196 406 166 q 362 275 362 227 q 419 463 362 361 q 552 614 477 564 q 715 664 627 664 q 755 662 729 664 l 767 685 m 697 596 q 650 602 669 602 q 556 572 599 602 q 481 467 513 541 q 449 317 449 393 q 463 263 449 281 q 500 246 476 246 q 547 260 524 246 q 605 312 580 279 q 639 372 631 346 l 662 463 l 697 596 z "},"A":{"ha":861,"x_min":-71,"x_max":881,"o":"m 881 30 l 874 -9 q 831 -11 850 -11 q 768 -7 805 -11 q 687 0 704 0 q 600 -9 659 0 q 635 102 621 44 q 656 245 645 144 q 410 241 577 245 q 158 -89 238 -22 q 5 -157 77 -157 q -52 -142 -33 -157 q -71 -104 -71 -127 q -60 -75 -71 -87 q -33 -64 -49 -64 q -7 -67 -23 -64 q 47 -77 34 -77 q 148 -25 93 -77 q 412 328 237 59 q 733 770 610 631 q 524 741 566 755 q 439 687 467 723 q 410 614 410 651 q 419 579 410 602 q 429 543 429 554 q 417 516 429 528 q 389 505 406 505 q 352 522 366 505 q 338 574 338 539 q 364 668 338 623 q 437 745 389 714 q 555 792 484 776 q 684 808 592 801 q 785 821 764 814 q 846 855 817 829 q 817 709 825 772 l 764 317 l 733 37 q 823 24 783 24 q 881 30 850 24 m 663 295 q 728 697 695 570 q 621 553 642 583 l 447 295 q 608 293 503 293 q 663 295 633 293 z "},"B":{"ha":833,"x_min":93,"x_max":878,"o":"m 435 650 l 444 683 q 610 710 521 688 q 576 597 587 640 l 539 446 q 720 506 659 446 q 781 649 781 566 q 737 742 781 707 q 606 777 693 777 q 372 719 484 777 q 199 567 261 661 q 137 378 137 473 q 144 331 137 353 q 165 290 151 309 q 201 260 173 279 q 239 228 232 239 q 247 203 247 218 q 236 179 247 189 q 211 168 226 168 q 133 224 172 168 q 93 363 93 281 q 161 584 93 477 q 354 755 229 691 q 629 820 479 820 q 814 772 751 820 q 878 654 878 724 q 835 535 878 589 q 705 452 792 481 q 800 419 765 442 q 853 362 834 397 q 871 283 871 328 q 828 144 871 210 q 702 36 785 79 q 527 -7 618 -7 q 414 -2 500 -7 q 327 0 372 0 q 204 -11 258 0 l 214 26 q 316 61 286 31 q 372 194 346 91 l 473 588 q 479 626 479 613 q 470 644 479 636 q 449 652 462 652 q 435 650 444 652 m 528 406 l 494 269 q 443 106 467 163 q 406 49 429 73 q 511 34 467 34 q 691 107 630 34 q 751 271 751 180 q 729 348 751 315 q 669 393 706 380 q 528 406 632 406 z "},"C":{"ha":722,"x_min":133,"x_max":852,"o":"m 808 518 l 772 518 q 775 603 775 571 q 735 736 775 699 q 635 774 696 774 q 468 708 555 774 q 319 504 381 643 q 256 219 256 366 q 314 2 256 77 q 460 -74 372 -74 q 677 68 578 -74 q 699 83 688 83 q 713 77 707 83 q 720 64 720 71 q 674 -8 720 45 q 561 -97 629 -62 q 426 -133 492 -133 q 277 -91 346 -133 q 171 28 209 -50 q 133 212 133 105 q 211 507 133 360 q 405 734 288 654 q 633 814 522 814 q 712 806 673 814 q 852 759 729 802 q 808 518 813 642 z "},"D":{"ha":972,"x_min":96,"x_max":1044,"o":"m 441 652 l 448 682 q 622 711 522 688 q 570 541 593 636 l 526 351 q 417 42 477 146 q 520 31 475 31 q 727 80 639 31 q 867 226 815 130 q 919 437 919 321 q 831 680 919 588 q 600 772 743 772 q 374 715 480 772 q 205 564 267 658 q 143 381 143 470 q 219 254 143 294 q 247 233 241 241 q 254 211 254 224 q 241 182 254 195 q 212 170 229 170 q 142 217 176 170 q 96 353 96 283 q 166 579 96 470 q 359 752 235 688 q 635 817 484 817 q 933 716 823 817 q 1044 465 1044 616 q 967 207 1044 325 q 780 40 890 90 q 562 -10 671 -10 q 439 -3 526 -10 q 300 2 366 2 q 208 0 270 2 l 223 33 q 301 44 286 37 q 327 69 316 52 q 380 205 347 100 l 427 382 l 481 603 q 486 631 486 619 q 479 648 486 642 q 460 654 472 654 q 441 652 455 654 z "},"E":{"ha":861,"x_min":92,"x_max":924,"o":"m 890 650 l 854 650 q 859 705 859 685 q 837 741 859 732 q 665 749 814 749 l 566 749 l 491 449 l 631 449 q 713 459 698 449 q 735 508 728 469 l 774 508 q 735 328 752 426 l 701 328 q 704 377 704 359 q 694 395 704 385 q 677 403 690 401 q 620 406 659 406 l 481 406 q 355 45 420 176 q 467 64 418 64 q 667 39 549 64 q 751 24 729 24 q 800 39 781 24 q 818 73 818 54 q 809 109 818 84 q 804 140 804 125 q 816 168 804 156 q 846 180 829 180 q 881 164 867 180 q 895 121 895 148 q 845 20 895 63 q 711 -24 794 -24 q 602 -16 668 -24 q 379 0 456 0 q 144 -16 279 0 l 155 21 q 250 54 235 43 q 273 85 264 64 q 358 343 306 149 q 463 753 410 537 q 309 714 382 753 q 196 613 237 675 q 155 483 155 551 q 161 432 155 454 q 187 371 167 410 q 200 332 200 347 q 188 306 200 317 q 157 294 175 294 q 115 321 130 294 q 92 426 92 359 q 199 682 92 568 q 513 795 307 795 l 746 795 q 924 810 867 795 q 890 650 897 698 z "},"F":{"ha":805,"x_min":155,"x_max":966,"o":"m 924 632 l 888 632 q 899 705 899 689 q 884 739 899 728 q 825 749 868 749 l 781 749 l 767 749 l 631 749 q 610 670 627 734 q 554 454 573 538 l 686 454 q 749 464 734 454 q 772 512 763 473 l 809 512 q 772 334 788 427 l 735 334 q 740 379 740 372 q 724 404 740 395 q 672 410 714 408 l 543 410 q 491 206 523 315 q 436 37 459 97 q 533 28 490 28 q 588 33 561 28 l 576 -5 q 540 -8 557 -8 q 446 -3 525 -8 q 367 0 399 0 q 227 -12 301 0 l 235 25 q 314 52 295 38 q 344 87 334 66 q 422 343 365 128 l 526 749 q 367 709 435 747 q 259 607 299 671 q 218 477 218 543 q 225 422 218 450 q 244 378 229 407 q 264 328 264 342 q 252 303 264 313 q 222 292 241 292 q 178 321 195 292 q 155 429 155 359 q 262 680 155 565 q 543 793 368 793 l 803 793 q 899 799 846 793 q 966 813 914 800 q 924 632 931 671 z "},"G":{"ha":861,"x_min":176,"x_max":940,"o":"m 903 540 l 866 540 q 869 596 869 572 q 822 730 869 688 q 706 772 775 772 q 514 707 610 772 q 356 526 418 642 q 295 284 295 410 q 356 96 295 156 q 492 35 416 35 q 577 47 536 35 q 656 82 618 59 q 687 224 687 189 q 674 251 687 241 q 630 260 662 260 q 578 257 619 260 l 584 290 q 644 296 614 296 q 705 294 669 296 q 746 294 732 294 q 821 298 770 294 q 866 300 847 300 l 859 266 q 810 251 825 267 q 781 172 796 236 q 671 -163 725 -60 q 547 -312 616 -267 q 398 -357 478 -357 q 289 -326 330 -357 q 247 -261 247 -295 q 260 -230 247 -243 q 290 -217 273 -217 q 342 -250 313 -217 q 394 -297 376 -286 q 434 -308 413 -308 q 509 -275 477 -308 q 640 30 576 -209 q 549 -7 595 5 q 455 -20 503 -20 q 267 43 336 -20 q 176 278 176 127 q 245 536 176 415 q 438 734 315 656 q 673 812 562 812 q 815 793 734 812 q 940 774 897 775 q 903 540 903 646 z "},"H":{"ha":945,"x_min":29,"x_max":1232,"o":"m 936 31 l 927 -8 q 874 -12 892 -12 q 797 -7 845 -12 q 709 -3 745 -3 q 648 -12 680 -3 q 711 205 676 66 l 764 408 l 581 401 q 481 394 532 399 q 387 126 435 213 q 275 -2 338 39 q 155 -43 212 -43 q 58 -16 98 -43 q 29 32 29 3 q 41 61 29 49 q 68 73 52 73 q 123 35 95 73 q 150 6 140 13 q 174 0 161 0 q 273 85 227 0 q 409 508 319 171 l 475 756 q 272 711 340 756 q 203 610 203 667 q 222 562 203 591 q 238 518 238 535 q 225 486 238 498 q 194 473 213 473 q 153 496 170 473 q 136 562 136 519 q 193 701 136 641 q 359 787 250 762 q 608 801 421 801 q 496 451 557 702 q 778 464 675 451 q 882 738 837 661 q 982 850 926 816 q 1107 885 1038 885 q 1199 862 1167 885 q 1232 810 1232 840 q 1220 783 1232 793 q 1190 772 1208 772 q 1137 806 1166 772 q 1082 840 1106 840 q 982 745 1031 840 q 778 35 894 577 q 810 31 789 34 q 873 24 849 24 q 936 31 901 24 z "},"I":{"ha":528,"x_min":94,"x_max":658,"o":"m 658 802 l 646 766 q 545 747 570 761 q 517 718 528 737 q 442 459 505 694 q 338 37 422 382 q 458 23 386 21 l 448 -9 q 361 -4 426 -10 q 252 0 314 0 q 94 -13 165 0 l 102 23 q 215 53 176 35 q 230 64 224 58 q 252 114 240 77 q 333 416 264 151 q 416 751 353 492 q 301 738 369 752 l 314 775 q 372 786 342 783 q 507 791 402 789 q 658 802 606 794 z "},"J":{"ha":555,"x_min":1,"x_max":681,"o":"m 681 800 q 576 494 631 690 l 475 141 q 340 -107 427 -28 q 151 -186 254 -186 q 42 -156 83 -186 q 1 -89 1 -125 q 13 -59 1 -72 q 41 -46 25 -46 q 90 -74 64 -46 q 146 -121 126 -111 q 198 -136 175 -136 q 240 -125 222 -136 q 291 -70 269 -107 q 380 181 313 -32 q 491 550 437 359 l 550 756 l 517 758 q 339 706 410 758 q 269 596 269 654 q 286 549 269 576 q 302 511 302 525 q 289 480 302 493 q 258 467 276 467 q 219 488 234 467 q 203 549 203 509 q 257 689 203 625 q 403 781 311 752 q 588 801 464 801 q 681 800 606 801 z "},"K":{"ha":917,"x_min":121,"x_max":1111,"o":"m 1052 800 l 1048 783 q 957 749 993 770 q 860 675 921 729 q 578 458 698 534 q 637 362 612 415 q 722 119 661 309 q 832 -111 776 -52 q 947 -171 888 -171 q 1023 -111 1003 -171 q 1044 -68 1036 -76 q 1072 -57 1057 -57 q 1099 -68 1088 -57 q 1111 -95 1111 -79 q 1063 -174 1111 -136 q 941 -212 1015 -212 q 820 -179 877 -212 q 715 -77 762 -146 q 618 140 667 -7 q 547 329 572 278 q 477 437 522 380 l 405 163 q 378 43 383 79 q 460 24 424 24 q 486 25 469 24 l 477 -9 q 460 -9 463 -9 q 396 -5 437 -9 q 325 0 353 0 q 146 -22 269 0 l 151 11 q 242 46 216 24 q 284 118 269 69 q 378 448 320 228 l 460 762 q 248 701 326 754 q 188 612 188 661 q 205 567 188 594 q 220 528 220 543 q 207 495 220 509 q 175 481 193 481 q 137 503 154 481 q 121 558 121 524 q 215 728 121 652 q 541 804 309 804 l 585 804 q 536 663 548 707 l 482 458 q 599 523 532 477 q 728 620 666 568 q 857 735 841 715 q 861 747 861 742 q 847 756 861 752 q 769 762 833 761 l 778 800 q 920 792 865 792 q 1052 800 977 792 z "},"L":{"ha":806,"x_min":66,"x_max":818,"o":"m 66 -12 l 75 25 q 170 56 146 39 q 213 119 194 74 q 266 305 233 164 q 346 574 310 492 q 483 757 401 697 q 648 817 564 817 q 738 789 701 817 q 774 733 774 762 q 763 705 774 717 q 736 694 752 694 q 687 720 716 694 q 636 758 654 749 q 602 766 618 766 q 563 755 582 766 q 506 699 536 741 q 444 575 476 657 q 390 392 422 519 q 313 123 339 189 q 267 44 294 75 q 421 66 363 66 q 488 61 457 66 q 594 39 518 57 q 686 24 660 24 q 730 40 712 24 q 748 76 748 56 q 739 112 748 89 q 730 146 730 134 q 741 175 730 165 q 769 186 751 186 q 804 168 789 186 q 818 119 818 150 q 769 17 818 60 q 637 -26 720 -26 q 530 -20 595 -26 q 243 0 311 0 q 66 -12 143 0 z "},"M":{"ha":1166,"x_min":87,"x_max":1230,"o":"m 640 -28 l 586 701 q 521 357 568 517 q 413 110 473 197 q 290 -12 353 23 q 165 -47 227 -47 q 107 -32 127 -47 q 87 5 87 -17 q 102 37 87 23 q 139 50 117 50 q 186 43 155 50 q 232 35 214 35 q 298 59 264 35 q 402 185 351 94 q 493 440 453 277 q 544 758 534 603 q 294 682 390 758 q 217 545 217 621 q 254 465 217 512 q 273 425 273 440 q 262 395 273 407 q 235 384 251 384 q 189 414 209 384 q 161 509 161 454 q 213 657 161 586 q 356 765 264 728 q 572 802 448 802 q 678 814 638 802 q 676 749 676 753 q 678 721 676 743 l 718 205 q 1038 675 882 491 q 1230 852 1148 806 q 1130 513 1183 724 l 1047 187 q 1029 108 1040 160 l 1013 35 q 1107 23 1064 23 q 1181 31 1141 23 l 1172 -8 q 1118 -14 1137 -14 q 1038 -8 1090 -14 q 962 -3 996 -3 q 882 -16 927 -3 q 960 246 920 81 l 1013 454 q 1070 638 1046 588 q 903 412 1016 576 q 699 75 812 279 l 640 -28 z "},"N":{"ha":972,"x_min":60,"x_max":1258,"o":"m 621 817 l 640 737 q 692 547 666 629 q 824 171 718 466 q 865 336 834 208 q 917 546 904 503 q 990 730 955 671 q 1069 815 1025 789 q 1167 841 1112 841 q 1235 824 1211 841 q 1258 783 1258 807 q 1245 753 1258 766 q 1216 741 1233 741 q 1187 747 1204 741 q 1147 763 1154 761 q 1120 766 1135 766 q 1063 743 1087 766 q 971 546 1021 704 q 842 41 920 388 l 819 -60 q 715 181 742 110 q 631 422 678 277 l 557 657 q 493 383 543 576 q 434 161 444 190 q 367 20 403 69 q 289 -51 332 -28 q 196 -73 247 -73 q 92 -45 132 -73 q 60 9 60 -24 q 72 34 60 23 q 100 45 83 45 q 145 23 121 45 q 224 -17 189 -17 q 300 18 263 -17 q 408 239 356 71 q 528 758 470 444 q 437 744 504 758 q 325 706 370 730 q 255 641 279 681 q 231 558 231 602 q 237 514 231 536 q 255 477 241 499 q 271 439 271 452 q 259 412 271 423 q 229 400 247 400 q 185 427 203 400 q 167 509 167 454 q 213 663 167 600 q 335 760 258 727 q 524 799 384 780 q 621 817 575 806 z "},"O":{"ha":833,"x_min":142,"x_max":909,"o":"m 610 812 q 764 772 695 812 q 871 659 833 732 q 909 488 909 585 q 840 235 909 360 q 673 45 772 109 q 453 -18 574 -18 q 228 68 314 -18 q 142 297 142 155 q 211 559 142 433 q 379 749 279 686 q 610 812 479 812 m 560 763 q 415 716 481 763 q 307 571 349 670 q 265 342 265 473 q 331 112 265 193 q 495 31 397 31 q 634 79 568 31 q 742 231 699 127 q 784 469 784 334 q 719 685 784 608 q 560 763 654 763 z "},"P":{"ha":750,"x_min":101,"x_max":923,"o":"m 425 649 l 433 680 q 602 707 532 689 q 565 583 585 659 l 515 392 l 577 388 q 672 410 621 386 q 763 493 723 433 q 804 622 804 553 q 754 730 804 690 q 604 770 705 770 q 378 713 489 770 q 208 567 268 656 q 148 391 148 477 q 163 316 148 348 q 219 254 179 285 q 252 207 252 230 q 241 182 252 192 q 216 172 231 172 q 138 227 176 172 q 101 366 101 281 q 219 646 101 519 q 634 813 374 813 q 797 787 733 813 q 891 717 860 762 q 923 620 923 672 q 879 489 923 553 q 748 386 834 425 q 555 347 661 347 q 505 349 539 347 l 451 138 q 420 32 437 84 q 513 19 473 19 q 619 38 562 19 l 611 0 q 522 -14 558 -14 q 418 -7 486 -14 q 330 0 364 0 q 195 -16 264 0 l 203 20 q 300 54 274 32 q 359 176 336 84 l 462 583 q 469 623 469 611 q 460 642 469 633 q 439 650 451 650 q 425 649 434 650 z "},"Q":{"ha":833,"x_min":142,"x_max":1130,"o":"m 530 -12 q 643 -121 591 -68 q 774 -244 737 -216 q 866 -298 827 -283 q 937 -313 905 -313 q 985 -304 964 -313 q 1025 -280 1007 -296 q 1051 -239 1035 -271 q 1096 -204 1069 -204 q 1120 -215 1109 -204 q 1130 -239 1130 -225 q 1075 -310 1130 -276 q 900 -357 998 -357 q 793 -344 834 -357 q 685 -289 736 -325 q 548 -164 633 -253 q 446 -63 470 -84 q 398 -27 422 -41 q 336 0 385 -19 q 192 114 241 38 q 142 297 142 190 q 269 647 142 481 q 597 812 396 812 q 761 774 692 812 q 869 661 829 736 q 909 493 909 587 q 801 172 909 327 q 530 -12 694 18 m 560 763 q 415 716 481 763 q 307 571 349 670 q 265 342 265 473 q 331 112 265 193 q 495 31 397 31 q 634 79 568 31 q 742 231 699 127 q 784 469 784 334 q 719 685 784 608 q 560 763 654 763 z "},"R":{"ha":833,"x_min":132,"x_max":1133,"o":"m 500 388 l 409 28 q 461 23 441 23 q 535 33 491 23 l 528 0 q 458 -9 483 -9 q 380 -5 431 -9 q 304 0 334 0 q 179 -16 250 0 l 189 22 q 286 60 264 41 q 338 162 320 89 l 433 541 q 451 627 451 614 q 443 645 451 639 q 409 650 434 651 l 418 683 q 582 708 486 684 q 561 632 574 682 l 510 432 q 565 425 543 425 q 710 485 650 425 q 770 625 770 544 q 722 729 770 688 q 590 770 673 770 q 382 718 484 770 q 229 590 280 667 q 178 431 178 514 q 231 322 178 368 q 263 290 257 300 q 269 268 269 279 q 259 243 269 254 q 233 233 248 233 q 168 275 197 233 q 132 412 132 331 q 189 607 132 517 q 364 756 247 697 q 610 815 481 815 q 809 770 731 815 q 887 635 887 724 q 815 480 887 552 q 618 388 744 408 q 659 304 650 326 q 702 180 673 267 q 844 -107 770 -24 q 961 -168 898 -168 q 1044 -109 1026 -168 q 1065 -63 1055 -72 q 1094 -51 1078 -51 q 1121 -62 1110 -51 q 1133 -90 1133 -74 q 1086 -170 1133 -132 q 968 -208 1040 -208 q 842 -176 902 -208 q 725 -72 782 -144 q 627 102 669 1 q 565 289 606 153 q 534 388 541 372 l 517 389 q 500 388 511 389 z "},"S":{"ha":639,"x_min":26,"x_max":743,"o":"m 698 550 l 663 550 q 670 658 670 621 q 642 740 670 710 q 566 770 614 770 q 435 716 491 770 q 380 595 380 663 q 395 530 380 559 q 463 449 410 501 q 588 302 558 355 q 618 199 618 250 q 573 57 618 125 q 440 -56 528 -12 q 254 -100 352 -100 q 92 -50 158 -100 q 26 56 26 0 q 43 105 26 85 q 83 125 60 125 q 121 106 106 125 q 140 58 130 96 q 166 -9 151 12 q 209 -43 182 -30 q 269 -56 237 -56 q 439 9 366 -56 q 511 154 511 75 q 502 208 511 181 q 469 269 493 235 q 393 350 452 292 q 321 428 336 407 q 290 489 300 458 q 279 551 279 520 q 321 675 279 612 q 428 774 362 737 q 578 811 494 811 q 682 798 621 811 q 743 788 718 791 q 720 705 728 744 q 698 550 712 666 z "},"T":{"ha":694,"x_min":110,"x_max":1014,"o":"m 672 39 l 663 0 q 586 -10 616 -10 q 492 -4 557 -10 q 403 0 442 0 q 263 -12 335 0 l 273 25 q 372 54 341 32 q 411 107 395 69 q 483 370 427 144 l 570 729 l 574 746 q 514 747 534 747 q 315 720 389 747 q 204 642 241 693 q 168 530 168 590 q 175 492 168 509 q 205 452 180 479 q 228 406 228 427 q 214 375 228 388 q 182 362 201 362 q 136 389 153 362 q 110 491 110 429 q 161 652 110 574 q 302 772 212 730 q 519 815 391 815 q 714 798 581 815 q 852 785 809 785 q 912 800 895 785 q 930 838 930 814 q 928 857 930 842 q 926 873 926 869 q 938 904 926 892 q 967 916 950 916 q 1001 901 987 916 q 1014 861 1014 886 q 959 772 1014 810 q 775 735 904 735 q 677 739 729 735 q 634 574 670 715 l 575 339 l 539 196 l 502 33 q 577 27 547 27 q 672 39 623 27 z "},"U":{"ha":1027,"x_min":161,"x_max":1107,"o":"m 629 810 q 494 503 561 690 q 448 282 448 371 q 495 128 448 183 q 615 73 543 73 q 743 107 683 73 q 889 243 822 152 q 1000 463 957 335 q 1042 702 1042 591 q 1009 848 1042 779 q 989 890 991 884 q 987 911 987 900 q 999 944 987 931 q 1030 957 1012 957 q 1080 923 1062 957 q 1107 780 1107 877 q 1016 367 1107 572 q 806 73 925 161 q 556 -15 687 -15 q 393 56 450 -15 q 336 231 336 127 q 362 406 336 316 q 505 756 397 523 q 353 735 420 758 q 257 677 286 713 q 227 608 227 642 q 243 569 227 593 q 259 526 259 541 q 247 493 259 506 q 216 480 235 480 q 177 500 194 480 q 161 553 161 521 q 191 658 161 606 q 270 743 222 711 q 390 789 319 774 q 536 803 425 797 q 629 810 612 807 z "},"V":{"ha":889,"x_min":142,"x_max":1112,"o":"m 436 -28 l 412 300 q 404 433 404 401 q 430 601 404 524 q 523 766 456 678 q 361 728 444 766 q 240 641 279 690 q 202 541 202 591 q 216 492 202 518 q 235 443 235 460 q 225 418 235 427 q 201 408 216 408 q 163 431 179 408 q 142 505 142 460 q 205 664 142 587 q 376 777 267 741 q 579 810 446 801 q 652 817 615 812 q 533 592 561 682 q 505 349 505 503 q 517 133 505 231 l 648 272 l 759 386 q 985 659 927 559 q 1029 795 1029 734 q 1014 870 1029 829 q 1004 909 1004 896 q 1018 941 1004 928 q 1050 955 1031 955 q 1094 928 1076 955 q 1112 846 1112 902 q 1088 729 1112 791 q 991 573 1065 668 q 763 321 918 478 q 436 -28 601 157 z "},"W":{"ha":1222,"x_min":134,"x_max":1433,"o":"m 833 -60 l 846 377 q 873 650 851 522 q 774 506 834 602 q 390 -33 596 219 q 366 178 375 58 q 357 390 357 299 q 381 594 357 518 q 472 762 405 671 q 270 681 345 747 q 195 545 195 614 q 209 492 195 519 q 226 450 226 460 q 215 420 226 432 q 187 409 203 409 q 152 429 165 409 q 134 495 134 454 q 169 621 134 557 q 264 727 205 686 q 398 788 323 769 q 537 809 439 798 q 603 818 570 813 q 456 401 456 612 q 466 139 456 336 q 538 232 506 187 q 655 405 561 263 q 882 730 807 635 q 1002 851 935 795 q 937 117 937 595 l 1107 328 q 1245 527 1175 413 q 1338 708 1316 640 q 1352 791 1352 752 q 1335 873 1352 830 q 1324 912 1324 900 q 1337 943 1324 930 q 1371 956 1350 956 q 1411 932 1396 956 q 1433 850 1433 901 q 1386 669 1433 781 q 1177 342 1339 557 q 833 -60 968 68 z "},"X":{"ha":778,"x_min":-11,"x_max":1031,"o":"m 298 746 l 307 786 q 363 791 330 791 q 444 793 430 791 q 519 801 471 794 q 559 520 519 675 q 762 766 658 655 q 883 863 827 835 q 968 882 923 882 q 1016 870 1000 882 q 1031 840 1031 859 q 1017 810 1031 821 q 957 795 1003 799 q 852 768 892 788 q 759 690 812 748 q 574 465 671 595 q 624 274 608 367 q 640 93 640 181 q 639 36 640 66 q 698 28 669 28 q 771 33 725 28 l 763 -6 q 728 -8 736 -8 q 669 -4 709 -8 q 613 0 635 0 q 534 -6 591 0 q 543 77 543 41 q 532 230 543 157 q 502 368 522 303 l 392 214 q 176 -39 250 17 q 39 -94 102 -94 q 2 -82 16 -94 q -11 -53 -11 -70 q 3 -23 -11 -35 q 54 -7 16 -12 q 179 43 127 3 q 356 244 248 96 l 486 423 q 420 755 420 631 q 378 757 391 757 q 298 746 343 757 z "},"Y":{"ha":778,"x_min":134,"x_max":1122,"o":"m 739 40 l 725 0 q 653 -11 683 -11 q 569 -5 621 -11 q 490 0 519 0 q 363 -9 449 0 l 375 25 q 455 60 439 41 q 509 223 471 79 q 547 412 547 366 q 512 598 547 503 q 424 753 477 694 q 281 684 324 716 q 212 605 238 652 q 186 523 186 558 q 217 458 186 488 q 243 413 243 433 q 233 384 243 395 q 207 372 222 372 q 160 399 179 372 q 134 489 134 437 q 176 631 134 564 q 294 742 218 697 q 439 798 338 768 q 506 821 476 809 q 597 660 563 752 q 645 430 632 567 q 885 802 771 694 q 1072 909 1000 909 q 1108 897 1094 909 q 1122 865 1122 884 q 1106 833 1122 845 q 1041 817 1089 821 q 968 798 994 814 q 848 683 917 767 q 712 473 779 599 q 610 210 645 347 q 572 32 574 73 q 635 26 604 26 q 739 40 682 26 z "},"Z":{"ha":861,"x_min":92,"x_max":931,"o":"m 764 710 q 673 700 720 700 q 496 729 598 700 q 416 747 433 747 q 371 735 387 747 q 356 706 356 723 q 378 671 356 687 q 406 644 400 653 q 412 621 412 634 q 399 591 412 604 q 370 579 387 579 q 323 604 343 579 q 304 672 304 629 q 349 774 304 732 q 459 816 393 816 q 559 807 501 816 q 758 787 692 787 q 884 817 824 787 q 908 825 901 825 q 924 819 917 825 q 931 807 931 813 q 868 730 931 786 q 745 611 802 671 l 406 260 l 212 50 q 433 92 358 92 q 663 47 540 92 q 758 23 730 23 q 804 37 789 23 q 819 76 819 50 q 812 107 819 90 q 804 138 804 128 q 818 171 804 157 q 850 185 831 185 q 885 169 870 185 q 899 124 899 152 q 847 16 899 58 q 728 -27 795 -27 q 589 -14 688 -27 q 344 0 475 0 q 142 -21 193 0 q 111 -29 121 -29 q 97 -23 104 -29 q 92 -9 92 -18 q 118 35 92 10 q 221 140 146 61 q 412 335 283 205 l 616 543 q 764 710 690 618 z "},"[":{"ha":333,"x_min":87,"x_max":559,"o":"m 355 934 l 559 934 l 549 891 l 420 891 l 174 -191 l 300 -191 l 291 -233 l 87 -233 l 355 934 z "},"\\":{"ha":667,"x_min":290,"x_max":652,"o":"m 652 -260 l 582 -260 l 290 939 l 361 939 l 652 -260 z "},"]":{"ha":444,"x_min":45,"x_max":517,"o":"m 250 -233 l 45 -233 l 54 -191 l 184 -191 l 431 891 l 303 891 l 313 934 l 517 934 l 250 -233 z "},"^":{"ha":722,"x_min":342,"x_max":685,"o":"m 418 570 l 342 570 l 477 793 l 550 793 l 685 570 l 609 570 l 513 706 l 418 570 z "},"_":{"ha":694,"x_min":-8,"x_max":703,"o":"m -8 -104 l 703 -104 l 703 -174 l -8 -174 l -8 -104 z "},"`":{"ha":306,"x_min":211,"x_max":399,"o":"m 211 849 l 324 849 l 399 652 l 358 652 l 211 849 z "},"a":{"ha":583,"x_min":102,"x_max":656,"o":"m 581 582 l 625 591 l 574 420 q 517 184 544 317 q 502 90 502 111 q 519 69 502 69 q 553 83 530 69 q 634 146 595 109 l 656 119 q 557 34 578 49 q 474 -10 513 4 q 424 -20 448 -20 q 397 -12 406 -20 q 389 12 389 -3 q 394 40 389 22 l 421 132 q 282 12 363 62 q 191 -19 233 -19 q 131 9 152 -19 q 102 106 102 46 q 141 267 102 178 q 243 427 179 355 q 379 532 308 498 q 520 558 434 558 q 564 555 542 558 l 581 582 m 496 478 q 435 486 460 486 q 328 452 374 486 q 244 331 283 418 q 205 157 205 244 q 220 91 205 111 q 261 71 236 71 q 361 121 308 71 q 440 267 415 172 l 496 478 z "},"b":{"ha":583,"x_min":162,"x_max":661,"o":"m 324 452 q 432 540 379 512 q 526 568 486 568 q 602 530 574 568 q 631 416 631 492 q 578 198 631 304 q 449 36 526 92 q 299 -20 372 -20 q 199 17 237 -20 q 162 112 162 54 q 180 242 162 159 l 260 601 q 334 801 290 732 q 450 911 378 870 q 586 952 522 952 q 643 939 625 952 q 661 903 661 926 q 644 869 661 883 q 598 856 628 856 q 521 866 576 856 q 477 871 496 871 q 422 834 444 871 q 380 690 407 806 l 324 452 m 458 493 q 379 453 425 493 q 292 312 333 413 q 252 113 252 210 q 275 51 252 76 q 330 26 298 26 q 464 145 405 26 q 523 382 523 264 q 500 470 523 436 q 458 493 485 493 z "},"c":{"ha":472,"x_min":119,"x_max":560,"o":"m 490 147 l 505 108 q 232 -19 343 -19 q 146 23 173 -19 q 119 130 119 65 q 176 350 119 237 q 315 524 233 463 q 458 570 378 570 q 534 551 509 570 q 560 505 560 532 q 547 471 560 484 q 509 458 533 458 q 448 479 485 458 q 383 503 409 503 q 317 472 350 503 q 254 355 284 442 q 224 181 224 269 q 250 81 224 117 q 301 54 268 54 q 490 147 380 54 z "},"d":{"ha":611,"x_min":104,"x_max":923,"o":"m 640 140 l 659 115 q 524 13 568 38 q 428 -22 463 -22 q 401 -13 412 -22 q 391 8 391 -3 q 399 46 391 20 l 422 129 q 287 10 341 41 q 189 -21 233 -21 q 129 11 153 -21 q 104 103 104 42 q 171 325 104 199 q 318 510 237 450 q 466 570 399 570 q 511 565 481 570 q 572 758 543 697 q 647 863 601 819 q 752 931 693 907 q 863 955 812 955 q 907 941 890 955 q 923 905 923 926 q 908 870 923 884 q 867 857 893 857 q 804 864 850 857 q 741 871 758 871 q 700 856 718 871 q 665 793 682 842 q 616 599 654 763 l 519 189 q 503 93 503 117 q 522 67 503 67 q 551 76 534 67 q 640 140 574 89 m 496 490 q 420 503 442 503 q 331 467 374 503 q 247 329 288 431 q 207 151 207 227 q 225 94 207 116 q 268 72 244 72 q 333 97 296 72 q 416 188 385 134 q 465 354 434 222 l 496 490 z "},"e":{"ha":472,"x_min":112,"x_max":536,"o":"m 473 170 l 496 140 q 211 -18 330 -18 q 137 15 163 -18 q 112 119 112 47 q 200 408 112 264 q 437 572 299 572 q 510 548 485 572 q 536 481 536 524 q 505 395 536 437 q 396 306 475 352 q 228 225 357 283 q 222 155 222 189 q 237 88 222 107 q 281 69 252 69 q 342 85 309 69 q 473 170 387 106 m 236 269 q 400 374 345 317 q 437 452 437 413 q 422 498 437 481 q 382 515 407 515 q 334 496 357 515 q 280 420 302 471 q 236 269 249 346 z "},"f":{"ha":444,"x_min":-197,"x_max":768,"o":"m 141 526 l 303 526 q 395 779 343 696 q 529 909 446 861 q 685 957 612 957 q 747 941 726 957 q 768 902 768 924 q 754 868 768 882 q 717 854 740 854 q 627 869 693 854 q 576 876 595 876 q 496 820 532 876 q 438 671 460 765 l 404 526 l 583 526 l 572 478 l 391 478 l 284 45 q 126 -254 235 -152 q -111 -355 17 -355 q -175 -339 -153 -355 q -197 -298 -197 -322 q -182 -264 -197 -277 q -138 -252 -167 -252 q -96 -255 -124 -252 q -5 -261 -49 -261 q 92 -230 62 -261 q 153 -75 123 -198 l 291 478 l 129 478 l 141 526 z "},"g":{"ha":555,"x_min":-18,"x_max":629,"o":"m 574 575 l 629 587 q 538 269 580 429 q 497 79 509 155 q 490 -17 491 41 q 469 -174 489 -115 q 362 -309 440 -258 q 178 -359 285 -359 q 34 -316 87 -359 q -18 -218 -18 -273 q 24 -115 -18 -163 q 154 -28 55 -79 q 248 26 204 -2 q 170 0 198 0 q 126 23 145 0 q 106 85 106 47 q 181 333 106 210 q 359 518 255 456 q 521 556 424 556 q 568 555 540 556 l 574 575 m 498 475 q 441 481 466 481 q 330 447 376 481 q 252 333 284 413 q 206 142 206 220 q 224 89 206 111 q 264 67 242 67 q 332 93 292 67 q 397 159 372 119 q 449 294 422 198 l 498 475 m 406 105 q 229 -27 360 64 q 86 -140 113 -106 q 60 -215 60 -176 q 94 -284 60 -254 q 177 -315 128 -315 q 267 -293 223 -315 q 342 -227 310 -270 q 387 -130 374 -184 q 399 14 399 -75 q 406 105 400 34 z "},"h":{"ha":611,"x_min":121,"x_max":680,"o":"m 663 144 l 680 119 q 552 9 618 50 q 478 -19 507 -19 q 440 0 454 -19 q 425 59 425 19 q 436 138 425 86 q 500 361 448 190 q 523 459 523 445 q 500 482 523 482 q 429 454 471 482 q 323 353 369 414 q 276 237 294 314 l 222 1 l 121 1 q 171 195 153 119 l 271 630 q 342 815 298 750 q 458 918 387 880 q 600 957 530 957 q 646 943 629 957 q 663 907 663 928 q 646 874 663 888 q 601 861 629 861 q 559 864 585 861 q 478 872 500 872 q 427 847 447 872 q 387 729 408 822 l 311 394 q 486 537 391 479 q 576 572 542 572 q 617 556 602 572 q 632 511 632 540 q 627 465 632 488 q 585 320 618 425 q 533 140 541 175 q 526 77 526 104 q 529 60 526 66 q 541 55 533 55 q 602 94 557 55 q 663 144 627 115 z "},"i":{"ha":333,"x_min":110,"x_max":455,"o":"m 407 862 q 441 848 428 862 q 455 812 455 834 q 434 760 455 783 q 388 737 414 737 q 354 751 368 737 q 340 789 340 766 q 360 841 340 819 q 407 862 380 862 m 140 413 l 110 436 q 234 542 178 511 q 329 574 290 574 q 362 564 351 574 q 374 538 374 555 q 330 372 374 519 q 258 81 258 131 q 262 65 258 72 q 273 59 267 59 q 384 143 294 59 l 410 117 q 275 5 317 30 q 205 -19 232 -19 q 167 -4 181 -19 q 153 37 153 11 q 255 452 153 122 q 260 479 260 467 q 248 493 260 493 q 217 482 234 493 q 140 413 199 471 z "},"j":{"ha":306,"x_min":-154,"x_max":463,"o":"m 414 862 q 449 848 435 862 q 463 812 463 834 q 442 760 463 783 q 396 737 421 737 q 361 751 375 737 q 348 789 348 766 q 368 841 348 819 q 414 862 388 862 m 144 408 l 119 437 q 243 536 176 499 q 346 574 310 574 q 371 565 361 574 q 380 541 380 555 q 359 445 380 524 l 241 17 q 111 -278 182 -201 q -56 -355 40 -355 q -129 -337 -103 -355 q -154 -296 -154 -319 q -142 -269 -154 -280 q -113 -257 -130 -257 q -59 -275 -94 -257 q 3 -295 -18 -295 q 62 -261 40 -295 q 130 -47 85 -228 q 208 254 176 138 l 255 425 q 269 477 269 467 q 264 486 269 482 q 255 490 260 490 q 144 408 229 490 z "},"k":{"ha":611,"x_min":122,"x_max":912,"o":"m 223 0 l 122 0 l 211 370 q 295 708 275 644 q 343 813 315 772 q 414 887 372 854 q 506 937 456 920 q 592 954 555 954 q 645 941 627 954 q 662 905 662 927 q 646 872 662 886 q 607 859 631 859 q 517 869 577 859 q 482 873 497 873 q 443 858 461 873 q 409 805 424 843 q 368 646 395 766 l 320 429 q 455 543 385 503 q 556 572 508 572 q 613 547 590 572 q 637 483 637 522 q 562 353 637 410 q 332 292 486 296 q 415 242 384 269 q 476 166 446 214 q 554 3 507 117 q 659 -177 610 -132 q 763 -222 706 -222 q 818 -207 796 -222 q 840 -178 840 -193 q 833 -152 840 -168 q 825 -122 825 -134 q 838 -94 825 -106 q 866 -82 850 -82 q 899 -97 885 -82 q 912 -138 912 -113 q 867 -224 912 -186 q 751 -262 823 -262 q 618 -225 677 -262 q 509 -106 560 -188 q 408 111 480 -58 q 347 231 374 191 q 289 292 326 262 l 223 0 m 294 321 q 443 338 386 320 q 523 387 499 357 q 547 454 547 418 q 533 495 547 479 q 500 511 519 511 q 304 368 436 511 l 294 321 z "},"l":{"ha":333,"x_min":131,"x_max":657,"o":"m 400 163 l 423 139 q 298 30 370 79 q 179 -19 226 -19 q 144 -3 158 -19 q 131 41 131 13 q 173 266 131 95 l 246 564 q 313 780 286 725 q 432 909 355 863 q 595 956 509 956 q 641 942 624 956 q 657 908 657 928 q 641 872 657 886 q 593 859 625 859 q 536 865 573 859 q 475 871 503 871 q 433 859 448 871 q 398 791 414 843 q 346 585 382 739 l 279 300 q 229 77 229 87 q 244 56 229 56 q 288 73 259 56 q 400 163 344 109 z "},"m":{"ha":861,"x_min":116,"x_max":930,"o":"m 136 414 l 116 441 q 243 541 183 509 q 338 572 304 572 q 360 566 353 572 q 367 549 367 560 q 356 497 367 536 q 334 407 340 440 q 583 572 497 572 q 617 560 606 572 q 629 522 629 548 q 608 425 629 493 q 743 539 686 505 q 831 572 800 572 q 876 556 860 572 q 891 506 891 540 q 884 458 891 486 q 835 288 878 430 q 781 79 781 113 q 800 56 781 56 q 825 64 813 56 q 907 134 865 92 l 930 110 q 876 62 916 98 q 802 1 822 14 q 735 -22 762 -22 q 699 -2 715 -22 q 684 54 684 18 q 693 130 684 86 q 749 326 703 174 q 783 465 783 441 q 763 488 783 488 q 718 471 746 488 q 620 385 659 436 q 572 273 593 350 q 505 0 527 106 l 408 0 l 509 414 q 520 466 520 459 q 515 483 520 477 q 499 488 509 488 q 442 460 481 488 q 346 367 375 412 q 295 229 316 321 l 243 0 l 146 0 l 222 323 q 256 476 256 464 q 244 492 256 492 q 136 414 218 492 z "},"n":{"ha":639,"x_min":115,"x_max":707,"o":"m 138 412 l 115 435 q 254 545 202 518 q 342 572 305 572 q 364 566 356 572 q 372 552 372 560 q 369 530 372 546 l 338 394 q 512 537 408 471 q 604 572 568 572 q 645 555 630 572 q 660 506 660 538 q 654 458 660 485 q 597 267 643 414 q 553 83 553 128 q 557 62 553 69 q 569 56 562 56 q 631 94 589 56 q 690 144 661 121 l 707 119 q 578 8 645 50 q 507 -19 535 -19 q 467 0 481 -19 q 453 60 453 18 q 528 361 453 121 q 551 460 551 446 q 526 481 551 481 q 456 453 499 481 q 350 354 393 411 q 304 237 323 317 l 250 1 l 149 1 q 198 195 177 102 l 258 453 q 262 475 262 469 q 248 494 262 494 q 217 479 237 494 q 138 412 175 452 z "},"o":{"ha":555,"x_min":118,"x_max":609,"o":"m 454 570 q 565 517 521 570 q 609 370 609 465 q 503 100 609 220 q 279 -20 397 -20 q 162 28 207 -20 q 118 157 118 75 q 199 420 118 300 q 454 570 302 570 m 397 519 q 285 437 339 519 q 231 210 231 355 q 264 71 231 121 q 330 33 289 33 q 433 104 387 33 q 493 331 493 195 q 466 476 493 433 q 397 519 438 519 z "},"p":{"ha":611,"x_min":-20,"x_max":675,"o":"m 128 402 l 102 429 q 224 538 163 503 q 330 574 286 574 q 357 565 347 574 q 367 541 367 557 q 362 500 367 521 q 335 402 358 479 q 477 530 439 506 q 593 572 541 572 q 652 539 628 572 q 675 441 675 507 q 573 129 675 277 q 347 -19 471 -19 q 249 7 298 -19 l 191 -216 q 186 -250 186 -237 q 205 -286 186 -275 q 328 -313 234 -302 l 319 -347 q 147 -338 210 -338 q -20 -347 83 -338 l -11 -313 q 64 -285 41 -308 q 102 -203 87 -262 l 224 312 q 259 472 259 456 q 242 490 259 490 q 128 402 212 490 m 265 82 q 375 28 319 28 q 518 155 456 28 q 579 403 579 282 q 562 461 579 441 q 515 481 545 481 q 442 450 483 481 q 346 351 379 400 q 301 229 322 316 l 265 82 z "},"q":{"ha":555,"x_min":106,"x_max":652,"o":"m 605 596 l 652 596 q 557 252 616 490 l 440 -239 q 437 -267 437 -254 q 451 -295 437 -286 q 529 -315 465 -305 l 517 -352 q 374 -338 448 -338 q 191 -352 307 -338 l 199 -315 q 289 -296 263 -310 q 332 -254 315 -283 q 369 -140 348 -226 l 435 140 q 290 16 368 62 q 188 -20 231 -20 q 130 13 154 -20 q 106 106 106 45 q 229 416 106 258 q 505 574 353 574 q 581 564 536 574 l 605 596 m 517 482 q 432 496 469 496 q 326 460 372 496 q 242 333 279 425 q 205 151 205 240 q 222 90 205 112 q 267 68 240 68 q 327 94 290 68 q 429 193 395 142 q 478 328 454 228 l 517 482 z "},"r":{"ha":416,"x_min":113,"x_max":602,"o":"m 243 0 l 142 0 l 190 182 q 250 437 224 317 q 256 475 256 467 q 241 491 256 491 q 210 477 231 491 q 134 408 189 463 l 113 432 q 243 537 178 502 q 342 572 308 572 q 362 566 355 572 q 369 551 369 560 q 360 505 369 543 l 331 383 q 486 568 399 491 q 555 604 527 604 q 589 591 575 604 q 602 560 602 578 q 589 529 602 542 q 523 498 576 516 q 441 458 473 481 q 372 385 410 434 q 319 300 334 336 q 274 132 304 264 l 243 0 z "},"s":{"ha":444,"x_min":88,"x_max":542,"o":"m 416 571 q 509 548 476 571 q 542 494 542 524 q 528 462 542 475 q 494 448 514 448 q 472 454 481 448 q 445 483 463 460 q 379 527 412 527 q 330 506 351 527 q 309 452 309 484 q 322 398 309 425 q 391 314 336 372 q 466 162 466 234 q 405 36 466 90 q 248 -18 344 -18 q 127 15 167 -18 q 88 96 88 48 q 103 136 88 120 q 140 151 118 151 q 172 139 159 151 q 186 109 186 126 q 184 92 186 102 q 184 77 184 83 q 203 39 184 54 q 253 23 221 23 q 317 36 290 23 q 361 74 345 48 q 376 124 376 99 q 362 173 376 149 q 296 254 347 197 q 226 405 226 332 q 279 521 226 471 q 416 571 333 571 z "},"t":{"ha":444,"x_min":149,"x_max":507,"o":"m 308 675 l 416 716 l 367 526 l 507 526 l 496 478 l 356 478 l 296 251 q 269 109 269 149 q 276 82 269 90 q 298 74 284 74 q 362 99 319 74 q 471 174 419 132 l 496 143 q 298 6 348 31 q 217 -19 248 -19 q 177 -1 192 -19 q 163 59 163 18 q 189 208 163 108 l 258 478 l 149 478 l 161 526 l 270 526 l 308 675 z "},"u":{"ha":639,"x_min":114,"x_max":707,"o":"m 576 552 l 673 552 l 609 315 q 553 81 553 109 q 559 61 553 68 q 572 54 565 54 q 600 64 584 54 q 684 143 622 80 l 707 118 q 506 -24 570 -24 q 469 -7 484 -24 q 454 40 454 9 q 469 134 454 75 q 319 13 408 65 q 217 -22 260 -22 q 180 -6 193 -22 q 166 43 166 9 q 172 100 166 70 q 217 272 181 143 q 262 468 262 435 q 249 487 262 487 q 216 474 237 487 q 144 414 195 462 l 114 437 q 253 544 205 519 q 330 570 300 570 q 356 558 346 570 q 366 521 366 546 q 317 291 366 474 q 274 103 274 126 q 283 79 274 89 q 303 68 292 68 q 411 131 341 68 q 503 274 481 194 l 576 552 z "},"v":{"ha":611,"x_min":98,"x_max":697,"o":"m 431 506 q 358 359 378 422 q 338 232 338 295 q 364 50 338 174 q 576 263 514 163 q 639 434 639 362 q 623 487 639 455 q 606 537 606 521 q 618 568 606 555 q 648 581 631 581 q 684 562 670 581 q 697 496 697 543 q 595 215 697 352 q 277 -44 469 47 q 258 58 272 -12 q 230 253 230 198 q 264 394 230 326 q 364 512 298 462 q 193 486 245 510 q 157 444 157 468 q 166 412 157 435 q 172 386 172 397 q 163 367 172 375 q 140 358 154 358 q 111 373 123 358 q 98 413 98 388 q 125 485 98 453 q 216 536 151 517 q 389 553 281 554 q 444 572 432 572 q 463 563 454 572 q 472 544 472 554 q 431 506 472 523 z "},"w":{"ha":945,"x_min":102,"x_max":1027,"o":"m 398 551 q 446 573 429 573 q 467 565 458 573 q 475 544 475 556 q 435 507 475 517 l 382 405 q 353 319 363 362 q 343 232 343 277 q 370 52 343 176 q 565 237 475 121 q 564 279 564 266 q 608 515 564 429 q 673 572 637 572 q 708 554 694 572 q 722 500 722 536 q 711 435 722 472 q 667 323 692 374 q 693 52 667 152 q 851 191 774 107 q 937 320 907 253 q 966 429 966 387 q 951 484 966 450 q 934 540 934 522 q 947 570 934 557 q 978 583 960 583 q 1014 561 1000 583 q 1027 485 1027 540 q 905 192 1027 345 q 609 -45 784 39 q 569 175 587 29 q 454 64 477 83 q 368 1 410 27 q 279 -45 326 -25 q 257 80 274 -6 q 233 254 233 201 q 268 392 233 324 q 370 512 302 460 q 195 484 248 509 q 160 443 160 467 q 168 414 160 434 q 176 387 176 396 q 167 366 176 375 q 144 357 158 357 q 115 373 127 357 q 102 417 102 389 q 151 505 102 471 q 398 551 222 555 z "},"x":{"ha":583,"x_min":33,"x_max":808,"o":"m 182 433 l 162 460 q 288 550 234 522 q 341 570 323 570 q 382 544 367 570 q 427 384 405 507 q 575 554 511 507 q 683 601 640 601 q 719 588 705 601 q 732 556 732 575 q 713 522 732 535 q 640 508 700 512 q 553 475 590 505 q 437 330 493 425 l 481 127 q 539 -71 509 -6 q 614 -170 570 -135 q 669 -189 639 -189 q 732 -136 713 -189 q 774 -102 745 -102 q 798 -113 787 -102 q 808 -141 808 -124 q 770 -202 808 -174 q 673 -230 732 -230 q 549 -189 608 -230 q 447 -57 490 -148 q 367 231 404 33 q 323 170 353 212 q 191 14 238 49 q 102 -20 144 -20 q 52 -4 72 -20 q 33 36 33 13 q 45 69 33 55 q 75 83 58 83 q 111 60 93 83 q 141 39 127 39 q 162 45 151 39 q 208 86 179 55 q 270 162 248 130 l 354 286 l 326 413 q 304 479 315 465 q 279 494 293 494 q 251 483 269 494 q 182 433 212 460 z "},"y":{"ha":555,"x_min":-41,"x_max":633,"o":"m 116 433 l 94 465 l 144 498 q 248 563 218 549 q 279 571 264 571 q 306 555 293 571 q 406 352 366 479 q 447 104 447 224 q 446 56 447 88 q 560 391 560 267 q 549 460 560 417 q 536 528 536 507 q 549 560 536 547 q 581 573 562 573 q 619 555 604 573 q 633 503 633 536 q 593 284 633 415 q 468 4 553 154 q 311 -219 382 -146 q 174 -324 240 -292 q 49 -355 108 -355 q -19 -339 4 -355 q -41 -299 -41 -322 q -24 -264 -41 -279 q 24 -250 -6 -250 q 87 -258 47 -250 q 145 -268 130 -268 q 233 -233 186 -268 q 333 -120 296 -186 q 370 13 370 -54 q 342 239 370 107 q 264 441 315 372 q 211 477 239 477 q 116 433 178 477 z "},"z":{"ha":611,"x_min":50,"x_max":667,"o":"m 547 500 q 433 483 485 483 q 370 486 405 483 q 306 492 322 492 q 275 482 286 492 q 264 458 264 473 q 288 433 264 435 q 319 405 319 429 q 309 384 319 393 q 288 375 300 375 q 242 399 263 375 q 222 459 222 423 q 260 538 222 505 q 356 572 299 572 q 437 564 386 572 q 555 551 519 551 q 623 575 591 551 q 648 586 638 586 q 662 581 656 586 q 667 571 667 576 q 660 556 667 564 q 555 449 637 528 l 345 248 q 191 105 252 159 q 252 109 230 109 q 307 104 282 109 q 388 81 332 99 q 506 56 460 56 q 550 69 534 56 q 565 102 565 82 q 554 135 565 114 q 545 166 545 155 q 555 194 545 182 q 583 205 566 205 q 615 190 602 205 q 629 149 629 174 q 601 69 629 111 q 531 5 573 27 q 427 -18 489 -18 q 279 12 376 -18 q 159 35 197 35 q 106 11 136 35 q 75 -4 88 -4 q 50 8 50 -4 q 64 36 50 20 q 257 221 102 81 q 440 394 361 316 l 547 500 z "},"{":{"ha":333,"x_min":121,"x_max":585,"o":"m 585 935 l 579 911 q 456 861 491 904 q 372 621 411 804 q 330 442 339 466 q 290 372 314 397 q 237 345 271 354 q 284 269 284 316 q 279 222 284 249 q 245 86 276 205 q 205 -76 211 -43 q 199 -134 199 -109 q 227 -193 199 -170 q 311 -218 255 -216 l 305 -243 q 160 -213 200 -241 q 121 -132 121 -184 q 171 111 121 -76 q 206 271 206 246 q 192 318 206 301 q 141 345 178 336 q 207 369 181 349 q 243 415 232 389 q 286 584 250 434 q 343 803 328 762 q 419 901 368 869 q 585 935 471 932 z "},"|":{"ha":722,"x_min":452,"x_max":528,"o":"m 452 -338 l 452 955 l 528 955 l 528 -338 l 452 -338 z "},"}":{"ha":333,"x_min":-53,"x_max":411,"o":"m -53 -243 l -48 -220 q 75 -170 41 -213 q 159 70 121 -113 q 201 249 193 225 q 242 319 218 294 q 294 347 260 336 q 248 422 248 374 q 252 469 248 442 q 287 604 256 486 q 326 766 320 733 q 332 825 332 800 q 304 883 332 861 q 221 909 277 906 l 227 935 q 371 903 332 932 q 411 823 411 875 q 361 580 411 767 q 325 420 325 445 q 339 373 325 390 q 390 347 353 355 q 325 322 351 342 q 289 276 299 302 q 246 107 281 257 q 189 -113 204 -71 q 112 -210 164 -178 q -53 -243 60 -241 z "},"~":{"ha":722,"x_min":191,"x_max":791,"o":"m 749 498 l 791 451 q 708 350 749 379 q 623 321 666 321 q 582 327 605 321 q 463 372 558 334 q 359 401 388 401 q 297 380 326 401 q 233 294 269 358 l 191 343 q 277 453 239 425 q 360 481 315 481 q 507 437 402 481 q 624 400 598 400 q 749 498 690 400 z "},"":{"ha":861,"x_min":-71,"x_max":964,"o":"m 881 30 l 874 -9 q 831 -11 850 -11 q 768 -7 805 -11 q 687 0 704 0 q 600 -9 659 0 q 635 102 621 44 q 656 245 645 144 q 410 241 577 245 q 158 -89 238 -22 q 5 -157 77 -157 q -52 -142 -33 -157 q -71 -104 -71 -127 q -60 -75 -71 -87 q -33 -64 -49 -64 q -7 -67 -23 -64 q 47 -77 34 -77 q 148 -25 93 -77 q 412 328 237 59 q 733 770 610 631 q 524 741 566 755 q 439 687 467 723 q 410 614 410 651 q 419 579 410 602 q 429 543 429 554 q 417 516 429 528 q 389 505 406 505 q 352 522 366 505 q 338 574 338 539 q 364 668 338 623 q 437 745 389 714 q 555 792 484 776 q 684 808 592 801 q 785 821 764 814 q 846 855 817 829 q 817 709 825 772 l 764 317 l 733 37 q 823 24 783 24 q 881 30 850 24 m 663 295 q 728 697 695 570 q 621 553 642 583 l 447 295 q 608 293 503 293 q 663 295 633 293 m 705 1024 q 750 1006 731 1024 q 768 961 768 987 q 750 917 768 935 q 705 898 731 898 q 661 917 680 898 q 642 961 642 935 q 661 1006 642 987 q 705 1024 680 1024 m 901 1023 q 946 1005 928 1023 q 964 961 964 987 q 946 916 964 935 q 901 898 928 898 q 857 916 876 898 q 839 961 839 935 q 857 1005 839 987 q 901 1023 876 1023 z "},"":{"ha":861,"x_min":-71,"x_max":924,"o":"m 749 813 q 704 856 721 828 q 688 917 688 884 q 722 1001 688 966 q 806 1036 757 1036 q 890 1001 855 1036 q 924 917 924 966 q 899 844 924 876 q 833 802 874 812 q 806 636 820 736 l 764 317 l 733 37 q 823 24 783 24 q 881 30 850 24 l 874 -9 q 831 -11 850 -11 q 768 -7 805 -11 q 687 0 704 0 q 600 -9 659 0 q 635 102 621 44 q 656 245 645 144 q 410 241 577 245 q 158 -89 238 -22 q 5 -157 77 -157 q -52 -142 -33 -157 q -71 -104 -71 -127 q -60 -75 -71 -87 q -33 -64 -49 -64 q -7 -67 -23 -64 q 47 -77 34 -77 q 148 -25 93 -77 q 412 328 237 59 q 733 770 610 631 q 524 741 566 755 q 439 687 467 723 q 410 614 410 651 q 419 579 410 602 q 429 543 429 554 q 417 516 429 528 q 389 505 406 505 q 352 522 366 505 q 338 574 338 539 q 366 673 338 625 q 447 751 394 721 q 580 797 499 782 q 743 812 603 802 l 749 813 m 806 988 q 755 967 777 988 q 734 917 734 946 q 755 866 734 887 q 806 845 777 845 q 856 866 836 845 q 877 917 877 887 q 856 967 877 946 q 806 988 836 988 m 663 295 q 728 697 695 570 q 621 553 642 583 l 447 295 q 608 293 503 293 q 654 294 633 293 l 663 295 z "},"":{"ha":722,"x_min":133,"x_max":852,"o":"m 808 518 l 772 518 q 775 603 775 571 q 735 736 775 699 q 635 774 696 774 q 468 708 555 774 q 319 504 381 643 q 256 219 256 366 q 314 2 256 77 q 460 -74 372 -74 q 677 68 578 -74 q 699 83 688 83 q 713 77 707 83 q 720 64 720 71 q 674 -8 720 45 q 561 -97 629 -62 q 426 -133 492 -133 q 277 -91 346 -133 q 171 28 209 -50 q 133 212 133 105 q 211 507 133 360 q 405 734 288 654 q 633 814 522 814 q 712 806 673 814 q 852 759 729 802 q 808 518 813 642 m 403 -110 l 447 -110 l 406 -186 q 461 -212 444 -192 q 479 -259 479 -232 q 422 -355 479 -307 q 259 -420 364 -404 l 272 -380 q 372 -334 334 -367 q 399 -283 399 -312 q 382 -247 399 -262 q 340 -233 365 -233 q 330 -233 336 -233 l 403 -110 z "},"":{"ha":861,"x_min":92,"x_max":924,"o":"m 890 650 l 854 650 q 859 705 859 685 q 837 741 859 732 q 665 749 814 749 l 566 749 l 491 449 l 631 449 q 713 459 698 449 q 735 508 728 469 l 774 508 q 735 328 752 426 l 701 328 q 704 377 704 359 q 694 395 704 385 q 677 403 690 401 q 620 406 659 406 l 481 406 q 355 45 420 176 q 467 64 418 64 q 667 39 549 64 q 751 24 729 24 q 800 39 781 24 q 818 73 818 54 q 809 109 818 84 q 804 140 804 125 q 816 168 804 156 q 846 180 829 180 q 881 164 867 180 q 895 121 895 148 q 845 20 895 63 q 711 -24 794 -24 q 602 -16 668 -24 q 379 0 456 0 q 144 -16 279 0 l 155 21 q 250 54 235 43 q 273 85 264 64 q 358 343 306 149 q 463 753 410 537 q 309 714 382 753 q 196 613 237 675 q 155 483 155 551 q 161 432 155 454 q 187 371 167 410 q 200 332 200 347 q 188 306 200 317 q 157 294 175 294 q 115 321 130 294 q 92 426 92 359 q 199 682 92 568 q 513 795 307 795 l 746 795 q 924 810 867 795 q 890 650 897 698 m 760 1095 l 889 1095 l 659 899 l 619 899 l 760 1095 z "},"":{"ha":972,"x_min":60,"x_max":1258,"o":"m 621 817 l 640 737 q 692 547 666 629 q 824 171 718 466 q 865 336 834 208 q 917 546 904 503 q 990 730 955 671 q 1069 815 1025 789 q 1167 841 1112 841 q 1235 824 1211 841 q 1258 783 1258 807 q 1245 753 1258 766 q 1216 741 1233 741 q 1187 747 1204 741 q 1147 763 1154 761 q 1120 766 1135 766 q 1063 743 1087 766 q 971 546 1021 704 q 842 41 920 388 l 819 -60 q 715 181 742 110 q 631 422 678 277 l 557 657 q 493 383 543 576 q 434 161 444 190 q 367 20 403 69 q 289 -51 332 -28 q 196 -73 247 -73 q 92 -45 132 -73 q 60 9 60 -24 q 72 34 60 23 q 100 45 83 45 q 145 23 121 45 q 224 -17 189 -17 q 300 18 263 -17 q 408 239 356 71 q 528 758 470 444 q 437 744 504 758 q 325 706 370 730 q 255 641 279 681 q 231 558 231 602 q 237 514 231 536 q 255 477 241 499 q 271 439 271 452 q 259 412 271 423 q 229 400 247 400 q 185 427 203 400 q 167 509 167 454 q 213 663 167 600 q 335 760 258 727 q 524 799 384 780 q 621 817 575 806 m 989 1050 l 1027 1050 q 971 955 1008 988 q 893 922 935 922 q 855 926 872 922 q 810 945 846 928 q 762 966 772 963 q 732 970 747 970 q 701 960 713 970 q 673 922 688 950 l 636 922 q 687 1020 652 989 q 761 1050 721 1050 q 851 1027 791 1050 q 931 1004 908 1004 q 969 1018 953 1004 q 989 1050 986 1031 z "},"":{"ha":833,"x_min":142,"x_max":909,"o":"m 610 812 q 764 772 695 812 q 871 659 833 732 q 909 488 909 585 q 840 235 909 360 q 673 45 772 109 q 453 -18 574 -18 q 228 68 314 -18 q 142 297 142 155 q 211 559 142 433 q 379 749 279 686 q 610 812 479 812 m 560 763 q 415 716 481 763 q 307 571 349 670 q 265 342 265 473 q 331 112 265 193 q 495 31 397 31 q 634 79 568 31 q 742 231 699 127 q 784 469 784 334 q 719 685 784 608 q 560 763 654 763 m 552 1024 q 596 1006 578 1024 q 615 961 615 987 q 596 917 615 935 q 552 898 578 898 q 508 917 526 898 q 489 961 489 935 q 508 1006 489 987 q 552 1024 526 1024 m 748 1023 q 793 1005 774 1023 q 811 961 811 987 q 793 916 811 935 q 748 898 774 898 q 704 916 722 898 q 686 961 686 935 q 704 1005 686 987 q 748 1023 722 1023 z "},"":{"ha":1027,"x_min":161,"x_max":1107,"o":"m 629 810 q 494 503 561 690 q 448 282 448 371 q 495 128 448 183 q 615 73 543 73 q 743 107 683 73 q 889 243 822 152 q 1000 463 957 335 q 1042 702 1042 591 q 1009 848 1042 779 q 989 890 991 884 q 987 911 987 900 q 999 944 987 931 q 1030 957 1012 957 q 1080 923 1062 957 q 1107 780 1107 877 q 1016 367 1107 572 q 806 73 925 161 q 556 -15 687 -15 q 393 56 450 -15 q 336 231 336 127 q 362 406 336 316 q 505 756 397 523 q 353 735 420 758 q 257 677 286 713 q 227 608 227 642 q 243 569 227 593 q 259 526 259 541 q 247 493 259 506 q 216 480 235 480 q 177 500 194 480 q 161 553 161 521 q 191 658 161 606 q 270 743 222 711 q 390 789 319 774 q 536 803 425 797 q 629 810 612 807 m 690 1024 q 735 1006 716 1024 q 753 961 753 987 q 735 917 753 935 q 690 898 716 898 q 646 917 665 898 q 627 961 627 935 q 646 1006 627 987 q 690 1024 665 1024 m 886 1023 q 931 1005 913 1023 q 949 961 949 987 q 931 916 949 935 q 886 898 913 898 q 842 916 861 898 q 824 961 824 935 q 842 1005 824 987 q 886 1023 861 1023 z "},"":{"ha":583,"x_min":102,"x_max":668,"o":"m 581 582 l 625 591 l 574 420 q 517 184 544 317 q 502 90 502 111 q 519 69 502 69 q 553 83 530 69 q 634 146 595 109 l 656 119 q 557 34 578 49 q 474 -10 513 4 q 424 -20 448 -20 q 397 -12 406 -20 q 389 12 389 -3 q 394 40 389 22 l 421 132 q 282 12 363 62 q 191 -19 233 -19 q 131 9 152 -19 q 102 106 102 46 q 141 267 102 178 q 243 427 179 355 q 379 532 308 498 q 520 558 434 558 q 564 555 542 558 l 581 582 m 496 478 q 435 486 460 486 q 328 452 374 486 q 244 331 283 418 q 205 157 205 244 q 220 91 205 111 q 261 71 236 71 q 361 121 308 71 q 440 267 415 172 l 496 478 m 539 850 l 668 850 l 438 653 l 398 653 l 539 850 z "},"":{"ha":583,"x_min":102,"x_max":656,"o":"m 581 582 l 625 591 l 574 420 q 517 184 544 317 q 502 90 502 111 q 519 69 502 69 q 553 83 530 69 q 634 146 595 109 l 656 119 q 557 34 578 49 q 474 -10 513 4 q 424 -20 448 -20 q 397 -12 406 -20 q 389 12 389 -3 q 394 40 389 22 l 421 132 q 282 12 363 62 q 191 -19 233 -19 q 131 9 152 -19 q 102 106 102 46 q 141 267 102 178 q 243 427 179 355 q 379 532 308 498 q 520 558 434 558 q 564 555 542 558 l 581 582 m 496 478 q 435 486 460 486 q 328 452 374 486 q 244 331 283 418 q 205 157 205 244 q 220 91 205 111 q 261 71 236 71 q 361 121 308 71 q 440 267 415 172 l 496 478 m 350 849 l 463 849 l 538 652 l 497 652 l 350 849 z "},"":{"ha":583,"x_min":102,"x_max":656,"o":"m 581 582 l 625 591 l 574 420 q 517 184 544 317 q 502 90 502 111 q 519 69 502 69 q 553 83 530 69 q 634 146 595 109 l 656 119 q 557 34 578 49 q 474 -10 513 4 q 424 -20 448 -20 q 397 -12 406 -20 q 389 12 389 -3 q 394 40 389 22 l 421 132 q 282 12 363 62 q 191 -19 233 -19 q 131 9 152 -19 q 102 106 102 46 q 141 267 102 178 q 243 427 179 355 q 379 532 308 498 q 520 558 434 558 q 564 555 542 558 l 581 582 m 496 478 q 435 486 460 486 q 328 452 374 486 q 244 331 283 418 q 205 157 205 244 q 220 91 205 111 q 261 71 236 71 q 361 121 308 71 q 440 267 415 172 l 496 478 m 482 850 l 585 850 l 634 653 l 595 653 l 525 777 l 343 653 l 300 653 l 482 850 z "},"":{"ha":583,"x_min":102,"x_max":661,"o":"m 581 582 l 625 591 l 574 420 q 517 184 544 317 q 502 90 502 111 q 519 69 502 69 q 553 83 530 69 q 634 146 595 109 l 656 119 q 557 34 578 49 q 474 -10 513 4 q 424 -20 448 -20 q 397 -12 406 -20 q 389 12 389 -3 q 394 40 389 22 l 421 132 q 282 12 363 62 q 191 -19 233 -19 q 131 9 152 -19 q 102 106 102 46 q 141 267 102 178 q 243 427 179 355 q 379 532 308 498 q 520 558 434 558 q 564 555 542 558 l 581 582 m 496 478 q 435 486 460 486 q 328 452 374 486 q 244 331 283 418 q 205 157 205 244 q 220 91 205 111 q 261 71 236 71 q 361 121 308 71 q 440 267 415 172 l 496 478 m 402 778 q 447 760 428 778 q 465 715 465 741 q 447 670 465 689 q 402 652 428 652 q 358 670 376 652 q 339 715 339 689 q 358 760 339 741 q 402 778 376 778 m 598 777 q 643 759 625 777 q 661 715 661 741 q 643 670 661 688 q 598 652 625 652 q 554 670 572 652 q 536 715 536 688 q 554 759 536 741 q 598 777 572 777 z "},"":{"ha":583,"x_min":102,"x_max":701,"o":"m 581 582 l 625 591 l 574 420 q 517 184 544 317 q 502 90 502 111 q 519 69 502 69 q 553 83 530 69 q 634 146 595 109 l 656 119 q 557 34 578 49 q 474 -10 513 4 q 424 -20 448 -20 q 397 -12 406 -20 q 389 12 389 -3 q 394 40 389 22 l 421 132 q 282 12 363 62 q 191 -19 233 -19 q 131 9 152 -19 q 102 106 102 46 q 141 267 102 178 q 243 427 179 355 q 379 532 308 498 q 520 558 434 558 q 564 555 542 558 l 581 582 m 496 478 q 435 486 460 486 q 328 452 374 486 q 244 331 283 418 q 205 157 205 244 q 220 91 205 111 q 261 71 236 71 q 361 121 308 71 q 440 267 415 172 l 496 478 m 663 805 l 701 805 q 645 709 682 743 q 567 676 608 676 q 529 680 546 676 q 484 700 520 682 q 435 721 446 718 q 406 725 420 725 q 374 715 387 725 q 347 676 361 705 l 310 676 q 360 774 326 743 q 435 805 395 805 q 525 781 465 805 q 605 759 582 759 q 643 772 627 759 q 663 805 660 785 z "},"":{"ha":583,"x_min":102,"x_max":656,"o":"m 581 582 l 625 591 l 574 420 q 517 184 544 317 q 502 90 502 111 q 519 69 502 69 q 553 83 530 69 q 634 146 595 109 l 656 119 q 557 34 578 49 q 474 -10 513 4 q 424 -20 448 -20 q 397 -12 406 -20 q 389 12 389 -3 q 394 40 389 22 l 421 132 q 282 12 363 62 q 191 -19 233 -19 q 131 9 152 -19 q 102 106 102 46 q 141 267 102 178 q 243 427 179 355 q 379 532 308 498 q 520 558 434 558 q 564 555 542 558 l 581 582 m 496 478 q 435 486 460 486 q 328 452 374 486 q 244 331 283 418 q 205 157 205 244 q 220 91 205 111 q 261 71 236 71 q 361 121 308 71 q 440 267 415 172 l 496 478 m 505 870 q 588 835 553 870 q 623 751 623 800 q 588 668 623 703 q 505 633 553 633 q 420 668 455 633 q 386 751 386 703 q 420 835 386 800 q 505 870 455 870 m 504 823 q 454 802 475 823 q 433 751 433 781 q 454 701 433 722 q 504 680 475 680 q 554 701 534 680 q 575 751 575 722 q 554 802 575 781 q 504 823 534 823 z "},"":{"ha":472,"x_min":110,"x_max":560,"o":"m 490 147 l 505 108 q 232 -19 343 -19 q 146 23 173 -19 q 119 130 119 65 q 176 350 119 237 q 315 524 233 463 q 458 570 378 570 q 534 551 509 570 q 560 505 560 532 q 547 471 560 484 q 509 458 533 458 q 448 479 485 458 q 383 503 409 503 q 317 472 350 503 q 254 355 284 442 q 224 181 224 269 q 250 81 224 117 q 301 54 268 54 q 490 147 380 54 m 254 13 l 298 13 l 256 -64 q 312 -89 294 -69 q 330 -136 330 -109 q 273 -232 330 -184 q 110 -298 215 -281 l 123 -257 q 223 -212 185 -244 q 250 -161 250 -189 q 233 -124 250 -139 q 191 -110 216 -110 q 180 -111 187 -110 l 254 13 z "},"":{"ha":472,"x_min":112,"x_max":612,"o":"m 473 170 l 496 140 q 211 -18 330 -18 q 137 15 163 -18 q 112 119 112 47 q 200 408 112 264 q 437 572 299 572 q 510 548 485 572 q 536 481 536 524 q 505 395 536 437 q 396 306 475 352 q 228 225 357 283 q 222 155 222 189 q 237 88 222 107 q 281 69 252 69 q 342 85 309 69 q 473 170 387 106 m 236 269 q 400 374 345 317 q 437 452 437 413 q 422 498 437 481 q 382 515 407 515 q 334 496 357 515 q 280 420 302 471 q 236 269 249 346 m 484 850 l 612 850 l 382 653 l 342 653 l 484 850 z "},"":{"ha":472,"x_min":112,"x_max":536,"o":"m 473 170 l 496 140 q 211 -18 330 -18 q 137 15 163 -18 q 112 119 112 47 q 200 408 112 264 q 437 572 299 572 q 510 548 485 572 q 536 481 536 524 q 505 395 536 437 q 396 306 475 352 q 228 225 357 283 q 222 155 222 189 q 237 88 222 107 q 281 69 252 69 q 342 85 309 69 q 473 170 387 106 m 236 269 q 400 374 345 317 q 437 452 437 413 q 422 498 437 481 q 382 515 407 515 q 334 496 357 515 q 280 420 302 471 q 236 269 249 346 m 294 849 l 408 849 l 482 652 l 441 652 l 294 849 z "},"":{"ha":472,"x_min":112,"x_max":578,"o":"m 473 170 l 496 140 q 211 -18 330 -18 q 137 15 163 -18 q 112 119 112 47 q 200 408 112 264 q 437 572 299 572 q 510 548 485 572 q 536 481 536 524 q 505 395 536 437 q 396 306 475 352 q 228 225 357 283 q 222 155 222 189 q 237 88 222 107 q 281 69 252 69 q 342 85 309 69 q 473 170 387 106 m 236 269 q 400 374 345 317 q 437 452 437 413 q 422 498 437 481 q 382 515 407 515 q 334 496 357 515 q 280 420 302 471 q 236 269 249 346 m 427 850 l 529 850 l 578 653 l 540 653 l 469 777 l 288 653 l 244 653 l 427 850 z "},"":{"ha":472,"x_min":112,"x_max":606,"o":"m 473 170 l 496 140 q 211 -18 330 -18 q 137 15 163 -18 q 112 119 112 47 q 200 408 112 264 q 437 572 299 572 q 510 548 485 572 q 536 481 536 524 q 505 395 536 437 q 396 306 475 352 q 228 225 357 283 q 222 155 222 189 q 237 88 222 107 q 281 69 252 69 q 342 85 309 69 q 473 170 387 106 m 236 269 q 400 374 345 317 q 437 452 437 413 q 422 498 437 481 q 382 515 407 515 q 334 496 357 515 q 280 420 302 471 q 236 269 249 346 m 347 778 q 391 760 372 778 q 410 715 410 741 q 391 670 410 689 q 347 652 372 652 q 302 670 321 652 q 283 715 283 689 q 302 760 283 741 q 347 778 321 778 m 543 777 q 587 759 569 777 q 606 715 606 741 q 587 670 606 688 q 543 652 569 652 q 498 670 517 652 q 480 715 480 688 q 498 759 480 741 q 543 777 517 777 z "},"":{"ha":333,"x_min":110,"x_max":543,"o":"m 140 413 l 110 436 q 234 542 178 511 q 329 574 290 574 q 362 564 351 574 q 374 538 374 555 q 330 372 374 519 q 258 81 258 131 q 262 65 258 72 q 273 59 267 59 q 294 68 279 59 q 361 123 332 94 q 384 143 375 136 l 411 117 q 311 29 328 42 q 239 -12 272 1 q 205 -19 222 -19 q 167 -4 181 -19 q 153 37 153 10 q 180 189 153 86 q 254 452 227 372 q 260 479 260 468 q 248 493 260 493 q 217 482 234 493 q 140 413 199 471 m 414 850 l 543 850 l 313 653 l 273 653 l 414 850 z "},"":{"ha":333,"x_min":110,"x_max":413,"o":"m 140 413 l 110 436 q 234 542 178 511 q 329 574 290 574 q 362 564 351 574 q 374 538 374 555 q 330 372 374 519 q 258 81 258 131 q 262 65 258 72 q 273 59 267 59 q 294 68 279 59 q 361 123 332 94 q 384 143 375 136 l 411 117 q 311 29 328 42 q 239 -12 272 1 q 205 -19 222 -19 q 167 -4 181 -19 q 153 37 153 10 q 180 189 153 86 q 254 452 227 372 q 260 479 260 468 q 248 493 260 493 q 217 482 234 493 q 140 413 199 471 m 225 849 l 338 849 l 413 652 l 372 652 l 225 849 z "},"":{"ha":333,"x_min":110,"x_max":509,"o":"m 140 413 l 110 436 q 234 542 178 511 q 329 574 290 574 q 362 564 351 574 q 374 538 374 555 q 330 372 374 519 q 258 81 258 131 q 262 65 258 72 q 273 59 267 59 q 294 68 279 59 q 361 123 332 94 q 384 143 375 136 l 411 117 q 311 29 328 42 q 239 -12 272 1 q 205 -19 222 -19 q 167 -4 181 -19 q 153 37 153 10 q 180 189 153 86 q 254 452 227 372 q 260 479 260 468 q 248 493 260 493 q 217 482 234 493 q 140 413 199 471 m 357 850 l 460 850 l 509 653 l 471 653 l 400 777 l 218 653 l 175 653 l 357 850 z "},"":{"ha":333,"x_min":110,"x_max":536,"o":"m 140 413 l 110 436 q 234 542 178 511 q 329 574 290 574 q 362 564 351 574 q 374 538 374 555 q 330 372 374 519 q 258 81 258 131 q 262 65 258 72 q 273 59 267 59 q 294 68 279 59 q 361 123 332 94 q 384 143 375 136 l 411 117 q 311 29 328 42 q 239 -12 272 1 q 205 -19 222 -19 q 167 -4 181 -19 q 153 37 153 10 q 180 189 153 86 q 254 452 227 372 q 260 479 260 468 q 248 493 260 493 q 217 482 234 493 q 140 413 199 471 m 277 778 q 322 760 303 778 q 340 715 340 741 q 322 670 340 689 q 277 652 303 652 q 233 670 252 652 q 214 715 214 689 q 233 760 214 741 q 277 778 252 778 m 473 777 q 518 759 500 777 q 536 715 536 741 q 518 670 536 688 q 473 652 500 652 q 429 670 448 652 q 411 715 411 688 q 429 759 411 741 q 473 777 448 777 z "},"":{"ha":639,"x_min":115,"x_max":729,"o":"m 138 412 l 115 435 q 254 545 202 518 q 342 572 305 572 q 364 566 356 572 q 372 552 372 560 q 369 530 372 546 l 338 394 q 512 537 408 471 q 604 572 568 572 q 645 555 630 572 q 660 506 660 538 q 654 458 660 485 q 597 267 643 414 q 553 83 553 128 q 557 62 553 69 q 569 56 562 56 q 631 94 589 56 q 690 144 661 121 l 707 119 q 578 8 645 50 q 507 -19 535 -19 q 467 0 481 -19 q 453 60 453 18 q 528 361 453 121 q 551 460 551 446 q 526 481 551 481 q 456 453 499 481 q 350 354 393 411 q 304 237 323 317 l 250 1 l 149 1 q 198 195 177 102 l 258 453 q 262 475 262 469 q 248 494 262 494 q 217 479 237 494 q 138 412 175 452 m 690 805 l 729 805 q 673 709 710 743 q 595 676 636 676 q 557 680 574 676 q 511 700 548 682 q 463 721 473 718 q 433 725 448 725 q 402 715 415 725 q 375 676 389 705 l 338 676 q 388 774 354 743 q 463 805 422 805 q 553 781 492 805 q 633 759 610 759 q 671 772 654 759 q 690 805 688 785 z "},"":{"ha":555,"x_min":118,"x_max":654,"o":"m 454 570 q 565 517 521 570 q 609 370 609 465 q 503 100 609 220 q 279 -20 397 -20 q 162 28 207 -20 q 118 157 118 75 q 199 420 118 300 q 454 570 302 570 m 397 519 q 285 437 339 519 q 231 210 231 355 q 264 71 231 121 q 330 33 289 33 q 433 104 387 33 q 493 331 493 195 q 466 476 493 433 q 397 519 438 519 m 526 850 l 654 850 l 425 653 l 385 653 l 526 850 z "},"":{"ha":555,"x_min":118,"x_max":609,"o":"m 454 570 q 565 517 521 570 q 609 370 609 465 q 503 100 609 220 q 279 -20 397 -20 q 162 28 207 -20 q 118 157 118 75 q 199 420 118 300 q 454 570 302 570 m 397 519 q 285 437 339 519 q 231 210 231 355 q 264 71 231 121 q 330 33 289 33 q 433 104 387 33 q 493 331 493 195 q 466 476 493 433 q 397 519 438 519 m 336 849 l 450 849 l 524 652 l 484 652 l 336 849 z "},"":{"ha":555,"x_min":118,"x_max":621,"o":"m 454 570 q 565 517 521 570 q 609 370 609 465 q 503 100 609 220 q 279 -20 397 -20 q 162 28 207 -20 q 118 157 118 75 q 199 420 118 300 q 454 570 302 570 m 397 519 q 285 437 339 519 q 231 210 231 355 q 264 71 231 121 q 330 33 289 33 q 433 104 387 33 q 493 331 493 195 q 466 476 493 433 q 397 519 438 519 m 469 850 l 571 850 l 621 653 l 582 653 l 511 777 l 330 653 l 286 653 l 469 850 z "},"":{"ha":555,"x_min":118,"x_max":648,"o":"m 454 570 q 565 517 521 570 q 609 370 609 465 q 503 100 609 220 q 279 -20 397 -20 q 162 28 207 -20 q 118 157 118 75 q 199 420 118 300 q 454 570 302 570 m 397 519 q 285 437 339 519 q 231 210 231 355 q 264 71 231 121 q 330 33 289 33 q 433 104 387 33 q 493 331 493 195 q 466 476 493 433 q 397 519 438 519 m 389 778 q 434 760 415 778 q 452 715 452 741 q 434 670 452 689 q 389 652 415 652 q 345 670 363 652 q 326 715 326 689 q 345 760 326 741 q 389 778 363 778 m 585 777 q 630 759 612 777 q 648 715 648 741 q 630 670 648 688 q 585 652 612 652 q 541 670 559 652 q 523 715 523 688 q 541 759 523 741 q 585 777 559 777 z "},"":{"ha":555,"x_min":118,"x_max":688,"o":"m 454 570 q 565 517 521 570 q 609 370 609 465 q 503 100 609 220 q 279 -20 397 -20 q 162 28 207 -20 q 118 157 118 75 q 199 420 118 300 q 454 570 302 570 m 397 519 q 285 437 339 519 q 231 210 231 355 q 264 71 231 121 q 330 33 289 33 q 433 104 387 33 q 493 331 493 195 q 466 476 493 433 q 397 519 438 519 m 650 805 l 688 805 q 632 709 669 743 q 554 676 595 676 q 516 680 533 676 q 471 700 507 682 q 422 721 433 718 q 393 725 408 725 q 361 715 374 725 q 334 676 349 705 l 297 676 q 348 774 313 743 q 422 805 382 805 q 512 781 452 805 q 592 759 569 759 q 630 772 614 759 q 650 805 647 785 z "},"":{"ha":639,"x_min":114,"x_max":707,"o":"m 576 552 l 673 552 l 609 315 q 553 81 553 109 q 559 61 553 68 q 572 54 565 54 q 600 64 584 54 q 684 143 622 80 l 707 118 q 506 -24 570 -24 q 469 -7 484 -24 q 454 40 454 9 q 469 134 454 75 q 319 13 408 65 q 217 -22 260 -22 q 180 -6 193 -22 q 166 43 166 9 q 172 100 166 70 q 217 272 181 143 q 262 468 262 435 q 249 487 262 487 q 216 474 237 487 q 144 414 195 462 l 114 437 q 253 544 205 519 q 330 570 300 570 q 356 558 346 570 q 366 521 366 546 q 317 291 366 474 q 274 103 274 126 q 283 79 274 89 q 303 68 292 68 q 411 131 341 68 q 503 274 481 194 l 576 552 m 567 850 l 696 850 l 466 653 l 426 653 l 567 850 z "},"":{"ha":639,"x_min":114,"x_max":707,"o":"m 576 552 l 673 552 l 609 315 q 553 81 553 109 q 559 61 553 68 q 572 54 565 54 q 600 64 584 54 q 684 143 622 80 l 707 118 q 506 -24 570 -24 q 469 -7 484 -24 q 454 40 454 9 q 469 134 454 75 q 319 13 408 65 q 217 -22 260 -22 q 180 -6 193 -22 q 166 43 166 9 q 172 100 166 70 q 217 272 181 143 q 262 468 262 435 q 249 487 262 487 q 216 474 237 487 q 144 414 195 462 l 114 437 q 253 544 205 519 q 330 570 300 570 q 356 558 346 570 q 366 521 366 546 q 317 291 366 474 q 274 103 274 126 q 283 79 274 89 q 303 68 292 68 q 411 131 341 68 q 503 274 481 194 l 576 552 m 378 849 l 491 849 l 566 652 l 525 652 l 378 849 z "},"":{"ha":639,"x_min":114,"x_max":707,"o":"m 576 552 l 673 552 l 609 315 q 553 81 553 109 q 559 61 553 68 q 572 54 565 54 q 600 64 584 54 q 684 143 622 80 l 707 118 q 506 -24 570 -24 q 469 -7 484 -24 q 454 40 454 9 q 469 134 454 75 q 319 13 408 65 q 217 -22 260 -22 q 180 -6 193 -22 q 166 43 166 9 q 172 100 166 70 q 217 272 181 143 q 262 468 262 435 q 249 487 262 487 q 216 474 237 487 q 144 414 195 462 l 114 437 q 253 544 205 519 q 330 570 300 570 q 356 558 346 570 q 366 521 366 546 q 317 291 366 474 q 274 103 274 126 q 283 79 274 89 q 303 68 292 68 q 411 131 341 68 q 503 274 481 194 l 576 552 m 510 850 l 612 850 l 662 653 l 623 653 l 553 777 l 371 653 l 328 653 l 510 850 z "},"":{"ha":639,"x_min":114,"x_max":707,"o":"m 576 552 l 673 552 l 609 315 q 553 81 553 109 q 559 61 553 68 q 572 54 565 54 q 600 64 584 54 q 684 143 622 80 l 707 118 q 506 -24 570 -24 q 469 -7 484 -24 q 454 40 454 9 q 469 134 454 75 q 319 13 408 65 q 217 -22 260 -22 q 180 -6 193 -22 q 166 43 166 9 q 172 100 166 70 q 217 272 181 143 q 262 468 262 435 q 249 487 262 487 q 216 474 237 487 q 144 414 195 462 l 114 437 q 253 544 205 519 q 330 570 300 570 q 356 558 346 570 q 366 521 366 546 q 317 291 366 474 q 274 103 274 126 q 283 79 274 89 q 303 68 292 68 q 411 131 341 68 q 503 274 481 194 l 576 552 m 431 778 q 475 760 456 778 q 494 715 494 741 q 475 670 494 689 q 431 652 456 652 q 386 670 405 652 q 368 715 368 689 q 386 760 368 741 q 431 778 405 778 m 627 777 q 671 759 653 777 q 690 715 690 741 q 671 670 690 688 q 627 652 653 652 q 583 670 601 652 q 564 715 564 688 q 583 759 564 741 q 627 777 601 777 z "},"":{"ha":639,"x_min":188,"x_max":707,"o":"m 408 608 l 477 911 q 486 939 482 935 q 508 947 490 943 q 568 956 555 956 q 585 941 585 956 q 580 917 585 937 l 493 608 q 684 638 645 638 q 707 621 707 638 q 702 589 707 613 q 690 552 695 559 q 675 545 685 545 q 483 570 644 545 l 255 -264 q 242 -297 248 -290 q 227 -304 236 -304 q 213 -285 213 -304 q 215 -270 213 -279 l 399 570 q 212 545 251 545 q 195 551 202 545 q 188 564 188 557 q 195 597 188 574 l 203 627 q 221 637 207 637 q 408 608 262 637 z "},"":{"ha":555,"x_min":281,"x_max":645,"o":"m 464 812 q 592 759 538 812 q 645 630 645 706 q 592 500 645 553 q 463 447 538 447 q 334 500 387 447 q 281 631 281 553 q 335 759 281 706 q 464 812 389 812 m 463 747 q 380 712 415 747 q 346 629 346 677 q 381 547 346 582 q 464 512 416 512 q 545 546 511 512 q 579 629 579 581 q 546 713 579 679 q 463 747 512 747 z "},"":{"ha":611,"x_min":83,"x_max":671,"o":"m 581 561 q 623 505 623 543 q 608 471 623 484 q 567 458 593 458 q 527 470 550 458 l 305 94 q 366 54 319 54 q 414 62 385 54 q 473 89 443 71 q 551 146 503 106 l 567 106 q 505 65 546 93 q 399 4 439 21 q 292 -20 340 -20 q 245 -9 269 -20 l 127 -210 l 83 -210 l 215 14 q 180 135 180 57 q 238 351 180 237 q 378 524 296 465 q 522 570 441 570 q 541 569 532 570 l 627 715 l 671 715 l 581 561 m 290 142 l 493 488 q 445 503 465 503 q 381 475 412 503 q 318 353 350 447 q 286 183 286 259 q 290 142 286 166 z "},"":{"ha":667,"x_min":71,"x_max":775,"o":"m 541 374 l 525 332 l 368 332 q 264 76 324 166 q 327 83 302 83 q 441 71 363 83 q 544 58 515 58 q 608 85 583 58 q 644 176 633 111 l 681 176 q 634 26 672 69 q 524 -17 596 -17 q 435 -12 488 -17 q 252 4 295 4 q 71 -19 182 4 l 75 19 q 165 52 143 37 q 201 95 187 67 q 235 216 216 123 q 264 332 242 248 l 148 332 l 160 374 l 275 374 q 465 750 346 624 q 673 844 554 844 q 753 830 730 844 q 775 794 775 817 q 763 765 775 777 q 734 754 751 754 q 709 758 726 754 q 594 777 635 777 q 486 697 527 777 q 378 374 427 582 l 541 374 z "},"":{"ha":583,"x_min":-41,"x_max":778,"o":"m 619 957 q 736 926 694 957 q 778 856 778 895 q 765 827 778 839 q 734 815 753 815 q 711 821 721 815 q 685 848 701 827 q 583 912 637 912 q 509 877 538 912 q 480 770 480 842 q 487 682 480 727 q 518 531 494 636 q 555 264 555 367 q 400 -131 555 22 q 134 -250 279 -250 q -2 -215 53 -250 q -41 -157 -41 -191 q -29 -126 -41 -138 q -3 -114 -18 -114 q 18 -118 9 -114 q 59 -148 27 -123 q 178 -202 129 -202 q 270 -151 234 -202 q 307 7 307 -100 q 302 96 307 58 q 275 237 300 112 q 242 419 247 383 q 236 511 236 468 q 293 736 236 627 q 435 901 351 846 q 619 957 520 957 m 450 865 q 338 705 372 788 q 304 519 304 621 q 309 436 304 479 q 336 275 314 394 q 361 134 357 165 q 366 35 366 84 q 327 -147 366 -49 q 450 23 414 -66 q 487 238 487 113 q 482 343 487 298 q 458 473 480 363 q 428 633 432 597 q 422 736 422 686 q 450 865 422 801 z "},"":{"ha":833,"x_min":347,"x_max":764,"o":"m 555 637 q 703 576 642 637 q 764 429 764 515 q 703 281 764 342 q 555 220 642 220 q 408 281 469 220 q 347 429 347 342 q 408 576 347 515 q 555 637 469 637 z "},"":{"ha":694,"x_min":69,"x_max":789,"o":"m 652 873 l 709 873 l 690 794 l 789 794 l 776 750 l 678 750 l 590 399 l 727 399 l 714 352 l 576 352 l 501 58 q 211 -235 426 -235 q 106 -208 143 -235 q 69 -146 69 -181 q 82 -115 69 -129 q 111 -101 95 -101 q 160 -125 135 -101 q 203 -159 189 -153 q 254 -170 231 -170 q 328 -145 290 -170 q 395 -68 366 -121 q 452 86 425 -15 l 519 352 l 494 352 q 317 403 376 352 q 258 538 258 454 q 345 719 258 644 q 590 794 431 794 l 633 794 l 652 873 m 620 750 q 506 723 542 746 q 439 641 469 701 q 408 520 408 581 q 450 427 408 467 q 531 399 475 404 l 620 750 z "},"":{"ha":583,"x_min":-257,"x_max":709,"o":"m 98 -68 l 270 626 q 387 888 318 819 q 553 958 455 958 q 666 918 623 958 q 709 822 709 879 q 694 744 709 779 q 618 631 671 696 q 536 518 555 555 q 522 473 522 492 q 549 394 522 442 q 609 275 597 310 q 621 197 621 239 q 593 91 621 141 q 515 7 565 40 q 429 -17 479 -17 q 337 12 371 -17 q 303 81 303 40 q 318 126 303 109 q 356 142 334 142 q 389 130 376 142 q 402 99 402 117 q 399 81 402 92 q 397 62 397 69 q 410 38 397 47 q 445 28 422 28 q 512 58 485 28 q 540 131 540 87 q 490 284 540 195 q 439 380 443 370 q 431 414 431 399 q 443 467 431 441 q 513 572 455 493 q 627 818 627 728 q 604 890 627 865 q 541 915 581 915 q 453 869 490 915 q 379 675 415 823 l 235 83 q 71 -248 180 -142 q -167 -355 -37 -355 q -236 -339 -214 -355 q -257 -300 -257 -323 q -241 -263 -257 -277 q -189 -250 -224 -250 q -132 -256 -173 -250 q -72 -261 -93 -261 q 31 -233 3 -261 q 98 -68 66 -196 z "},"":{"ha":1027,"x_min":127,"x_max":1122,"o":"m 624 957 q 873 890 758 957 q 1055 709 988 824 q 1122 460 1122 593 q 1055 211 1122 326 q 873 29 988 96 q 624 -37 758 -37 q 376 29 491 -37 q 194 211 260 96 q 127 460 127 326 q 194 709 127 593 q 376 890 260 824 q 624 957 491 957 m 624 907 q 400 847 505 907 q 237 684 296 787 q 177 460 177 580 q 237 236 177 340 q 400 72 296 132 q 624 12 505 12 q 848 72 744 12 q 1012 236 952 132 q 1072 460 1072 340 q 1012 684 1072 580 q 848 847 952 787 q 624 907 744 907 m 358 755 l 620 755 q 769 712 716 755 q 822 604 822 669 q 784 510 822 548 q 671 453 747 473 l 812 251 q 857 203 837 216 q 895 191 871 193 l 895 169 l 770 169 l 570 444 l 519 444 l 519 234 q 539 201 524 211 q 599 191 555 191 l 599 169 l 350 169 l 350 191 q 396 199 382 191 q 417 224 410 207 q 420 285 420 233 l 420 640 q 417 701 420 692 q 400 723 412 715 q 358 731 387 731 l 358 755 m 519 473 l 539 473 q 670 507 628 473 q 712 596 712 542 q 674 688 712 651 q 576 726 635 726 q 519 715 550 726 l 519 473 z "},"":{"ha":1027,"x_min":127,"x_max":1122,"o":"m 624 957 q 873 890 758 957 q 1055 709 988 824 q 1122 460 1122 593 q 1055 211 1122 326 q 873 29 988 96 q 624 -37 758 -37 q 376 29 491 -37 q 194 211 260 96 q 127 460 127 326 q 194 709 127 593 q 376 890 260 824 q 624 957 491 957 m 624 907 q 400 847 505 907 q 237 684 296 787 q 177 460 177 580 q 237 236 177 340 q 400 72 296 132 q 624 12 505 12 q 848 72 744 12 q 1012 236 952 132 q 1072 460 1072 340 q 1012 684 1072 580 q 848 847 952 787 q 624 907 744 907 m 862 769 l 876 579 l 849 579 q 772 699 825 659 q 644 739 719 739 q 530 708 580 739 q 453 618 480 676 q 426 475 426 559 q 487 264 426 334 q 650 195 547 195 q 862 305 783 195 l 887 292 q 627 155 793 155 q 403 242 492 155 q 313 456 313 330 q 409 679 313 587 q 651 770 505 770 q 703 766 682 770 q 777 744 724 762 q 802 739 793 739 q 835 769 823 739 l 862 769 z "},"":{"ha":1389,"x_min":117,"x_max":1435,"o":"m 132 801 l 625 801 l 640 665 l 617 665 q 581 737 610 714 q 486 760 552 760 l 435 760 l 435 368 q 448 296 435 311 q 507 278 461 280 l 507 254 l 253 254 l 253 278 q 309 297 298 282 q 321 367 321 311 l 321 760 l 269 760 q 178 739 205 760 q 140 665 151 718 l 117 665 l 132 801 m 881 801 l 1066 413 l 1246 801 l 1435 801 l 1435 776 q 1384 768 1396 775 q 1366 746 1372 761 q 1360 684 1360 732 l 1360 367 q 1373 295 1360 309 q 1435 278 1385 281 l 1435 254 l 1165 254 l 1165 278 q 1219 286 1205 279 q 1239 308 1233 294 q 1246 366 1246 322 l 1246 700 l 1038 254 l 1016 254 l 807 694 l 807 367 q 812 310 807 322 q 831 286 818 293 q 870 278 844 278 l 895 278 l 895 254 l 687 254 l 687 278 q 738 285 725 278 q 758 306 751 292 q 764 367 764 321 l 764 683 q 758 747 764 733 q 739 768 753 761 q 687 776 724 776 l 687 801 l 881 801 z "},"":{"ha":416,"x_min":315,"x_max":585,"o":"m 456 850 l 585 850 l 355 653 l 315 653 l 456 850 z "},"":{"ha":500,"x_min":298,"x_max":620,"o":"m 361 778 q 405 760 387 778 q 424 715 424 741 q 405 670 424 689 q 361 652 387 652 q 316 670 335 652 q 298 715 298 689 q 316 760 298 741 q 361 778 335 778 m 557 777 q 602 759 583 777 q 620 715 620 741 q 602 670 620 688 q 557 652 583 652 q 513 670 531 652 q 494 715 494 688 q 513 759 494 741 q 557 777 531 777 z "},"":{"ha":762,"x_min":205,"x_max":806,"o":"m 591 475 l 494 319 l 806 319 l 806 243 l 448 243 l 292 -9 l 218 -9 l 374 243 l 205 243 l 205 319 l 421 319 l 517 475 l 205 475 l 205 551 l 564 551 l 719 803 l 793 803 l 637 551 l 806 551 l 806 475 l 591 475 z "},"":{"ha":1027,"x_min":-41,"x_max":1096,"o":"m 1059 636 l 1024 636 q 1031 702 1031 682 q 1014 745 1031 735 q 907 755 996 755 q 789 751 837 755 l 713 452 l 798 452 q 886 461 873 452 q 914 522 899 469 l 950 522 q 903 323 913 410 l 869 323 q 876 378 876 363 q 861 402 876 394 q 789 411 845 411 l 702 411 l 640 170 q 608 53 621 95 q 732 66 692 66 q 831 57 764 66 q 967 45 916 45 q 1015 55 1000 45 q 1029 81 1029 66 q 1020 108 1029 92 q 999 158 999 144 q 1010 186 999 175 q 1040 197 1022 197 q 1077 179 1062 197 q 1092 128 1092 161 q 1043 24 1092 64 q 906 -17 994 -17 q 755 -5 857 -17 q 613 5 664 5 q 418 -16 513 5 l 431 22 q 449 26 443 25 q 488 42 477 33 q 511 79 499 52 q 543 187 519 98 q 566 271 556 238 l 359 271 l 218 47 q 105 -81 160 -43 q 26 -110 64 -110 q -23 -94 -5 -110 q -41 -58 -41 -79 q -30 -32 -41 -43 q -1 -20 -18 -20 q 30 -27 12 -20 q 69 -40 62 -40 q 128 -6 97 -40 q 315 286 180 52 q 509 608 441 505 q 603 732 557 680 q 623 760 623 755 q 600 770 623 770 q 507 754 560 770 l 513 789 q 594 802 559 802 q 677 799 618 802 q 895 793 763 793 q 1002 798 951 793 q 1096 810 1053 802 q 1072 734 1078 765 q 1059 636 1065 703 m 579 323 l 625 509 l 682 759 q 387 323 526 587 q 478 319 433 319 q 579 323 526 319 z "},"":{"ha":917,"x_min":178,"x_max":951,"o":"m 848 743 q 923 634 896 700 q 951 488 951 568 q 882 234 951 360 q 714 45 814 109 q 494 -18 615 -18 q 302 40 385 -18 l 210 -79 l 178 -54 l 271 67 q 184 302 184 155 q 252 558 184 432 q 419 748 319 684 q 637 812 519 812 q 814 768 738 812 l 892 869 l 924 841 l 848 743 m 343 160 l 755 692 q 599 763 693 763 q 457 716 523 763 q 349 571 391 669 q 307 342 307 473 q 343 160 307 234 m 781 657 l 366 121 q 441 55 395 79 q 537 31 486 31 q 675 79 610 31 q 783 231 741 127 q 826 465 826 334 q 781 657 826 584 z "},"":{"ha":990,"x_min":37,"x_max":954,"o":"m 444 452 q 541 597 488 553 q 694 640 594 640 q 879 561 804 640 q 954 357 954 481 q 864 136 954 219 q 718 73 795 73 q 610 109 659 73 q 489 267 560 145 q 392 144 444 180 q 269 109 339 109 q 104 179 171 109 q 37 359 37 249 q 98 538 37 469 q 245 608 160 608 q 349 576 304 608 q 444 452 393 545 m 509 315 q 607 174 558 212 q 720 136 656 136 q 860 197 804 136 q 916 357 916 258 q 857 522 916 456 q 724 587 799 587 q 648 567 681 587 q 586 500 615 547 q 509 315 566 467 m 424 400 q 344 513 388 481 q 243 545 300 545 q 122 494 171 545 q 74 359 74 444 q 121 216 74 271 q 230 161 168 161 q 343 219 294 161 q 424 400 376 257 z "},"":{"ha":762,"x_min":167,"x_max":767,"o":"m 429 472 l 429 733 l 505 733 l 505 472 l 767 472 l 767 397 l 505 397 l 505 132 l 429 132 l 429 397 l 167 397 l 167 472 l 429 472 m 767 77 l 767 0 l 167 0 l 167 77 l 767 77 z "},"":{"ha":762,"x_min":171,"x_max":777,"o":"m 777 224 l 777 151 l 171 429 l 171 493 l 777 770 l 777 697 l 267 460 l 777 224 m 777 104 l 777 28 l 171 28 l 171 104 l 777 104 z "},"":{"ha":762,"x_min":244,"x_max":850,"o":"m 244 224 l 753 460 l 244 697 l 244 770 l 850 493 l 850 429 l 244 151 l 244 224 m 850 104 l 850 28 l 244 28 l 244 104 l 850 104 z "},"":{"ha":1000,"x_min":245,"x_max":1234,"o":"m 659 421 q 620 607 654 517 q 535 753 586 697 q 392 684 435 716 q 323 605 349 652 q 297 523 297 558 q 328 458 297 488 q 355 413 355 433 q 344 384 355 395 q 318 372 334 372 q 271 399 290 372 q 245 489 245 437 q 288 631 245 564 q 405 742 330 697 q 550 798 449 768 q 617 821 587 809 q 709 660 674 752 q 756 430 743 567 q 997 802 882 694 q 1183 909 1111 909 q 1219 897 1205 909 q 1234 865 1234 884 q 1217 833 1234 845 q 1152 817 1200 821 q 1069 792 1102 814 q 938 655 1013 755 q 797 421 863 556 l 995 421 l 984 382 l 779 382 q 752 311 769 361 l 966 311 l 956 270 l 737 270 q 683 32 695 130 q 746 26 715 26 q 850 40 793 26 l 836 0 q 764 -11 794 -11 q 680 -5 732 -11 q 602 0 631 0 q 475 -9 560 0 l 486 25 q 564 58 550 41 q 606 168 583 79 l 633 270 l 420 270 l 431 311 l 644 311 q 657 382 654 355 l 449 382 l 458 421 l 659 421 z "},"":{"ha":800,"x_min":110,"x_max":764,"o":"m 734 80 l 726 48 l 587 -9 q 576 -11 581 -11 q 553 1 561 -11 q 542 44 542 17 q 547 90 542 60 q 471 26 502 45 q 400 -6 441 7 q 337 -18 359 -18 q 285 0 307 -18 q 242 66 263 18 q 230 -6 232 16 q 228 -92 229 -27 q 207 -185 228 -157 q 155 -212 186 -212 q 122 -200 134 -212 q 110 -168 110 -189 q 137 -79 110 -142 q 221 136 196 60 q 285 356 254 235 l 330 535 l 436 535 l 353 202 q 340 131 340 152 q 361 89 340 106 q 414 72 381 72 q 480 86 448 72 q 559 143 512 101 l 659 535 l 764 535 l 667 149 q 663 103 663 130 q 668 79 663 85 q 690 73 674 73 q 734 80 708 73 z "},"":{"ha":686,"x_min":44,"x_max":675,"o":"m 631 486 q 639 613 639 563 q 575 801 639 734 q 404 868 511 868 q 289 843 338 868 q 200 760 239 817 l 169 760 q 287 920 224 875 q 427 964 349 964 q 554 926 496 964 q 644 815 612 888 q 675 623 675 742 q 610 276 675 437 q 458 47 545 116 q 274 -21 372 -21 q 106 40 168 -21 q 44 206 44 101 q 97 409 44 311 q 238 561 151 507 q 418 616 326 616 q 506 600 465 616 q 582 553 547 585 q 631 486 608 530 m 619 426 q 541 539 593 500 q 425 578 488 578 q 303 535 361 578 q 202 388 245 492 q 159 178 159 283 q 195 60 159 102 q 291 18 232 18 q 409 61 343 18 q 531 199 474 105 q 619 426 589 293 z "},"":{"ha":990,"x_min":29,"x_max":963,"o":"m 920 -233 l 29 -233 l 29 -209 l 483 336 l 29 908 l 29 934 l 896 934 l 914 705 l 887 705 q 836 838 877 797 q 718 879 794 879 l 216 879 l 597 395 l 171 -114 l 726 -114 q 829 -96 785 -114 q 896 -46 873 -78 q 936 53 920 -15 l 963 48 l 920 -233 z "},"":{"ha":1143,"x_min":31,"x_max":1112,"o":"m 841 880 l 302 880 l 302 -103 q 327 -184 302 -159 q 436 -208 352 -208 l 436 -233 l 31 -233 l 31 -208 q 142 -182 118 -208 q 165 -103 165 -157 l 165 803 q 140 884 165 860 q 31 908 115 908 l 31 934 l 1112 934 l 1112 908 q 1002 883 1026 908 q 979 803 979 857 l 979 -103 q 1004 -184 979 -159 q 1112 -208 1029 -208 l 1112 -233 l 707 -233 l 707 -208 q 818 -182 794 -208 q 841 -103 841 -157 l 841 880 z "},"":{"ha":380,"x_min":0,"x_max":380,"o":"m 136 607 q 146 966 136 760 q 182 1176 153 1102 q 232 1241 200 1219 q 295 1263 264 1263 q 354 1241 328 1263 q 380 1191 380 1219 q 362 1140 380 1160 q 317 1120 344 1120 q 266 1145 294 1120 q 239 1158 250 1158 q 219 1148 227 1158 q 212 1115 212 1139 q 218 1017 212 1087 q 243 567 243 738 q 233 181 243 519 q 176 -97 227 -26 q 80 -149 138 -149 q 22 -126 45 -149 q 0 -67 0 -103 q 17 -19 0 -37 q 61 0 35 0 q 109 -22 88 0 q 141 -43 127 -43 q 160 -34 153 -43 q 168 -2 168 -24 q 161 79 168 26 q 136 607 136 295 z "},"":{"ha":361,"x_min":136,"x_max":512,"o":"m 448 818 l 494 827 l 458 715 q 421 574 439 656 q 412 517 412 531 q 416 511 412 511 q 433 519 421 511 q 490 562 465 539 l 512 537 q 353 449 414 449 q 330 455 337 449 q 322 473 322 462 q 326 492 322 479 l 334 519 q 200 450 254 450 q 153 471 171 450 q 136 531 136 492 q 188 671 136 594 q 308 783 239 749 q 415 804 352 804 q 439 804 427 804 l 448 818 m 391 749 q 359 752 374 752 q 269 706 304 752 q 218 559 218 639 q 227 523 218 534 q 247 512 235 512 q 308 542 275 512 q 356 627 340 571 l 391 749 z "},"":{"ha":361,"x_min":162,"x_max":498,"o":"m 389 812 q 468 779 438 812 q 498 690 498 745 q 428 523 498 597 q 275 449 357 449 q 193 480 224 449 q 162 559 162 511 q 231 737 162 663 q 389 812 300 812 m 352 772 q 285 724 317 772 q 252 591 252 675 q 272 511 252 541 q 308 490 286 490 q 374 538 341 490 q 406 664 406 586 q 390 747 406 722 q 352 772 374 772 z "},"":{"ha":1067,"x_min":34,"x_max":1014,"o":"m 34 0 l 102 233 l 127 233 q 118 192 118 209 q 142 137 118 158 q 212 116 165 116 l 363 116 l 379 183 q 201 291 269 206 q 133 488 133 375 q 199 709 133 603 q 388 878 266 814 q 650 941 511 941 q 935 824 827 941 q 1014 631 1014 739 q 964 440 1014 536 q 819 276 913 344 q 631 195 724 209 l 604 116 l 757 116 q 864 142 828 116 q 918 233 899 168 l 943 233 l 876 0 l 517 0 l 604 247 q 720 306 673 261 q 827 472 784 368 q 870 671 870 576 q 807 831 870 768 q 647 894 745 894 q 468 840 551 894 q 331 671 385 785 q 277 430 277 557 q 319 295 277 349 q 429 227 361 240 l 379 0 l 34 0 z "},"":{"ha":750,"x_min":104,"x_max":812,"o":"m 593 525 q 720 572 654 572 q 788 548 764 572 q 812 481 812 524 q 789 404 812 442 q 712 326 767 365 q 519 225 657 288 q 513 155 513 189 q 528 88 513 108 q 568 68 543 68 q 750 159 634 68 l 772 130 q 500 -18 627 -18 q 427 17 452 -18 q 403 126 401 51 q 273 10 349 59 q 189 -19 228 -19 q 132 8 152 -19 q 104 106 104 45 q 150 286 104 191 q 259 449 195 382 q 394 543 322 516 q 511 558 433 558 q 551 555 529 558 l 568 582 l 613 591 l 593 525 m 527 269 q 677 371 621 309 q 714 454 714 412 q 700 499 714 482 q 663 515 685 515 q 621 498 641 515 q 570 423 590 473 q 527 269 539 344 m 484 478 q 422 486 447 486 q 324 453 366 486 q 244 333 281 420 q 207 157 207 245 q 222 91 207 111 q 260 71 237 71 q 352 119 302 71 q 428 267 401 168 l 484 478 z "},"":{"ha":611,"x_min":136,"x_max":653,"o":"m 601 507 q 636 372 636 452 q 531 100 636 220 q 308 -20 425 -20 q 208 12 250 -20 l 163 -45 l 136 -22 l 182 36 q 145 157 145 85 q 196 367 145 267 q 321 519 246 467 q 473 571 397 571 q 575 535 532 571 l 623 596 l 653 574 l 601 507 m 264 141 l 505 446 q 425 519 481 519 q 313 437 366 519 q 259 210 259 355 q 264 141 259 172 m 516 400 l 277 99 q 357 33 306 33 q 460 104 414 33 q 521 331 521 195 q 516 400 521 368 z "},"":{"ha":555,"x_min":90,"x_max":536,"o":"m 463 406 q 418 426 436 406 q 400 476 400 446 q 421 546 400 521 q 474 570 441 570 q 518 552 500 570 q 536 505 536 533 q 511 430 536 462 q 463 406 492 406 m 427 330 l 471 330 q 439 158 458 195 q 380 117 426 132 q 196 21 243 72 q 148 -90 148 -30 q 174 -168 148 -139 q 237 -196 199 -196 q 320 -159 271 -196 q 347 -141 341 -143 q 365 -137 355 -137 q 394 -150 382 -137 q 407 -179 407 -162 q 372 -235 407 -209 q 286 -261 338 -261 q 147 -201 204 -261 q 90 -50 90 -140 q 155 115 90 43 q 306 203 196 161 q 403 249 390 235 q 427 330 416 264 z "},"":{"ha":389,"x_min":131,"x_max":389,"o":"m 315 404 q 271 424 290 404 q 253 474 253 444 q 274 544 253 519 q 327 568 295 568 q 371 550 353 568 q 389 503 389 531 q 364 428 389 460 q 315 404 346 404 m 279 327 l 319 327 q 255 -221 274 3 q 249 -239 254 -235 q 210 -256 239 -250 q 146 -269 164 -269 q 131 -254 131 -269 q 136 -229 131 -245 q 196 -8 145 -203 l 279 327 z "},"":{"ha":833,"x_min":241,"x_max":842,"o":"m 842 553 l 842 244 l 765 244 l 765 476 l 241 476 l 241 553 l 842 553 z "},"":{"ha":762,"x_min":55,"x_max":760,"o":"m 710 1267 l 760 1267 l 549 -53 l 212 640 l 78 578 l 55 621 l 259 724 l 534 165 l 710 1267 z "},"":{"ha":555,"x_min":-195,"x_max":751,"o":"m 373 478 l 267 57 q 177 -183 227 -104 q 45 -310 127 -263 q -113 -356 -37 -356 q -174 -339 -153 -356 q -195 -302 -195 -323 q -180 -268 -195 -283 q -143 -254 -164 -254 q -79 -264 -125 -254 q -3 -275 -27 -275 q 63 -241 37 -275 q 136 -70 106 -186 l 273 478 l 111 478 l 124 526 l 286 526 q 376 778 324 694 q 510 908 429 861 q 669 956 592 956 q 730 939 709 956 q 751 901 751 922 q 736 868 751 882 q 699 853 720 853 q 635 863 682 853 q 559 875 583 875 q 492 840 519 875 q 421 669 448 783 l 387 526 l 566 526 l 554 478 l 373 478 z "},"":{"ha":762,"x_min":211,"x_max":811,"o":"m 769 614 l 811 567 q 728 466 770 495 q 644 437 686 437 q 602 443 625 437 q 483 488 578 450 q 379 517 408 517 q 318 496 346 517 q 253 410 290 474 l 211 459 q 297 569 259 541 q 380 597 335 597 q 527 553 422 597 q 644 516 618 516 q 769 614 711 516 m 769 401 l 811 354 q 728 253 770 283 q 644 224 686 224 q 602 231 625 224 q 483 275 578 237 q 379 304 408 304 q 318 283 346 304 q 253 198 290 262 l 211 246 q 297 356 259 328 q 380 384 335 384 q 527 341 422 384 q 644 303 618 303 q 769 401 711 303 z "},"":{"ha":850,"x_min":18,"x_max":831,"o":"m 831 0 l 18 0 l 444 941 l 831 0 m 671 56 l 401 711 l 102 56 l 671 56 z "},"":{"ha":472,"x_min":110,"x_max":565,"o":"m 377 279 q 437 179 396 253 q 477 90 465 128 q 486 56 486 65 q 466 36 486 36 q 437 63 450 36 q 285 282 410 124 l 416 401 q 491 474 477 458 q 513 499 506 489 q 547 525 533 525 q 559 519 554 525 q 565 507 565 513 q 562 492 565 500 q 492 402 554 478 q 377 279 450 351 m 202 279 q 262 179 221 253 q 302 90 290 128 q 310 56 310 65 q 290 36 310 36 q 262 63 275 36 q 110 282 235 124 l 241 401 q 316 474 302 458 q 338 499 331 489 q 372 525 358 525 q 385 519 379 525 q 390 507 390 513 q 387 492 390 500 q 317 402 379 478 q 202 279 275 351 z "},"":{"ha":528,"x_min":81,"x_max":536,"o":"m 269 283 q 210 382 250 308 q 169 471 181 433 q 161 505 161 496 q 180 525 161 525 q 208 498 196 525 q 361 279 235 437 l 229 161 q 155 87 169 102 q 132 62 140 73 q 99 36 113 36 q 86 42 92 36 q 81 55 81 47 q 85 69 81 61 q 154 159 92 83 q 269 283 196 210 m 444 283 q 385 382 425 308 q 344 471 357 433 q 336 505 336 496 q 355 525 336 525 q 383 498 371 525 q 536 279 411 437 l 405 161 q 330 87 344 102 q 308 62 315 73 q 274 36 288 36 q 261 42 267 36 q 256 55 256 47 q 260 69 256 61 q 329 159 267 83 q 444 283 372 210 z "},"":{"ha":1389,"x_min":163,"x_max":1225,"o":"m 700 146 q 745 126 726 146 q 763 76 763 106 q 742 7 763 32 q 688 -18 721 -18 q 645 0 663 -18 q 627 47 627 19 q 652 123 627 90 q 700 146 670 146 m 1163 146 q 1207 126 1190 146 q 1225 76 1225 106 q 1205 7 1225 32 q 1152 -18 1184 -18 q 1107 0 1125 -18 q 1089 47 1089 19 q 1114 123 1089 90 q 1163 146 1133 146 m 237 146 q 282 126 264 146 q 300 76 300 106 q 279 7 300 32 q 226 -18 258 -18 q 181 0 199 -18 q 163 47 163 19 q 189 123 163 90 q 237 146 207 146 z "},"":{"ha":305,"x_min":0,"x_max":0,"o":""},"":{"ha":861,"x_min":-71,"x_max":881,"o":"m 881 30 l 874 -9 q 831 -11 850 -11 q 768 -7 805 -11 q 687 0 704 0 q 600 -9 659 0 q 635 102 621 44 q 656 245 645 144 q 410 241 577 245 q 158 -89 238 -22 q 5 -157 77 -157 q -52 -142 -33 -157 q -71 -104 -71 -127 q -60 -75 -71 -87 q -33 -64 -49 -64 q -7 -67 -23 -64 q 47 -77 34 -77 q 148 -25 93 -77 q 412 328 237 59 q 733 770 610 631 q 524 741 566 755 q 439 687 467 723 q 410 614 410 651 q 419 579 410 602 q 429 543 429 554 q 417 516 429 528 q 389 505 406 505 q 352 522 366 505 q 338 574 338 539 q 364 668 338 623 q 437 745 389 714 q 555 792 484 776 q 684 808 592 801 q 785 821 764 814 q 846 855 817 829 q 817 709 825 772 l 764 317 l 733 37 q 823 24 783 24 q 881 30 850 24 m 663 295 q 728 697 695 570 q 621 553 642 583 l 447 295 q 608 293 503 293 q 663 295 633 293 m 652 1095 l 766 1095 l 840 899 l 800 899 l 652 1095 z "},"":{"ha":861,"x_min":-71,"x_max":988,"o":"m 881 30 l 874 -9 q 831 -11 850 -11 q 768 -7 805 -11 q 687 0 704 0 q 600 -9 659 0 q 635 102 621 44 q 656 245 645 144 q 410 241 577 245 q 158 -89 238 -22 q 5 -157 77 -157 q -52 -142 -33 -157 q -71 -104 -71 -127 q -60 -75 -71 -87 q -33 -64 -49 -64 q -7 -67 -23 -64 q 47 -77 34 -77 q 148 -25 93 -77 q 412 328 237 59 q 733 770 610 631 q 524 741 566 755 q 439 687 467 723 q 410 614 410 651 q 419 579 410 602 q 429 543 429 554 q 417 516 429 528 q 389 505 406 505 q 352 522 366 505 q 338 574 338 539 q 364 668 338 623 q 437 745 389 714 q 555 792 484 776 q 684 808 592 801 q 785 821 764 814 q 846 855 817 829 q 817 709 825 772 l 764 317 l 733 37 q 823 24 783 24 q 881 30 850 24 m 663 295 q 728 697 695 570 q 621 553 642 583 l 447 295 q 608 293 503 293 q 663 295 633 293 m 949 1050 l 988 1050 q 932 955 969 988 q 854 922 895 922 q 816 926 833 922 q 770 945 807 928 q 722 966 732 963 q 692 970 707 970 q 661 960 674 970 q 634 922 648 950 l 597 922 q 647 1020 613 989 q 722 1050 682 1050 q 812 1027 751 1050 q 892 1004 869 1004 q 930 1018 913 1004 q 949 1050 947 1031 z "},"":{"ha":833,"x_min":142,"x_max":909,"o":"m 610 812 q 764 772 695 812 q 871 659 833 732 q 909 488 909 585 q 840 235 909 360 q 673 45 772 109 q 453 -18 574 -18 q 228 68 314 -18 q 142 297 142 155 q 211 559 142 433 q 379 749 279 686 q 610 812 479 812 m 560 763 q 415 716 481 763 q 307 571 349 670 q 265 342 265 473 q 331 112 265 193 q 495 31 397 31 q 634 79 568 31 q 742 231 699 127 q 784 469 784 334 q 719 685 784 608 q 560 763 654 763 m 812 1050 l 851 1050 q 795 955 832 988 q 717 922 758 922 q 679 926 696 922 q 633 945 670 928 q 585 966 595 963 q 555 970 570 970 q 524 960 537 970 q 497 922 511 950 l 460 922 q 510 1020 476 989 q 585 1050 545 1050 q 675 1027 614 1050 q 755 1004 732 1004 q 793 1018 777 1004 q 812 1050 810 1031 z "},"":{"ha":1139,"x_min":142,"x_max":1206,"o":"m 1173 636 l 1137 636 q 1144 705 1144 683 q 1125 742 1144 730 q 1050 753 1107 753 q 863 750 924 753 q 790 452 850 677 l 927 452 q 997 462 984 452 q 1026 520 1006 469 l 1063 520 q 1015 321 1027 411 l 981 321 q 986 371 986 357 q 970 401 986 392 q 897 411 954 411 l 780 411 q 682 51 726 200 q 818 70 758 70 q 954 56 857 70 q 1072 44 1040 44 q 1125 55 1109 44 q 1141 82 1141 66 q 1128 111 1141 92 q 1111 156 1111 137 q 1121 185 1111 174 q 1148 196 1132 196 q 1187 176 1171 196 q 1203 124 1203 155 q 1154 24 1203 65 q 1016 -17 1104 -17 q 910 -12 968 -17 q 696 0 774 0 q 536 -9 613 0 q 452 -16 482 -16 q 226 73 310 -16 q 142 314 142 161 q 206 570 142 452 q 378 751 271 687 q 617 815 486 815 q 735 808 665 815 q 999 793 873 793 q 1090 796 1058 793 q 1206 810 1123 798 q 1183 723 1189 755 q 1173 636 1177 690 m 614 775 q 372 661 469 775 q 264 327 264 532 q 329 96 264 183 q 466 26 380 26 q 551 50 515 26 q 595 106 578 66 q 678 412 611 145 q 732 670 732 624 q 699 745 732 715 q 614 775 667 775 z "},"":{"ha":778,"x_min":119,"x_max":840,"o":"m 561 458 q 747 572 643 572 q 816 548 792 572 q 840 481 840 524 q 782 360 840 420 q 562 230 724 299 q 557 156 557 179 q 571 94 557 113 q 609 74 586 74 q 782 170 665 74 l 802 140 q 660 21 730 60 q 543 -18 590 -18 q 485 6 507 -18 q 456 78 463 31 q 367 5 415 29 q 264 -20 319 -20 q 161 28 203 -20 q 119 157 119 76 q 203 432 119 309 q 429 570 298 570 q 509 545 477 570 q 561 458 541 520 m 380 519 q 288 450 330 519 q 233 210 233 358 q 264 68 233 119 q 320 33 285 33 q 410 100 369 33 q 465 331 465 193 q 440 477 465 435 q 380 519 415 519 m 568 269 q 706 371 659 315 q 741 452 741 412 q 728 499 741 482 q 694 515 715 515 q 632 473 660 515 q 568 269 591 409 z "},"":{"ha":694,"x_min":86,"x_max":784,"o":"m 86 241 l 111 328 l 784 328 l 760 241 l 86 241 z "},"":{"ha":1389,"x_min":86,"x_max":1478,"o":"m 86 241 l 111 328 l 1478 328 l 1455 241 l 86 241 z "},"":{"ha":472,"x_min":252,"x_max":610,"o":"m 422 957 l 434 913 q 360 833 378 863 q 343 775 343 803 q 359 730 343 761 q 372 684 372 706 q 356 640 372 657 q 314 623 339 623 q 270 643 288 623 q 252 695 252 663 q 289 814 252 752 q 422 957 326 876 m 599 957 l 610 913 q 536 833 553 863 q 519 775 519 803 q 535 730 519 761 q 548 684 548 706 q 532 640 548 657 q 490 623 515 623 q 446 643 464 623 q 428 695 428 663 q 465 814 428 752 q 599 957 503 876 z "},"":{"ha":500,"x_min":267,"x_max":625,"o":"m 455 623 l 443 666 q 517 746 500 716 q 534 804 534 777 q 518 849 534 819 q 505 895 505 873 q 522 940 505 922 q 564 957 538 957 q 607 937 589 957 q 625 884 625 917 q 588 765 625 827 q 455 623 551 703 m 279 623 l 267 666 q 341 746 324 716 q 359 804 359 777 q 342 849 359 819 q 330 895 330 873 q 346 940 330 922 q 387 957 362 957 q 431 937 414 957 q 449 884 449 917 q 412 765 449 827 q 279 623 375 703 z "},"":{"ha":333,"x_min":271,"x_max":453,"o":"m 441 957 l 453 913 q 379 833 397 863 q 362 775 362 803 q 378 730 362 761 q 391 684 391 706 q 375 640 391 657 q 333 623 358 623 q 289 643 307 623 q 271 695 271 663 q 308 814 271 752 q 441 957 345 876 z "},"":{"ha":333,"x_min":271,"x_max":453,"o":"m 283 623 l 271 666 q 346 746 328 716 q 363 804 363 777 q 347 849 363 819 q 334 895 334 873 q 350 940 334 922 q 391 957 366 957 q 435 937 418 957 q 453 884 453 917 q 416 765 453 827 q 283 623 379 703 z "},"":{"ha":762,"x_min":205,"x_max":805,"o":"m 505 654 q 548 636 530 654 q 566 593 566 618 q 548 551 566 569 q 505 533 530 533 q 463 551 480 533 q 445 593 445 568 q 463 636 445 618 q 505 654 481 654 m 805 436 l 805 359 l 205 359 l 205 436 l 805 436 m 505 262 q 548 245 530 262 q 566 202 566 227 q 548 159 566 177 q 505 142 530 142 q 463 159 480 142 q 445 202 445 177 q 463 245 445 227 q 505 262 480 262 z "},"":{"ha":686,"x_min":32,"x_max":656,"o":"m 372 964 l 656 481 l 372 0 l 297 0 l 32 481 l 297 964 l 372 964 m 336 899 l 105 481 l 336 64 l 579 481 l 336 899 z "},"":{"ha":555,"x_min":-41,"x_max":648,"o":"m 116 433 l 94 465 l 144 498 q 248 563 218 549 q 279 571 264 571 q 306 555 293 571 q 406 352 366 479 q 447 104 447 224 q 446 56 447 88 q 560 391 560 267 q 549 460 560 417 q 536 528 536 507 q 549 560 536 547 q 581 573 562 573 q 619 555 604 573 q 633 503 633 536 q 593 284 633 415 q 468 4 553 154 q 311 -219 382 -146 q 174 -324 240 -292 q 49 -355 108 -355 q -19 -339 4 -355 q -41 -299 -41 -322 q -24 -264 -41 -279 q 24 -250 -6 -250 q 87 -258 47 -250 q 145 -268 130 -268 q 233 -233 186 -268 q 333 -120 296 -186 q 370 13 370 -54 q 342 239 370 107 q 264 441 315 372 q 211 477 239 477 q 116 433 178 477 m 389 778 q 433 760 414 778 q 452 715 452 741 q 433 670 452 689 q 389 652 414 652 q 344 670 363 652 q 326 715 326 689 q 344 760 326 741 q 389 778 363 778 m 585 777 q 629 759 611 777 q 648 715 648 741 q 629 670 648 688 q 585 652 611 652 q 541 670 559 652 q 522 715 522 688 q 541 759 522 741 q 585 777 559 777 z "},"":{"ha":778,"x_min":134,"x_max":1122,"o":"m 739 40 l 725 0 q 653 -11 683 -11 q 569 -5 621 -11 q 490 0 519 0 q 363 -9 449 0 l 375 25 q 455 60 439 41 q 509 223 471 79 q 547 412 547 366 q 512 598 547 503 q 424 753 477 694 q 281 684 324 716 q 212 605 238 652 q 186 523 186 558 q 217 458 186 488 q 243 413 243 433 q 233 384 243 395 q 207 372 222 372 q 160 399 179 372 q 134 489 134 437 q 176 631 134 564 q 294 742 218 697 q 439 798 338 768 q 506 821 476 809 q 597 660 563 752 q 645 430 632 567 q 885 802 771 694 q 1072 909 1000 909 q 1108 897 1094 909 q 1122 865 1122 884 q 1106 833 1122 845 q 1041 817 1089 821 q 968 798 994 814 q 848 683 917 767 q 712 473 779 599 q 610 210 645 347 q 572 32 574 73 q 635 26 604 26 q 739 40 682 26 m 631 1024 q 675 1006 656 1024 q 694 961 694 987 q 675 917 694 935 q 631 898 656 898 q 586 917 605 898 q 568 961 568 935 q 586 1006 568 987 q 631 1024 605 1024 m 827 1023 q 871 1005 853 1023 q 890 961 890 987 q 871 916 890 935 q 827 898 853 898 q 783 916 801 898 q 764 961 764 935 q 783 1005 764 987 q 827 1023 801 1023 z "},"":{"ha":83,"x_min":-99,"x_max":405,"o":"m -99 -5 q 1 166 -41 92 l 248 618 q 351 812 309 729 q 405 803 368 808 q 288 601 342 702 l 70 204 q -41 -10 10 96 q -99 -5 -69 -6 z "},"":{"ha":833,"x_min":246,"x_max":845,"o":"m 246 153 l 313 218 q 265 307 279 266 q 252 396 252 348 q 267 497 252 449 q 313 578 279 533 l 246 644 l 297 696 l 364 629 q 452 677 406 661 q 549 693 498 693 q 638 679 595 693 q 728 629 682 665 l 795 696 l 845 644 l 779 578 q 829 489 814 532 q 844 397 844 447 q 829 305 844 347 q 779 218 814 263 l 845 153 l 795 100 l 728 167 q 639 116 683 131 q 548 100 595 100 q 454 115 498 100 q 364 167 411 130 l 297 100 l 246 153 m 547 614 q 394 550 458 614 q 331 397 331 487 q 394 243 331 307 q 547 179 458 179 q 701 243 637 179 q 764 397 764 307 q 701 550 764 487 q 547 614 637 614 z "},"":{"ha":333,"x_min":147,"x_max":427,"o":"m 239 279 q 299 179 258 253 q 339 90 327 128 q 347 56 347 65 q 328 36 347 36 q 300 63 312 36 q 147 282 273 124 l 279 401 q 354 474 339 458 q 376 499 368 489 q 409 525 395 525 q 422 519 416 525 q 427 507 427 513 q 424 492 427 500 q 354 402 416 478 q 239 279 312 351 z "},"":{"ha":361,"x_min":81,"x_max":361,"o":"m 269 283 q 210 382 250 308 q 169 471 181 433 q 161 505 161 496 q 180 525 161 525 q 208 498 196 525 q 361 279 235 437 l 229 161 q 155 87 169 102 q 132 62 140 73 q 99 36 113 36 q 86 42 92 36 q 81 55 81 47 q 85 69 81 61 q 154 159 92 83 q 269 283 196 210 z "},"":{"ha":722,"x_min":-202,"x_max":871,"o":"m 131 478 l 144 527 l 305 527 q 482 854 358 736 q 728 954 588 954 q 844 929 803 954 q 871 882 871 912 q 856 847 871 861 q 817 833 840 833 q 788 836 802 833 q 734 858 781 838 q 637 881 680 881 q 553 854 593 881 q 483 765 514 828 q 406 527 452 701 l 517 527 q 583 532 555 527 q 644 551 604 536 q 726 572 701 572 q 752 561 741 572 q 762 535 762 551 q 738 433 762 517 l 667 189 q 644 83 644 111 q 650 65 644 73 q 661 58 655 58 q 774 142 684 58 l 798 118 q 699 30 714 41 q 627 -14 657 -2 q 599 -21 612 -21 q 557 -3 573 -21 q 541 49 541 15 q 551 126 541 77 q 610 335 562 176 q 649 469 649 465 q 634 486 649 486 q 614 484 627 486 q 505 478 578 478 l 393 478 l 281 47 q 187 -180 244 -98 q 47 -309 130 -263 q -117 -354 -35 -354 q -180 -338 -158 -354 q -202 -300 -202 -321 q -184 -266 -202 -279 q -132 -252 -166 -252 q -78 -256 -117 -252 q -33 -258 -45 -258 q 83 -229 52 -258 q 153 -77 124 -191 l 294 478 l 131 478 z "},"":{"ha":722,"x_min":-197,"x_max":1061,"o":"m 571 525 l 560 477 l 389 477 l 315 165 q 234 -94 273 -13 q 83 -290 174 -224 q -107 -357 -7 -357 q -175 -340 -153 -357 q -197 -298 -197 -323 q -181 -265 -197 -277 q -138 -252 -166 -252 q -105 -255 -125 -252 q -11 -262 -49 -262 q 89 -232 58 -262 q 147 -96 120 -202 l 291 477 l 130 477 l 143 525 l 302 525 l 328 624 q 471 864 365 772 q 694 956 577 956 q 773 941 750 956 q 797 903 797 926 q 789 874 797 892 q 897 938 851 921 q 989 956 943 956 q 1044 943 1027 956 q 1061 907 1061 930 q 1044 872 1061 886 q 998 859 1028 859 q 941 865 978 859 q 884 871 901 871 q 828 847 849 871 q 789 753 806 824 l 650 168 q 633 75 633 94 q 650 54 633 54 q 683 66 664 54 q 801 160 731 97 l 825 136 q 667 7 739 50 q 587 -21 619 -21 q 547 -6 561 -21 q 534 41 534 9 q 568 224 534 82 l 655 591 q 710 769 685 716 q 778 863 736 822 q 753 856 764 858 q 734 853 743 853 q 689 859 716 853 q 595 873 623 873 q 505 837 538 873 q 433 669 460 785 l 400 525 l 571 525 z "},"":{"ha":667,"x_min":58,"x_max":734,"o":"m 447 652 l 490 898 q 503 937 496 929 q 530 950 509 945 q 555 956 549 954 q 579 960 571 960 q 594 954 587 960 q 600 939 600 947 q 593 904 600 927 l 513 652 q 710 684 685 684 q 728 677 720 684 q 734 665 734 672 q 722 604 734 641 q 699 587 717 587 q 506 612 667 587 l 417 315 l 359 36 q 558 60 523 60 q 580 40 580 60 q 567 -14 580 20 q 546 -34 559 -34 q 348 0 526 -34 l 304 -253 q 291 -290 298 -283 q 266 -300 283 -298 l 212 -305 q 195 -292 195 -305 q 202 -262 195 -286 l 283 0 q 77 -33 116 -33 q 64 -27 70 -33 q 58 -12 58 -20 q 66 24 58 3 l 75 49 q 85 58 79 55 q 99 60 91 60 q 290 36 144 60 l 374 315 l 433 615 q 297 595 387 606 q 241 591 263 591 q 225 597 233 591 q 218 610 218 603 q 220 626 218 617 l 227 650 q 238 677 232 671 q 254 684 243 684 q 297 679 268 684 l 447 652 z "},"":{"ha":306,"x_min":192,"x_max":328,"o":"m 266 479 q 310 459 292 479 q 328 408 328 439 q 307 339 328 364 q 254 314 286 314 q 210 333 228 314 q 192 380 192 351 q 217 455 192 423 q 266 479 235 479 z "},"":{"ha":250,"x_min":17,"x_max":199,"o":"m 29 -198 l 17 -152 q 91 -72 74 -102 q 109 -14 109 -41 q 92 31 109 1 q 79 77 79 56 q 96 121 79 104 q 137 138 112 138 q 181 118 163 138 q 199 66 199 98 q 188 2 199 37 q 153 -67 176 -33 q 80 -147 135 -93 l 29 -198 z "},"":{"ha":389,"x_min":11,"x_max":369,"o":"m 199 -198 l 186 -155 q 261 -74 243 -104 q 278 -16 278 -44 q 262 28 278 -2 q 249 75 249 53 q 266 119 249 102 q 307 136 282 136 q 351 116 333 136 q 369 64 369 96 q 332 -55 369 7 q 199 -198 294 -117 m 22 -198 l 11 -155 q 85 -74 68 -104 q 102 -16 102 -44 q 86 28 102 -2 q 73 75 73 53 q 90 119 73 102 q 131 136 106 136 q 175 116 157 136 q 193 64 193 96 q 156 -55 193 7 q 22 -198 119 -117 z "},"":{"ha":1333,"x_min":218,"x_max":1341,"o":"m 326 -5 q 425 166 383 92 l 673 618 q 775 812 732 729 q 829 803 791 808 q 711 601 767 702 l 494 204 q 382 -10 434 96 q 348 -6 370 -7 q 326 -5 340 -6 m 431 812 q 523 773 488 812 q 559 663 559 734 q 486 453 559 545 q 347 378 427 378 q 255 418 291 378 q 218 524 218 458 q 279 721 218 629 q 431 812 340 812 m 422 784 q 342 699 379 784 q 305 511 305 614 q 321 433 305 458 q 359 408 338 408 q 427 473 397 408 q 472 680 472 570 q 454 762 472 732 q 422 784 441 784 m 812 424 q 904 385 868 424 q 939 275 939 346 q 866 64 939 156 q 727 -10 807 -10 q 635 30 671 -10 q 599 135 599 69 q 660 332 599 241 q 812 424 720 424 m 802 395 q 723 310 760 395 q 686 122 686 225 q 702 44 686 69 q 739 19 718 19 q 808 85 777 19 q 852 291 852 181 q 835 374 852 344 q 802 395 821 395 m 1214 424 q 1305 385 1270 424 q 1341 275 1341 346 q 1268 64 1341 156 q 1129 -10 1209 -10 q 1037 30 1073 -10 q 1001 135 1001 69 q 1062 332 1001 241 q 1214 424 1122 424 m 1204 395 q 1125 310 1162 395 q 1088 122 1088 225 q 1104 44 1088 69 q 1141 19 1120 19 q 1210 85 1179 19 q 1255 291 1255 181 q 1237 374 1255 344 q 1204 395 1223 395 z "},"":{"ha":861,"x_min":-71,"x_max":937,"o":"m 881 30 l 874 -9 q 831 -11 850 -11 q 768 -7 805 -11 q 687 0 704 0 q 600 -9 659 0 q 635 102 621 44 q 656 245 645 144 q 410 241 577 245 q 158 -89 238 -22 q 5 -157 77 -157 q -52 -142 -33 -157 q -71 -104 -71 -127 q -60 -75 -71 -87 q -33 -64 -49 -64 q -7 -67 -23 -64 q 47 -77 34 -77 q 148 -25 93 -77 q 412 328 237 59 q 733 770 610 631 q 524 741 566 755 q 439 687 467 723 q 410 614 410 651 q 419 579 410 602 q 429 543 429 554 q 417 516 429 528 q 389 505 406 505 q 352 522 366 505 q 338 574 338 539 q 364 668 338 623 q 437 745 389 714 q 555 792 484 776 q 684 808 592 801 q 785 821 764 814 q 846 855 817 829 q 817 709 825 772 l 764 317 l 733 37 q 823 24 783 24 q 881 30 850 24 m 663 295 q 728 697 695 570 q 621 553 642 583 l 447 295 q 608 293 503 293 q 663 295 633 293 m 785 1096 l 888 1096 l 937 899 l 899 899 l 828 1023 l 646 899 l 603 899 l 785 1096 z "},"":{"ha":861,"x_min":92,"x_max":924,"o":"m 890 650 l 854 650 q 859 705 859 685 q 837 741 859 732 q 665 749 814 749 l 566 749 l 491 449 l 631 449 q 713 459 698 449 q 735 508 728 469 l 774 508 q 735 328 752 426 l 701 328 q 704 377 704 359 q 694 395 704 385 q 677 403 690 401 q 620 406 659 406 l 481 406 q 355 45 420 176 q 467 64 418 64 q 667 39 549 64 q 751 24 729 24 q 800 39 781 24 q 818 73 818 54 q 809 109 818 84 q 804 140 804 125 q 816 168 804 156 q 846 180 829 180 q 881 164 867 180 q 895 121 895 148 q 845 20 895 63 q 711 -24 794 -24 q 602 -16 668 -24 q 379 0 456 0 q 144 -16 279 0 l 155 21 q 250 54 235 43 q 273 85 264 64 q 358 343 306 149 q 463 753 410 537 q 309 714 382 753 q 196 613 237 675 q 155 483 155 551 q 161 432 155 454 q 187 371 167 410 q 200 332 200 347 q 188 306 200 317 q 157 294 175 294 q 115 321 130 294 q 92 426 92 359 q 199 682 92 568 q 513 795 307 795 l 746 795 q 924 810 867 795 q 890 650 897 698 m 703 1096 l 806 1096 l 855 899 l 817 899 l 746 1023 l 564 899 l 521 899 l 703 1096 z "},"":{"ha":861,"x_min":-71,"x_max":1004,"o":"m 881 30 l 874 -9 q 831 -11 850 -11 q 768 -7 805 -11 q 687 0 704 0 q 600 -9 659 0 q 635 102 621 44 q 656 245 645 144 q 410 241 577 245 q 158 -89 238 -22 q 5 -157 77 -157 q -52 -142 -33 -157 q -71 -104 -71 -127 q -60 -75 -71 -87 q -33 -64 -49 -64 q -7 -67 -23 -64 q 47 -77 34 -77 q 148 -25 93 -77 q 412 328 237 59 q 733 770 610 631 q 524 741 566 755 q 439 687 467 723 q 410 614 410 651 q 419 579 410 602 q 429 543 429 554 q 417 516 429 528 q 389 505 406 505 q 352 522 366 505 q 338 574 338 539 q 364 668 338 623 q 437 745 389 714 q 555 792 484 776 q 684 808 592 801 q 785 821 764 814 q 846 855 817 829 q 817 709 825 772 l 764 317 l 733 37 q 823 24 783 24 q 881 30 850 24 m 663 295 q 728 697 695 570 q 621 553 642 583 l 447 295 q 608 293 503 293 q 663 295 633 293 m 875 1095 l 1004 1095 l 774 899 l 734 899 l 875 1095 z "},"":{"ha":861,"x_min":92,"x_max":924,"o":"m 890 650 l 854 650 q 859 705 859 685 q 837 741 859 732 q 665 749 814 749 l 566 749 l 491 449 l 631 449 q 713 459 698 449 q 735 508 728 469 l 774 508 q 735 328 752 426 l 701 328 q 704 377 704 359 q 694 395 704 385 q 677 403 690 401 q 620 406 659 406 l 481 406 q 355 45 420 176 q 467 64 418 64 q 667 39 549 64 q 751 24 729 24 q 800 39 781 24 q 818 73 818 54 q 809 109 818 84 q 804 140 804 125 q 816 168 804 156 q 846 180 829 180 q 881 164 867 180 q 895 121 895 148 q 845 20 895 63 q 711 -24 794 -24 q 602 -16 668 -24 q 379 0 456 0 q 144 -16 279 0 l 155 21 q 250 54 235 43 q 273 85 264 64 q 358 343 306 149 q 463 753 410 537 q 309 714 382 753 q 196 613 237 675 q 155 483 155 551 q 161 432 155 454 q 187 371 167 410 q 200 332 200 347 q 188 306 200 317 q 157 294 175 294 q 115 321 130 294 q 92 426 92 359 q 199 682 92 568 q 513 795 307 795 l 746 795 q 924 810 867 795 q 890 650 897 698 m 599 1024 q 643 1006 625 1024 q 662 961 662 987 q 643 917 662 935 q 599 898 625 898 q 554 917 573 898 q 536 961 536 935 q 554 1006 536 987 q 599 1024 573 1024 m 795 1023 q 840 1005 821 1023 q 858 961 858 987 q 840 916 858 935 q 795 898 821 898 q 751 916 769 898 q 732 961 732 935 q 751 1005 732 987 q 795 1023 769 1023 z "},"":{"ha":861,"x_min":92,"x_max":924,"o":"m 890 650 l 854 650 q 859 705 859 685 q 837 741 859 732 q 665 749 814 749 l 566 749 l 491 449 l 631 449 q 713 459 698 449 q 735 508 728 469 l 774 508 q 735 328 752 426 l 701 328 q 704 377 704 359 q 694 395 704 385 q 677 403 690 401 q 620 406 659 406 l 481 406 q 355 45 420 176 q 467 64 418 64 q 667 39 549 64 q 751 24 729 24 q 800 39 781 24 q 818 73 818 54 q 809 109 818 84 q 804 140 804 125 q 816 168 804 156 q 846 180 829 180 q 881 164 867 180 q 895 121 895 148 q 845 20 895 63 q 711 -24 794 -24 q 602 -16 668 -24 q 379 0 456 0 q 144 -16 279 0 l 155 21 q 250 54 235 43 q 273 85 264 64 q 358 343 306 149 q 463 753 410 537 q 309 714 382 753 q 196 613 237 675 q 155 483 155 551 q 161 432 155 454 q 187 371 167 410 q 200 332 200 347 q 188 306 200 317 q 157 294 175 294 q 115 321 130 294 q 92 426 92 359 q 199 682 92 568 q 513 795 307 795 l 746 795 q 924 810 867 795 q 890 650 897 698 m 570 1095 l 684 1095 l 758 899 l 718 899 l 570 1095 z "},"":{"ha":528,"x_min":94,"x_max":722,"o":"m 658 802 l 646 766 q 545 747 570 761 q 517 718 528 737 q 442 459 505 694 q 338 37 422 382 q 458 23 386 21 l 448 -9 q 361 -4 426 -10 q 252 0 314 0 q 94 -13 165 0 l 102 23 q 215 53 176 35 q 230 64 224 58 q 252 114 240 77 q 333 416 264 151 q 416 751 353 492 q 301 738 369 752 l 314 775 q 372 786 342 783 q 507 791 402 789 q 658 802 606 794 m 593 1095 l 722 1095 l 492 899 l 452 899 l 593 1095 z "},"":{"ha":528,"x_min":94,"x_max":688,"o":"m 658 802 l 646 766 q 545 747 570 761 q 517 718 528 737 q 442 459 505 694 q 338 37 422 382 q 458 23 386 21 l 448 -9 q 361 -4 426 -10 q 252 0 314 0 q 94 -13 165 0 l 102 23 q 215 53 176 35 q 230 64 224 58 q 252 114 240 77 q 333 416 264 151 q 416 751 353 492 q 301 738 369 752 l 314 775 q 372 786 342 783 q 507 791 402 789 q 658 802 606 794 m 536 1096 l 639 1096 l 688 899 l 650 899 l 579 1023 l 397 899 l 354 899 l 536 1096 z "},"":{"ha":528,"x_min":94,"x_max":675,"o":"m 658 802 l 646 766 q 545 747 570 761 q 517 718 528 737 q 442 459 505 694 q 338 37 422 382 q 458 23 386 21 l 448 -9 q 361 -4 426 -10 q 252 0 314 0 q 94 -13 165 0 l 102 23 q 215 53 176 35 q 230 64 224 58 q 252 114 240 77 q 333 416 264 151 q 416 751 353 492 q 301 738 369 752 l 314 775 q 372 786 342 783 q 507 791 402 789 q 658 802 606 794 m 416 1024 q 460 1006 441 1024 q 479 961 479 987 q 460 917 479 935 q 416 898 441 898 q 371 917 390 898 q 353 961 353 935 q 371 1006 353 987 q 416 1024 390 1024 m 612 1023 q 656 1005 638 1023 q 675 961 675 987 q 656 916 675 935 q 612 898 638 898 q 568 916 586 898 q 549 961 549 935 q 568 1005 549 987 q 612 1023 586 1023 z "},"":{"ha":528,"x_min":94,"x_max":658,"o":"m 658 802 l 646 766 q 545 747 570 761 q 517 718 528 737 q 442 459 505 694 q 338 37 422 382 q 458 23 386 21 l 448 -9 q 361 -4 426 -10 q 252 0 314 0 q 94 -13 165 0 l 102 23 q 215 53 176 35 q 230 64 224 58 q 252 114 240 77 q 333 416 264 151 q 416 751 353 492 q 301 738 369 752 l 314 775 q 372 786 342 783 q 507 791 402 789 q 658 802 606 794 m 404 1095 l 517 1095 l 592 899 l 551 899 l 404 1095 z "},"":{"ha":833,"x_min":142,"x_max":909,"o":"m 610 812 q 764 772 695 812 q 871 659 833 732 q 909 488 909 585 q 840 235 909 360 q 673 45 772 109 q 453 -18 574 -18 q 228 68 314 -18 q 142 297 142 155 q 211 559 142 433 q 379 749 279 686 q 610 812 479 812 m 560 763 q 415 716 481 763 q 307 571 349 670 q 265 342 265 473 q 331 112 265 193 q 495 31 397 31 q 634 79 568 31 q 742 231 699 127 q 784 469 784 334 q 719 685 784 608 q 560 763 654 763 m 746 1095 l 875 1095 l 645 899 l 605 899 l 746 1095 z "},"":{"ha":833,"x_min":142,"x_max":909,"o":"m 610 812 q 764 772 695 812 q 871 659 833 732 q 909 488 909 585 q 840 235 909 360 q 673 45 772 109 q 453 -18 574 -18 q 228 68 314 -18 q 142 297 142 155 q 211 559 142 433 q 379 749 279 686 q 610 812 479 812 m 560 763 q 415 716 481 763 q 307 571 349 670 q 265 342 265 473 q 331 112 265 193 q 495 31 397 31 q 634 79 568 31 q 742 231 699 127 q 784 469 784 334 q 719 685 784 608 q 560 763 654 763 m 632 1096 l 734 1096 l 784 899 l 745 899 l 675 1023 l 493 899 l 450 899 l 632 1096 z "},"":{"ha":1097,"x_min":0,"x_max":0,"o":""},"":{"ha":833,"x_min":142,"x_max":909,"o":"m 610 812 q 764 772 695 812 q 871 659 833 732 q 909 488 909 585 q 840 235 909 360 q 673 45 772 109 q 453 -18 574 -18 q 228 68 314 -18 q 142 297 142 155 q 211 559 142 433 q 379 749 279 686 q 610 812 479 812 m 560 763 q 415 716 481 763 q 307 571 349 670 q 265 342 265 473 q 331 112 265 193 q 495 31 397 31 q 634 79 568 31 q 742 231 699 127 q 784 469 784 334 q 719 685 784 608 q 560 763 654 763 m 492 1095 l 605 1095 l 680 899 l 639 899 l 492 1095 z "},"":{"ha":1027,"x_min":161,"x_max":1107,"o":"m 629 810 q 494 503 561 690 q 448 282 448 371 q 495 128 448 183 q 615 73 543 73 q 743 107 683 73 q 889 243 822 152 q 1000 463 957 335 q 1042 702 1042 591 q 1009 848 1042 779 q 989 890 991 884 q 987 911 987 900 q 999 944 987 931 q 1030 957 1012 957 q 1080 923 1062 957 q 1107 780 1107 877 q 1016 367 1107 572 q 806 73 925 161 q 556 -15 687 -15 q 393 56 450 -15 q 336 231 336 127 q 362 406 336 316 q 505 756 397 523 q 353 735 420 758 q 257 677 286 713 q 227 608 227 642 q 243 569 227 593 q 259 526 259 541 q 247 493 259 506 q 216 480 235 480 q 177 500 194 480 q 161 553 161 521 q 191 658 161 606 q 270 743 222 711 q 390 789 319 774 q 536 803 425 797 q 629 810 612 807 m 909 1095 l 1038 1095 l 808 899 l 768 899 l 909 1095 z "},"":{"ha":1027,"x_min":161,"x_max":1107,"o":"m 629 810 q 494 503 561 690 q 448 282 448 371 q 495 128 448 183 q 615 73 543 73 q 743 107 683 73 q 889 243 822 152 q 1000 463 957 335 q 1042 702 1042 591 q 1009 848 1042 779 q 989 890 991 884 q 987 911 987 900 q 999 944 987 931 q 1030 957 1012 957 q 1080 923 1062 957 q 1107 780 1107 877 q 1016 367 1107 572 q 806 73 925 161 q 556 -15 687 -15 q 393 56 450 -15 q 336 231 336 127 q 362 406 336 316 q 505 756 397 523 q 353 735 420 758 q 257 677 286 713 q 227 608 227 642 q 243 569 227 593 q 259 526 259 541 q 247 493 259 506 q 216 480 235 480 q 177 500 194 480 q 161 553 161 521 q 191 658 161 606 q 270 743 222 711 q 390 789 319 774 q 536 803 425 797 q 629 810 612 807 m 786 1096 l 888 1096 l 938 899 l 899 899 l 829 1023 l 647 899 l 604 899 l 786 1096 z "},"":{"ha":1027,"x_min":161,"x_max":1107,"o":"m 629 810 q 494 503 561 690 q 448 282 448 371 q 495 128 448 183 q 615 73 543 73 q 743 107 683 73 q 889 243 822 152 q 1000 463 957 335 q 1042 702 1042 591 q 1009 848 1042 779 q 989 890 991 884 q 987 911 987 900 q 999 944 987 931 q 1030 957 1012 957 q 1080 923 1062 957 q 1107 780 1107 877 q 1016 367 1107 572 q 806 73 925 161 q 556 -15 687 -15 q 393 56 450 -15 q 336 231 336 127 q 362 406 336 316 q 505 756 397 523 q 353 735 420 758 q 257 677 286 713 q 227 608 227 642 q 243 569 227 593 q 259 526 259 541 q 247 493 259 506 q 216 480 235 480 q 177 500 194 480 q 161 553 161 521 q 191 658 161 606 q 270 743 222 711 q 390 789 319 774 q 536 803 425 797 q 629 810 612 807 m 694 1095 l 808 1095 l 882 899 l 842 899 l 694 1095 z "},"":{"ha":333,"x_min":110,"x_max":411,"o":"m 140 413 l 110 436 q 234 542 178 511 q 329 574 290 574 q 362 564 351 574 q 374 538 374 555 q 330 372 374 519 q 258 81 258 131 q 262 65 258 72 q 273 59 267 59 q 294 68 279 59 q 361 123 332 94 q 384 143 375 136 l 411 117 q 311 29 328 42 q 239 -12 272 1 q 205 -19 222 -19 q 167 -4 181 -19 q 153 37 153 10 q 180 189 153 86 q 254 452 227 372 q 260 479 260 468 q 248 493 260 493 q 217 482 234 493 q 140 413 199 471 z "},"":{"ha":472,"x_min":244,"x_max":578,"o":"m 427 850 l 529 850 l 578 653 l 540 653 l 469 777 l 288 653 l 244 653 l 427 850 z "},"":{"ha":611,"x_min":324,"x_max":715,"o":"m 677 805 l 715 805 q 660 709 696 743 q 581 676 623 676 q 543 680 560 676 q 498 700 534 682 q 450 721 460 718 q 420 725 435 725 q 389 715 401 725 q 361 676 376 705 l 324 676 q 375 774 340 743 q 449 805 409 805 q 539 781 479 805 q 619 759 596 759 q 657 772 641 759 q 677 805 674 785 z "},"":{"ha":611,"x_min":323,"x_max":671,"o":"m 357 709 l 671 709 l 635 650 l 323 650 l 357 709 z "},"":{"ha":611,"x_min":376,"x_max":709,"o":"m 377 842 l 413 842 q 427 784 420 794 q 459 756 437 767 q 510 745 481 745 q 605 773 559 745 q 669 842 633 791 l 709 842 q 607 700 661 747 q 492 653 553 653 q 409 694 441 653 q 376 820 376 735 q 377 842 376 827 z "},"":{"ha":306,"x_min":289,"x_max":427,"o":"m 358 808 q 407 788 387 808 q 427 740 427 768 q 407 691 427 711 q 358 671 387 671 q 309 691 330 671 q 289 740 289 711 q 309 788 289 768 q 358 808 330 808 z "},"":{"ha":416,"x_min":303,"x_max":540,"o":"m 422 870 q 505 835 471 870 q 540 751 540 800 q 505 668 540 703 q 422 633 471 633 q 338 668 372 633 q 303 751 303 703 q 338 835 303 800 q 422 870 372 870 m 421 823 q 371 802 392 823 q 350 751 350 781 q 371 701 350 722 q 421 680 392 680 q 472 701 451 680 q 492 751 492 722 q 472 802 492 781 q 421 823 451 823 z "},"":{"ha":416,"x_min":98,"x_max":319,"o":"m 242 13 l 286 13 l 245 -64 q 301 -89 283 -69 q 319 -136 319 -109 q 261 -232 319 -184 q 98 -298 203 -281 l 111 -257 q 212 -212 174 -244 q 238 -161 238 -189 q 221 -124 238 -139 q 180 -110 204 -110 q 169 -111 176 -110 l 242 13 z "},"":{"ha":555,"x_min":111,"x_max":589,"o":"m 111 628 l 231 853 l 385 855 l 154 629 l 111 628 m 315 628 l 435 853 l 589 855 l 358 629 l 315 628 z "},"":{"ha":389,"x_min":94,"x_max":295,"o":"m 163 11 l 210 11 q 166 -119 166 -58 q 191 -181 166 -157 q 255 -205 215 -205 q 295 -203 271 -205 l 277 -243 q 194 -255 229 -255 q 121 -229 149 -255 q 94 -166 94 -203 q 163 11 94 -94 z "},"":{"ha":472,"x_min":322,"x_max":654,"o":"m 322 851 l 363 851 l 430 728 l 615 851 l 654 851 l 475 654 l 372 654 l 322 851 z "},"":{"ha":806,"x_min":66,"x_max":818,"o":"m 384 368 q 313 123 340 191 q 267 44 294 75 q 421 67 369 67 q 594 39 476 67 q 686 24 660 24 q 730 40 712 24 q 748 75 748 56 q 739 112 748 88 q 730 146 730 136 q 741 175 730 163 q 768 186 751 186 q 804 168 789 186 q 818 117 818 150 q 769 17 818 60 q 637 -26 720 -26 q 530 -20 596 -26 q 243 0 311 0 q 66 -12 151 0 l 75 25 q 189 73 162 42 q 265 302 222 111 l 104 214 l 116 269 l 278 358 q 346 578 321 528 q 436 714 385 661 q 543 792 487 767 q 648 817 598 817 q 738 790 701 817 q 774 735 774 763 q 763 705 774 717 q 736 694 752 694 q 687 721 718 694 q 602 766 634 766 q 514 708 555 766 q 398 425 443 609 l 630 552 l 619 497 l 384 368 z "},"":{"ha":416,"x_min":92,"x_max":698,"o":"m 349 425 l 319 300 l 275 104 q 270 77 270 85 q 286 56 270 56 q 314 64 298 56 q 390 122 336 77 q 441 163 431 155 l 465 139 q 340 30 412 79 q 221 -19 267 -19 q 186 -3 200 -19 q 172 40 172 13 q 214 266 172 94 l 235 349 l 92 253 l 106 314 l 250 410 l 288 564 q 352 779 330 735 q 470 906 391 857 q 636 956 550 956 q 682 942 665 956 q 698 908 698 928 q 681 873 698 888 q 635 859 664 859 q 577 865 615 859 q 517 871 545 871 q 475 859 489 871 q 440 794 456 843 q 387 585 425 745 l 363 486 l 570 624 l 555 563 l 349 425 z "},"":{"ha":639,"x_min":26,"x_max":820,"o":"m 698 550 l 663 550 q 670 658 670 621 q 642 740 670 710 q 566 770 614 770 q 435 716 491 770 q 380 595 380 663 q 395 530 380 559 q 463 449 410 501 q 588 302 558 355 q 618 199 618 250 q 573 57 618 125 q 440 -56 528 -12 q 254 -100 352 -100 q 92 -50 158 -100 q 26 56 26 0 q 43 105 26 85 q 83 125 60 125 q 121 106 106 125 q 140 58 130 96 q 166 -9 151 12 q 209 -43 182 -30 q 269 -56 237 -56 q 439 9 366 -56 q 511 154 511 75 q 502 208 511 181 q 469 269 493 235 q 393 350 452 292 q 321 428 336 407 q 290 489 300 458 q 279 551 279 520 q 321 675 279 612 q 428 774 362 737 q 578 811 494 811 q 682 798 621 811 q 743 788 718 791 q 720 705 728 744 q 698 550 712 666 m 488 1097 l 529 1097 l 595 975 l 781 1097 l 820 1097 l 641 900 l 537 900 l 488 1097 z "},"":{"ha":444,"x_min":88,"x_max":640,"o":"m 416 571 q 509 548 476 571 q 542 494 542 524 q 528 462 542 475 q 494 448 514 448 q 472 454 481 448 q 445 483 463 460 q 379 527 412 527 q 330 506 351 527 q 309 452 309 484 q 322 398 309 425 q 391 314 336 372 q 466 162 466 234 q 405 36 466 90 q 248 -18 344 -18 q 127 15 167 -18 q 88 96 88 48 q 103 136 88 120 q 140 151 118 151 q 172 139 159 151 q 186 109 186 126 q 184 92 186 102 q 184 77 184 83 q 203 39 184 54 q 253 23 221 23 q 317 36 290 23 q 361 74 345 48 q 376 124 376 99 q 362 173 376 149 q 296 254 347 197 q 226 405 226 332 q 279 521 226 471 q 416 571 333 571 m 308 851 l 349 851 l 416 728 l 601 851 l 640 851 l 461 654 l 357 654 l 308 851 z "},"":{"ha":861,"x_min":92,"x_max":931,"o":"m 764 710 q 673 700 720 700 q 496 729 598 700 q 416 747 433 747 q 371 735 387 747 q 356 706 356 723 q 378 671 356 687 q 406 644 400 653 q 412 621 412 634 q 399 591 412 604 q 370 579 387 579 q 323 604 343 579 q 304 672 304 629 q 349 774 304 732 q 459 816 393 816 q 559 807 501 816 q 758 787 692 787 q 884 817 824 787 q 908 825 901 825 q 924 819 917 825 q 931 807 931 813 q 868 730 931 786 q 745 611 802 671 l 406 260 l 212 50 q 433 92 358 92 q 663 47 540 92 q 758 23 730 23 q 804 37 789 23 q 819 76 819 50 q 812 107 819 90 q 804 138 804 128 q 818 171 804 157 q 850 185 831 185 q 885 169 870 185 q 899 124 899 152 q 847 16 899 58 q 728 -27 795 -27 q 589 -14 688 -27 q 344 0 475 0 q 142 -21 193 0 q 111 -29 121 -29 q 97 -23 104 -29 q 92 -9 92 -18 q 118 35 92 10 q 221 140 146 61 q 412 335 283 205 l 616 543 q 764 710 690 618 m 565 1097 l 606 1097 l 673 975 l 858 1097 l 897 1097 l 718 900 l 614 900 l 565 1097 z "},"":{"ha":611,"x_min":50,"x_max":724,"o":"m 547 500 q 433 483 485 483 q 370 486 405 483 q 306 492 322 492 q 275 482 286 492 q 264 458 264 473 q 288 433 264 435 q 319 405 319 429 q 309 384 319 393 q 288 375 300 375 q 242 399 263 375 q 222 459 222 423 q 260 538 222 505 q 356 572 299 572 q 437 564 386 572 q 555 551 519 551 q 623 575 591 551 q 648 586 638 586 q 662 581 656 586 q 667 571 667 576 q 660 556 667 564 q 555 449 637 528 l 345 248 q 191 105 252 159 q 252 109 230 109 q 307 104 282 109 q 388 81 332 99 q 506 56 460 56 q 550 69 534 56 q 565 102 565 82 q 554 135 565 114 q 545 166 545 155 q 555 194 545 182 q 583 205 566 205 q 615 190 602 205 q 629 149 629 174 q 601 69 629 111 q 531 5 573 27 q 427 -18 489 -18 q 279 12 376 -18 q 159 35 197 35 q 106 11 136 35 q 75 -4 88 -4 q 50 8 50 -4 q 64 36 50 20 q 257 221 102 81 q 440 394 361 316 l 547 500 m 391 851 l 433 851 l 499 728 l 684 851 l 724 851 l 545 654 l 441 654 l 391 851 z "},"":{"ha":722,"x_min":452,"x_max":528,"o":"m 452 350 l 452 955 l 528 955 l 528 387 l 452 350 m 452 -338 l 452 229 l 528 267 l 528 -338 l 452 -338 z "},"":{"ha":972,"x_min":96,"x_max":1044,"o":"m 435 413 q 456 498 442 437 q 481 603 471 560 q 486 631 486 619 q 479 648 486 642 q 460 654 472 654 q 441 652 455 654 l 448 682 q 622 711 522 688 q 570 541 580 582 l 541 413 l 783 413 l 772 370 l 530 370 q 470 165 503 254 q 417 42 437 77 q 520 31 475 31 q 727 80 639 31 q 867 226 815 130 q 919 437 919 321 q 831 680 919 588 q 600 772 743 772 q 374 715 480 772 q 205 564 267 658 q 143 380 143 470 q 219 254 143 295 q 247 233 241 241 q 254 212 254 224 q 240 182 254 195 q 212 169 227 169 q 142 218 176 169 q 96 353 96 283 q 166 579 96 470 q 359 752 235 688 q 635 817 484 817 q 933 716 823 817 q 1044 465 1044 616 q 967 207 1044 325 q 780 40 890 90 q 562 -10 671 -10 q 439 -3 526 -10 q 300 2 366 2 q 208 0 270 2 l 223 33 q 302 45 286 37 q 334 80 319 54 q 386 223 355 121 l 424 370 l 270 370 l 280 413 l 435 413 z "},"":{"ha":555,"x_min":117,"x_max":659,"o":"m 335 958 l 379 958 q 476 812 427 890 l 652 838 l 659 802 l 492 778 q 581 581 547 691 q 614 379 614 471 q 500 98 614 227 q 279 -20 397 -20 q 162 29 208 -20 q 117 155 117 79 q 166 359 117 257 q 285 512 216 462 q 420 562 353 562 q 476 543 448 562 q 452 645 462 610 q 414 766 450 652 l 205 734 l 199 772 l 401 802 l 335 958 m 398 519 q 325 489 361 519 q 260 378 288 458 q 232 215 232 297 q 264 72 232 123 q 328 33 289 33 q 400 64 363 33 q 466 172 437 95 q 495 328 495 248 q 471 465 495 411 q 398 519 447 519 z "},"":{"ha":778,"x_min":134,"x_max":1122,"o":"m 739 40 l 725 0 q 653 -11 683 -11 q 569 -5 621 -11 q 490 0 519 0 q 363 -9 449 0 l 375 25 q 455 60 439 41 q 509 223 471 79 q 547 412 547 366 q 512 598 547 503 q 424 753 477 694 q 281 684 324 716 q 212 605 238 652 q 186 523 186 558 q 217 458 186 488 q 243 413 243 433 q 233 384 243 395 q 207 372 222 372 q 160 399 179 372 q 134 489 134 437 q 176 631 134 564 q 294 742 218 697 q 439 798 338 768 q 506 821 476 809 q 597 660 563 752 q 645 430 632 567 q 885 802 771 694 q 1072 909 1000 909 q 1108 897 1094 909 q 1122 865 1122 884 q 1106 833 1122 845 q 1041 817 1089 821 q 968 798 994 814 q 848 683 917 767 q 712 473 779 599 q 610 210 645 347 q 572 32 574 73 q 635 26 604 26 q 739 40 682 26 m 800 1095 l 929 1095 l 699 899 l 659 899 l 800 1095 z "},"":{"ha":555,"x_min":-41,"x_max":654,"o":"m 116 433 l 94 465 l 144 498 q 248 563 218 549 q 279 571 264 571 q 306 555 293 571 q 406 352 366 479 q 447 104 447 224 q 446 56 447 88 q 560 391 560 267 q 549 460 560 417 q 536 528 536 507 q 549 560 536 547 q 581 573 562 573 q 619 555 604 573 q 633 503 633 536 q 593 284 633 415 q 468 4 553 154 q 311 -219 382 -146 q 174 -324 240 -292 q 49 -355 108 -355 q -19 -339 4 -355 q -41 -299 -41 -322 q -24 -264 -41 -279 q 24 -250 -6 -250 q 87 -258 47 -250 q 145 -268 130 -268 q 233 -233 186 -268 q 333 -120 296 -186 q 370 13 370 -54 q 342 239 370 107 q 264 441 315 372 q 211 477 239 477 q 116 433 178 477 m 526 850 l 654 850 l 425 653 l 385 653 l 526 850 z "},"":{"ha":750,"x_min":112,"x_max":849,"o":"m 724 810 l 711 771 q 673 766 699 769 q 612 751 628 760 q 588 728 597 743 q 562 650 579 713 q 597 650 583 650 q 784 594 718 650 q 849 450 849 538 q 740 256 849 331 q 494 182 631 182 q 435 184 472 182 l 395 34 q 480 21 442 21 q 562 29 509 21 l 556 -9 q 486 -15 514 -15 q 389 -7 456 -15 q 292 0 323 0 q 168 -16 239 0 l 176 24 q 277 60 247 34 q 325 153 308 86 l 441 592 q 234 501 301 564 q 167 366 167 437 q 202 296 167 327 q 236 263 229 275 q 241 246 241 256 q 230 218 241 229 q 202 208 220 208 q 141 245 170 208 q 112 338 112 283 q 199 526 112 442 q 454 639 286 609 l 477 756 l 449 758 q 366 747 418 758 l 377 787 q 525 796 463 796 q 635 798 618 796 q 724 810 667 801 m 447 223 q 486 222 471 222 q 660 290 591 222 q 728 455 728 357 q 683 564 728 525 q 546 602 639 602 l 447 223 z "},"":{"ha":611,"x_min":-20,"x_max":693,"o":"m 335 402 q 477 530 439 506 q 594 572 541 572 q 652 539 628 572 q 675 441 675 507 q 573 129 675 277 q 347 -19 471 -19 q 249 7 298 -19 l 191 -216 q 186 -250 186 -237 q 205 -286 186 -275 q 328 -313 234 -302 l 319 -347 q 147 -338 227 -338 q -20 -347 83 -338 l -11 -313 q 64 -285 41 -308 q 102 -203 87 -262 l 302 630 q 375 817 331 754 q 490 919 418 880 q 631 957 561 957 q 676 943 660 957 q 693 907 693 928 q 677 874 693 888 q 631 861 661 861 q 590 864 615 861 q 508 872 533 872 q 460 850 478 872 q 417 729 442 827 l 335 402 m 265 82 q 375 28 319 28 q 518 156 456 28 q 579 403 579 283 q 562 461 579 441 q 515 481 545 481 q 442 450 483 481 q 346 351 379 400 q 301 229 322 316 l 265 82 z "},"":{"ha":833,"x_min":241,"x_max":842,"o":"m 241 436 l 842 436 l 842 361 l 241 361 l 241 436 z "},"":{"ha":722,"x_min":233,"x_max":737,"o":"m 538 397 l 737 198 l 684 145 l 486 344 l 287 145 l 233 198 l 433 397 l 233 596 l 286 649 l 486 450 l 684 649 l 737 595 l 538 397 z "},"":{"ha":367,"x_min":151,"x_max":441,"o":"m 441 818 l 411 712 q 380 605 389 640 l 355 510 q 333 425 333 436 q 337 416 333 418 q 406 407 342 414 l 395 382 q 269 390 305 390 q 151 380 220 390 l 161 407 q 242 427 232 419 q 262 461 252 434 q 315 635 294 547 l 332 701 q 336 724 336 716 q 330 730 336 730 q 247 699 321 730 l 235 725 q 340 769 303 749 q 416 818 376 788 l 441 818 z "},"":{"ha":367,"x_min":123,"x_max":473,"o":"m 237 699 l 204 713 q 273 792 237 770 q 355 814 309 814 q 440 786 407 814 q 473 718 473 757 q 463 672 473 695 q 425 621 452 648 q 334 547 410 604 q 208 439 242 478 q 309 441 275 441 l 344 441 q 372 446 364 441 q 404 485 380 451 l 449 485 q 387 380 411 440 q 254 390 324 390 q 123 385 216 390 l 133 412 q 245 522 170 460 q 353 622 326 587 q 388 705 388 668 q 371 751 388 734 q 328 769 354 769 q 284 754 306 769 q 237 699 263 740 z "},"":{"ha":367,"x_min":132,"x_max":453,"o":"m 253 720 l 225 736 q 366 812 296 812 q 430 794 406 812 q 453 750 453 776 q 435 699 453 724 q 366 638 410 665 q 425 612 404 634 q 446 557 446 590 q 376 436 446 494 q 222 378 307 378 q 153 395 180 378 q 132 425 132 408 q 140 442 132 435 q 162 449 149 449 q 201 429 178 449 q 245 409 227 409 q 322 451 281 409 q 363 539 363 494 q 348 581 363 566 q 309 596 334 596 q 252 585 287 596 l 256 616 q 350 671 310 633 q 377 726 377 698 q 367 755 377 745 q 338 766 356 766 q 253 720 296 766 z "},"":{"ha":917,"x_min":201,"x_max":904,"o":"m 492 818 l 461 712 q 430 605 439 640 l 405 510 q 383 425 383 436 q 388 416 383 418 q 456 407 392 414 l 445 382 q 319 390 355 390 q 201 380 271 390 l 211 407 q 292 427 282 419 q 313 461 302 434 q 366 635 345 547 l 382 701 q 387 724 387 716 q 380 730 387 730 q 297 699 371 730 l 285 725 q 390 769 353 749 q 466 818 427 788 l 492 818 m 317 -5 q 417 166 375 92 l 665 618 q 767 812 725 729 q 821 803 784 808 q 704 601 759 702 l 486 204 q 375 -10 427 96 q 317 -5 347 -6 m 668 310 l 635 324 q 704 404 668 381 q 786 426 739 426 q 871 397 838 426 q 904 330 904 368 q 893 283 904 307 q 856 232 883 260 q 764 159 840 215 q 638 51 673 90 q 740 52 705 52 l 774 52 q 803 57 795 52 q 835 96 810 62 l 880 96 q 817 -9 842 52 q 685 1 755 1 q 553 -4 647 1 l 564 24 q 676 133 601 72 q 783 233 757 198 q 819 316 819 279 q 802 363 819 345 q 758 380 785 380 q 715 366 736 380 q 668 310 694 351 z "},"":{"ha":917,"x_min":204,"x_max":904,"o":"m 495 818 l 465 712 q 433 605 443 640 l 408 510 q 387 425 387 436 q 391 416 387 418 q 460 407 395 414 l 448 382 q 323 390 359 390 q 204 380 274 390 l 214 407 q 296 427 286 419 q 316 461 306 434 q 369 635 348 547 l 386 701 q 390 724 390 716 q 383 730 390 730 q 300 699 374 730 l 288 725 q 393 769 357 749 q 469 818 430 788 l 495 818 m 321 -5 q 420 166 378 92 l 668 618 q 770 812 728 729 q 825 803 787 808 q 707 601 762 702 l 490 204 q 378 -10 430 96 q 321 -5 351 -6 m 886 148 l 875 105 l 813 105 l 784 -10 l 711 -10 l 741 105 q 584 104 631 106 q 558 115 558 102 q 612 192 558 131 q 880 426 718 312 l 904 426 q 863 292 899 412 l 824 148 l 886 148 m 751 150 q 799 321 767 212 q 625 150 703 246 l 751 150 z "},"":{"ha":917,"x_min":193,"x_max":912,"o":"m 314 720 l 286 736 q 427 812 357 812 q 491 794 467 812 q 514 750 514 776 q 496 699 514 724 q 427 638 471 665 q 486 612 465 634 q 507 557 507 590 q 437 436 507 494 q 283 378 368 378 q 214 395 241 378 q 193 425 193 408 q 201 442 193 435 q 223 449 210 449 q 262 429 239 449 q 306 409 288 409 q 383 451 342 409 q 424 539 424 494 q 409 581 424 566 q 370 596 395 596 q 313 585 348 596 l 317 616 q 411 671 371 633 q 438 726 438 698 q 428 755 438 745 q 399 766 417 766 q 314 720 357 766 m 328 -5 q 428 166 386 92 l 675 618 q 778 812 736 729 q 832 803 795 808 q 715 601 770 702 l 497 204 q 386 -10 437 96 q 328 -5 358 -6 m 894 148 l 883 105 l 821 105 l 792 -10 l 720 -10 l 749 105 q 592 104 639 106 q 566 115 566 102 q 620 192 566 131 q 888 426 726 312 l 912 426 q 871 292 907 412 l 832 148 l 894 148 m 759 150 q 807 321 775 212 q 633 150 711 246 l 759 150 z "},"":{"ha":804,"x_min":155,"x_max":966,"o":"m 492 212 l 633 212 l 623 168 l 479 168 q 436 37 458 96 q 533 28 490 28 q 588 33 561 28 l 576 -5 q 540 -8 557 -8 q 446 -3 525 -8 q 367 0 399 0 q 227 -12 301 0 l 235 25 q 309 49 290 37 q 340 80 329 61 q 372 168 352 100 l 259 168 l 269 212 l 385 212 l 428 363 l 526 749 q 367 709 435 747 q 259 607 299 671 q 218 477 218 543 q 225 422 218 450 q 244 378 229 407 q 264 328 264 342 q 252 303 264 313 q 222 292 241 292 q 178 321 195 292 q 155 429 155 359 q 262 680 155 565 q 543 793 368 793 l 803 793 q 899 799 846 793 q 966 813 914 800 q 924 632 931 671 l 888 632 q 899 705 899 689 q 884 739 899 728 q 825 749 868 749 l 781 749 l 767 749 l 631 749 q 610 670 627 734 q 554 454 573 538 l 686 454 q 749 464 734 454 q 770 503 763 473 q 772 512 771 507 l 809 512 q 772 334 788 427 l 735 334 q 740 379 740 372 q 724 404 740 395 q 672 410 714 408 l 543 410 q 492 212 523 315 z "},"":{"ha":861,"x_min":176,"x_max":940,"o":"m 903 540 l 866 540 q 869 596 869 572 q 822 730 869 688 q 706 772 775 772 q 514 707 610 772 q 356 526 418 642 q 295 284 295 410 q 356 96 295 156 q 492 35 416 35 q 577 47 536 35 q 656 82 618 59 q 687 224 687 189 q 674 251 687 241 q 630 260 662 260 q 578 257 619 260 l 584 290 q 644 296 614 296 q 705 294 669 296 q 746 294 732 294 q 821 298 770 294 q 866 300 847 300 l 859 266 q 810 251 825 267 q 781 172 796 236 q 671 -163 725 -60 q 547 -312 616 -267 q 398 -357 478 -357 q 289 -326 330 -357 q 247 -261 247 -295 q 260 -230 247 -243 q 290 -217 273 -217 q 342 -250 313 -217 q 394 -297 376 -286 q 434 -308 413 -308 q 509 -275 477 -308 q 640 30 576 -209 q 549 -7 595 5 q 455 -20 503 -20 q 267 43 336 -20 q 176 278 176 127 q 245 536 176 415 q 438 734 315 656 q 673 812 562 812 q 815 793 734 812 q 940 774 897 775 q 903 540 903 646 m 581 1087 l 617 1087 q 631 1029 625 1040 q 663 1001 641 1013 q 714 990 686 990 q 809 1019 764 990 q 873 1087 837 1036 l 913 1087 q 811 946 865 993 q 696 899 758 899 q 613 940 646 899 q 581 1065 581 981 q 581 1087 581 1072 z "},"":{"ha":555,"x_min":-18,"x_max":681,"o":"m 574 575 l 629 587 q 538 269 580 429 q 497 79 509 155 q 490 -17 491 41 q 469 -174 489 -115 q 362 -309 440 -258 q 178 -359 285 -359 q 34 -316 87 -359 q -18 -218 -18 -273 q 24 -115 -18 -163 q 154 -28 55 -79 q 248 26 204 -2 q 170 0 198 0 q 126 23 145 0 q 106 85 106 47 q 181 333 106 210 q 359 518 255 456 q 521 556 424 556 q 568 555 540 556 l 574 575 m 498 475 q 441 481 466 481 q 330 447 376 481 q 252 333 284 413 q 206 142 206 220 q 224 89 206 111 q 264 67 242 67 q 332 93 292 67 q 397 159 372 119 q 449 294 422 198 l 498 475 m 406 105 q 229 -27 360 64 q 86 -140 113 -106 q 60 -215 60 -176 q 94 -284 60 -254 q 177 -315 128 -315 q 267 -293 223 -315 q 342 -227 310 -270 q 387 -130 374 -184 q 399 14 399 -75 q 406 105 400 34 m 349 842 l 385 842 q 399 784 393 794 q 431 756 409 767 q 482 745 454 745 q 577 773 532 745 q 642 842 605 791 l 681 842 q 579 700 633 747 q 465 653 526 653 q 381 694 414 653 q 349 820 349 735 q 349 842 349 827 z "},"":{"ha":528,"x_min":94,"x_max":658,"o":"m 658 802 l 646 766 q 545 747 570 761 q 517 718 528 737 q 442 459 505 694 q 338 37 422 382 q 458 23 386 21 l 448 -9 q 361 -4 426 -10 q 252 0 314 0 q 94 -13 165 0 l 102 23 q 215 53 176 35 q 230 64 224 58 q 252 114 240 77 q 333 416 264 151 q 416 751 353 492 q 301 738 369 752 l 314 775 q 372 786 342 783 q 507 791 402 789 q 658 802 606 794 m 518 1054 q 567 1034 547 1054 q 587 985 587 1014 q 567 936 587 956 q 518 916 547 916 q 469 936 490 916 q 449 985 449 956 q 469 1034 449 1014 q 518 1054 490 1054 z "},"":{"ha":639,"x_min":26,"x_max":743,"o":"m 698 550 l 663 550 q 670 658 670 621 q 642 740 670 710 q 566 770 614 770 q 435 716 491 770 q 380 595 380 663 q 395 530 380 559 q 463 449 410 501 q 588 302 558 355 q 618 199 618 250 q 573 57 618 125 q 440 -56 528 -12 q 254 -100 352 -100 q 92 -50 158 -100 q 26 56 26 0 q 43 105 26 85 q 83 125 60 125 q 121 106 106 125 q 140 58 130 96 q 166 -9 151 12 q 209 -43 182 -30 q 269 -56 237 -56 q 439 9 366 -56 q 511 154 511 75 q 502 208 511 181 q 469 269 493 235 q 393 350 452 292 q 321 428 336 407 q 290 489 300 458 q 279 551 279 520 q 321 675 279 612 q 428 774 362 737 q 578 811 494 811 q 682 798 621 811 q 743 788 718 791 q 720 705 728 744 q 698 550 712 666 m 241 -73 l 286 -73 l 244 -150 q 300 -175 282 -155 q 318 -222 318 -195 q 260 -318 318 -270 q 98 -384 203 -367 l 111 -343 q 211 -298 173 -330 q 237 -247 237 -275 q 220 -211 237 -225 q 179 -196 203 -196 q 168 -197 175 -196 l 241 -73 z "},"":{"ha":444,"x_min":88,"x_max":542,"o":"m 416 571 q 509 548 476 571 q 542 494 542 524 q 528 462 542 475 q 494 448 514 448 q 472 454 481 448 q 445 483 463 460 q 379 527 412 527 q 330 506 351 527 q 309 452 309 484 q 322 398 309 425 q 391 314 336 372 q 466 162 466 234 q 405 36 466 90 q 248 -18 344 -18 q 127 15 167 -18 q 88 96 88 48 q 103 136 88 120 q 140 151 118 151 q 172 139 159 151 q 186 109 186 126 q 184 92 186 102 q 184 77 184 83 q 203 39 184 54 q 253 23 221 23 q 317 36 290 23 q 361 74 345 48 q 376 124 376 99 q 362 173 376 149 q 296 254 347 197 q 226 405 226 332 q 279 521 226 471 q 416 571 333 571 m 256 13 l 300 13 l 258 -64 q 314 -89 296 -69 q 332 -136 332 -109 q 275 -232 332 -184 q 112 -298 217 -281 l 125 -257 q 225 -212 187 -244 q 252 -161 252 -189 q 235 -124 252 -139 q 193 -110 218 -110 q 182 -111 189 -110 l 256 13 z "},"":{"ha":722,"x_min":133,"x_max":852,"o":"m 808 518 l 772 518 q 775 603 775 571 q 735 736 775 699 q 635 774 696 774 q 468 708 555 774 q 319 504 381 643 q 256 219 256 366 q 314 2 256 77 q 460 -74 372 -74 q 677 68 578 -74 q 699 83 688 83 q 713 77 707 83 q 720 64 720 71 q 674 -8 720 45 q 561 -97 629 -62 q 426 -133 492 -133 q 277 -91 346 -133 q 171 28 209 -50 q 133 212 133 105 q 211 507 133 360 q 405 734 288 654 q 633 814 522 814 q 712 806 673 814 q 852 759 729 802 q 808 518 813 642 m 693 1095 l 822 1095 l 592 899 l 552 899 l 693 1095 z "},"":{"ha":472,"x_min":119,"x_max":637,"o":"m 490 147 l 505 108 q 232 -19 343 -19 q 146 23 173 -19 q 119 130 119 65 q 176 350 119 237 q 315 524 233 463 q 458 570 378 570 q 534 551 509 570 q 560 505 560 532 q 547 471 560 484 q 509 458 533 458 q 448 479 485 458 q 383 503 409 503 q 317 472 350 503 q 254 355 284 442 q 224 181 224 269 q 250 81 224 117 q 301 54 268 54 q 490 147 380 54 m 509 850 l 637 850 l 408 653 l 368 653 l 509 850 z "},"":{"ha":722,"x_min":133,"x_max":861,"o":"m 808 518 l 772 518 q 775 603 775 571 q 735 736 775 699 q 635 774 696 774 q 468 708 555 774 q 319 504 381 643 q 256 219 256 366 q 314 2 256 77 q 460 -74 372 -74 q 677 68 578 -74 q 699 83 688 83 q 713 77 707 83 q 720 64 720 71 q 674 -8 720 45 q 561 -97 629 -62 q 426 -133 492 -133 q 277 -91 346 -133 q 171 28 209 -50 q 133 212 133 105 q 211 507 133 360 q 405 734 288 654 q 633 814 522 814 q 712 806 673 814 q 852 759 729 802 q 808 518 813 642 m 528 1097 l 570 1097 l 636 975 l 821 1097 l 861 1097 l 682 900 l 578 900 l 528 1097 z "},"":{"ha":472,"x_min":119,"x_max":679,"o":"m 490 147 l 505 108 q 232 -19 343 -19 q 146 23 173 -19 q 119 130 119 65 q 176 350 119 237 q 315 524 233 463 q 458 570 378 570 q 534 551 509 570 q 560 505 560 532 q 547 471 560 484 q 509 458 533 458 q 448 479 485 458 q 383 503 409 503 q 317 472 350 503 q 254 355 284 442 q 224 181 224 269 q 250 81 224 117 q 301 54 268 54 q 490 147 380 54 m 347 851 l 388 851 l 454 728 l 640 851 l 679 851 l 500 654 l 396 654 l 347 851 z "},"":{"ha":611,"x_min":104,"x_max":923,"o":"m 546 692 l 379 692 l 390 735 l 562 735 q 637 852 590 803 q 745 928 684 901 q 863 955 807 955 q 907 941 890 955 q 923 905 923 926 q 908 870 923 884 q 867 857 893 857 q 804 864 850 857 q 741 871 758 871 q 692 849 712 871 q 656 765 672 827 l 649 735 l 827 735 l 817 692 l 638 692 l 616 599 l 519 189 q 503 93 503 117 q 522 67 503 67 q 551 76 534 67 q 640 140 574 89 l 659 115 q 524 13 568 38 q 428 -22 463 -22 q 401 -13 412 -22 q 391 8 391 -3 q 399 46 391 20 l 422 129 q 287 10 341 41 q 189 -21 233 -21 q 129 11 153 -21 q 104 103 104 42 q 171 325 104 199 q 318 510 237 450 q 466 570 399 570 q 511 565 481 570 q 546 692 530 644 m 496 490 q 420 503 442 503 q 331 467 374 503 q 247 329 288 431 q 207 151 207 227 q 225 94 207 116 q 268 72 244 72 q 333 97 296 72 q 416 188 385 134 q 465 354 434 222 l 496 490 z "},"":{"ha":694,"x_min":197,"x_max":907,"o":"m 197 932 l 907 932 l 907 863 l 197 863 l 197 932 z "},"":{"ha":463,"x_min":377,"x_max":503,"o":"m 440 778 q 485 760 466 778 q 503 715 503 741 q 485 670 503 689 q 440 652 466 652 q 396 670 414 652 q 377 715 377 689 q 396 760 377 741 q 440 778 414 778 z "},"":{"ha":367,"x_min":142,"x_max":488,"o":"m 470 536 l 459 494 l 397 494 l 368 378 l 296 378 l 325 494 q 168 492 215 495 q 142 503 142 491 q 196 581 142 519 q 464 814 302 701 l 488 814 q 448 680 484 801 l 408 536 l 470 536 m 335 538 q 383 710 351 601 q 210 538 287 635 l 335 538 z "},"":{"ha":861,"x_min":-71,"x_max":996,"o":"m 881 30 l 874 -9 q 831 -11 850 -11 q 768 -7 805 -11 q 687 0 704 0 q 600 -9 659 0 q 635 102 621 44 q 656 245 645 144 q 410 241 577 245 q 158 -89 238 -22 q 5 -157 77 -157 q -52 -142 -33 -157 q -71 -104 -71 -127 q -60 -75 -71 -87 q -33 -64 -49 -64 q -7 -67 -23 -64 q 47 -77 34 -77 q 148 -25 93 -77 q 412 328 237 59 q 733 770 610 631 q 524 741 566 755 q 439 687 467 723 q 410 614 410 651 q 419 579 410 602 q 429 543 429 554 q 417 516 429 528 q 389 505 406 505 q 352 522 366 505 q 338 574 338 539 q 364 668 338 623 q 437 745 389 714 q 555 792 484 776 q 684 808 592 801 q 785 821 764 814 q 846 855 817 829 q 817 709 825 772 l 764 317 l 733 37 q 823 24 783 24 q 881 30 850 24 m 663 295 q 728 697 695 570 q 621 553 642 583 l 447 295 q 608 293 503 293 q 663 295 633 293 m 665 1087 l 701 1087 q 714 1029 708 1040 q 747 1001 724 1013 q 798 990 769 990 q 892 1019 847 990 q 957 1087 920 1036 l 996 1087 q 895 946 949 993 q 780 899 841 899 q 696 940 729 899 q 664 1065 664 981 q 665 1087 664 1072 z "},"":{"ha":583,"x_min":102,"x_max":701,"o":"m 581 582 l 625 591 l 574 420 q 517 184 544 317 q 502 90 502 111 q 519 69 502 69 q 553 83 530 69 q 634 146 595 109 l 656 119 q 557 34 578 49 q 474 -10 513 4 q 424 -20 448 -20 q 397 -12 406 -20 q 389 12 389 -3 q 394 40 389 22 l 421 132 q 282 12 363 62 q 191 -19 233 -19 q 131 9 152 -19 q 102 106 102 46 q 141 267 102 178 q 243 427 179 355 q 379 532 308 498 q 520 558 434 558 q 564 555 542 558 l 581 582 m 496 478 q 435 486 460 486 q 328 452 374 486 q 244 331 283 418 q 205 157 205 244 q 220 91 205 111 q 261 71 236 71 q 361 121 308 71 q 440 267 415 172 l 496 478 m 369 842 l 405 842 q 418 784 412 794 q 451 756 429 767 q 502 745 473 745 q 597 773 551 745 q 661 842 625 791 l 701 842 q 599 700 653 747 q 484 653 545 653 q 401 694 433 653 q 368 820 368 735 q 369 842 368 827 z "},"":{"ha":861,"x_min":-71,"x_max":881,"o":"m 881 30 l 874 -9 q 831 -11 850 -11 q 768 -7 805 -11 q 687 0 704 0 q 600 -9 659 0 q 635 102 621 44 q 656 245 645 144 q 410 241 577 245 q 158 -89 238 -22 q 5 -157 77 -157 q -52 -142 -33 -157 q -71 -104 -71 -127 q -60 -75 -71 -87 q -33 -64 -49 -64 q -7 -67 -23 -64 q 47 -77 34 -77 q 148 -25 93 -77 q 412 328 237 59 q 733 770 610 631 q 524 741 566 755 q 439 687 467 723 q 410 614 410 651 q 419 579 410 602 q 429 543 429 554 q 417 516 429 528 q 389 505 406 505 q 352 522 366 505 q 338 574 338 539 q 364 668 338 623 q 437 745 389 714 q 555 792 484 776 q 684 808 592 801 q 785 821 764 814 q 846 855 817 829 q 817 709 825 772 l 764 317 l 733 37 q 823 24 783 24 q 881 30 850 24 m 663 295 q 728 697 695 570 q 621 553 642 583 l 447 295 q 608 293 503 293 q 663 295 633 293 m 625 11 l 672 11 q 628 -119 628 -58 q 652 -181 628 -157 q 717 -205 677 -205 q 757 -203 732 -205 l 739 -243 q 656 -255 690 -255 q 583 -229 610 -255 q 555 -166 555 -203 q 625 11 555 -94 z "},"":{"ha":583,"x_min":102,"x_max":656,"o":"m 581 582 l 625 591 l 574 420 q 517 184 544 317 q 502 90 502 111 q 519 69 502 69 q 553 83 530 69 q 634 146 595 109 l 656 119 q 557 34 578 49 q 474 -10 513 4 q 424 -20 448 -20 q 397 -12 406 -20 q 389 12 389 -3 q 394 40 389 22 l 421 132 q 282 12 363 62 q 191 -19 233 -19 q 131 9 152 -19 q 102 106 102 46 q 141 267 102 178 q 243 427 179 355 q 379 532 308 498 q 520 558 434 558 q 564 555 542 558 l 581 582 m 496 478 q 435 486 460 486 q 328 452 374 486 q 244 331 283 418 q 205 157 205 244 q 220 91 205 111 q 261 71 236 71 q 361 121 308 71 q 440 267 415 172 l 496 478 m 416 11 l 463 11 q 419 -119 419 -58 q 444 -181 419 -157 q 508 -205 468 -205 q 548 -203 524 -205 l 530 -243 q 447 -255 481 -255 q 374 -229 401 -255 q 347 -166 347 -203 q 416 11 347 -94 z "},"":{"ha":972,"x_min":96,"x_max":1044,"o":"m 441 652 l 448 682 q 622 711 522 688 q 570 541 593 636 l 526 351 q 417 42 477 146 q 520 31 475 31 q 727 80 639 31 q 867 226 815 130 q 919 437 919 321 q 831 680 919 588 q 600 772 743 772 q 374 715 480 772 q 205 564 267 658 q 143 381 143 470 q 219 254 143 294 q 247 233 241 241 q 254 211 254 224 q 241 182 254 195 q 212 170 229 170 q 142 217 176 170 q 96 353 96 283 q 166 579 96 470 q 359 752 235 688 q 635 817 484 817 q 933 716 823 817 q 1044 465 1044 616 q 967 207 1044 325 q 780 40 890 90 q 562 -10 671 -10 q 439 -3 526 -10 q 300 2 366 2 q 208 0 270 2 l 223 33 q 301 44 286 37 q 327 69 316 52 q 380 205 347 100 l 427 382 l 481 603 q 486 631 486 619 q 479 648 486 642 q 460 654 472 654 q 441 652 455 654 m 630 1097 l 671 1097 l 738 975 l 923 1097 l 962 1097 l 783 900 l 680 900 l 630 1097 z "},"":{"ha":670,"x_min":104,"x_max":1027,"o":"m 865 631 l 854 674 q 937 804 937 739 q 920 849 937 819 q 907 895 907 873 q 924 939 907 921 q 966 957 940 957 q 1011 936 994 957 q 1027 884 1027 914 q 975 743 1027 817 q 865 631 922 669 m 640 140 l 659 115 q 428 -22 503 -22 q 391 9 391 -22 q 399 46 391 19 l 422 129 q 189 -21 283 -21 q 131 8 157 -21 q 104 103 104 37 q 178 337 104 209 q 328 517 251 465 q 466 570 405 570 q 511 565 481 570 q 643 876 565 796 q 798 955 720 955 q 840 942 823 955 q 858 905 858 928 q 808 859 858 859 q 764 869 793 859 q 730 879 738 879 q 677 829 699 879 q 620 616 654 779 q 616 599 618 609 l 519 189 q 503 95 503 116 q 523 66 503 66 q 640 140 546 66 m 496 490 q 419 503 442 503 q 267 374 326 503 q 207 150 207 245 q 224 95 207 119 q 268 72 241 72 q 348 109 301 72 q 415 186 394 146 q 465 354 435 227 l 496 490 z "},"":{"ha":972,"x_min":96,"x_max":1044,"o":"m 435 413 q 456 498 442 437 q 481 603 471 560 q 486 631 486 619 q 479 648 486 642 q 460 654 472 654 q 441 652 455 654 l 448 682 q 622 711 522 688 q 570 541 580 582 l 541 413 l 783 413 l 772 370 l 530 370 q 470 165 503 254 q 417 42 437 77 q 520 31 475 31 q 727 80 639 31 q 867 226 815 130 q 919 437 919 321 q 831 680 919 588 q 600 772 743 772 q 374 715 480 772 q 205 564 267 658 q 143 380 143 470 q 219 254 143 295 q 247 233 241 241 q 254 212 254 224 q 240 182 254 195 q 212 169 227 169 q 142 218 176 169 q 96 353 96 283 q 166 579 96 470 q 359 752 235 688 q 635 817 484 817 q 933 716 823 817 q 1044 465 1044 616 q 967 207 1044 325 q 780 40 890 90 q 562 -10 671 -10 q 439 -3 526 -10 q 300 2 366 2 q 208 0 270 2 l 223 33 q 302 45 286 37 q 334 80 319 54 q 386 223 355 121 l 424 370 l 270 370 l 280 413 l 435 413 z "},"":{"ha":861,"x_min":92,"x_max":924,"o":"m 890 650 l 854 650 q 859 705 859 685 q 837 741 859 732 q 665 749 814 749 l 566 749 l 491 449 l 631 449 q 713 459 698 449 q 735 508 728 469 l 774 508 q 735 328 752 426 l 701 328 q 704 377 704 359 q 694 395 704 385 q 677 403 690 401 q 620 406 659 406 l 481 406 q 355 45 420 176 q 467 64 418 64 q 667 39 549 64 q 751 24 729 24 q 800 39 781 24 q 818 73 818 54 q 809 109 818 84 q 804 140 804 125 q 816 168 804 156 q 846 180 829 180 q 881 164 867 180 q 895 121 895 148 q 845 20 895 63 q 711 -24 794 -24 q 602 -16 668 -24 q 379 0 456 0 q 144 -16 279 0 l 155 21 q 250 54 235 43 q 273 85 264 64 q 358 343 306 149 q 463 753 410 537 q 309 714 382 753 q 196 613 237 675 q 155 483 155 551 q 161 432 155 454 q 187 371 167 410 q 200 332 200 347 q 188 306 200 317 q 157 294 175 294 q 115 321 130 294 q 92 426 92 359 q 199 682 92 568 q 513 795 307 795 l 746 795 q 924 810 867 795 q 890 650 897 698 m 749 11 l 795 11 q 751 -119 751 -58 q 776 -181 751 -157 q 840 -205 800 -205 q 880 -203 856 -205 l 862 -243 q 779 -255 814 -255 q 706 -229 734 -255 q 679 -166 679 -203 q 749 11 679 -94 z "},"":{"ha":472,"x_min":112,"x_max":536,"o":"m 473 170 l 496 140 q 211 -18 330 -18 q 137 15 163 -18 q 112 119 112 47 q 200 408 112 264 q 437 572 299 572 q 510 548 485 572 q 536 481 536 524 q 505 395 536 437 q 396 306 475 352 q 228 225 357 283 q 222 155 222 189 q 237 88 222 107 q 281 69 252 69 q 342 85 309 69 q 473 170 387 106 m 236 269 q 400 374 345 317 q 437 452 437 413 q 422 498 437 481 q 382 515 407 515 q 334 496 357 515 q 280 420 302 471 q 236 269 249 346 m 225 11 l 272 11 q 228 -119 228 -58 q 252 -181 228 -157 q 317 -205 277 -205 q 357 -203 332 -205 l 338 -243 q 256 -255 290 -255 q 183 -229 210 -255 q 155 -166 155 -203 q 225 11 155 -94 z "},"":{"ha":861,"x_min":92,"x_max":924,"o":"m 890 650 l 854 650 q 859 705 859 685 q 837 741 859 732 q 665 749 814 749 l 566 749 l 491 449 l 631 449 q 713 459 698 449 q 735 508 728 469 l 774 508 q 735 328 752 426 l 701 328 q 704 377 704 359 q 694 395 704 385 q 677 403 690 401 q 620 406 659 406 l 481 406 q 355 45 420 176 q 467 64 418 64 q 667 39 549 64 q 751 24 729 24 q 800 39 781 24 q 818 73 818 54 q 809 109 818 84 q 804 140 804 125 q 816 168 804 156 q 846 180 829 180 q 881 164 867 180 q 895 121 895 148 q 845 20 895 63 q 711 -24 794 -24 q 602 -16 668 -24 q 379 0 456 0 q 144 -16 279 0 l 155 21 q 250 54 235 43 q 273 85 264 64 q 358 343 306 149 q 463 753 410 537 q 309 714 382 753 q 196 613 237 675 q 155 483 155 551 q 161 432 155 454 q 187 371 167 410 q 200 332 200 347 q 188 306 200 317 q 157 294 175 294 q 115 321 130 294 q 92 426 92 359 q 199 682 92 568 q 513 795 307 795 l 746 795 q 924 810 867 795 q 890 650 897 698 m 570 1097 l 611 1097 l 677 975 l 863 1097 l 902 1097 l 723 900 l 619 900 l 570 1097 z "},"":{"ha":472,"x_min":112,"x_max":661,"o":"m 473 170 l 496 140 q 211 -18 330 -18 q 137 15 163 -18 q 112 119 112 47 q 200 408 112 264 q 437 572 299 572 q 510 548 485 572 q 536 481 536 524 q 505 395 536 437 q 396 306 475 352 q 228 225 357 283 q 222 155 222 189 q 237 88 222 107 q 281 69 252 69 q 342 85 309 69 q 473 170 387 106 m 236 269 q 400 374 345 317 q 437 452 437 413 q 422 498 437 481 q 382 515 407 515 q 334 496 357 515 q 280 420 302 471 q 236 269 249 346 m 328 851 l 370 851 l 436 728 l 621 851 l 661 851 l 481 654 l 378 654 l 328 851 z "},"":{"ha":1083,"x_min":94,"x_max":1209,"o":"m 658 802 l 646 766 q 522 728 548 763 q 340 42 496 693 q 437 28 379 28 l 460 28 l 448 -9 l 437 -9 q 361 -4 421 -9 q 252 0 314 0 q 94 -13 161 0 l 101 20 q 235 69 220 41 q 317 354 251 97 l 416 751 l 397 751 q 301 738 366 751 l 314 775 q 507 791 353 787 q 658 802 612 795 m 1209 800 q 1103 494 1161 696 l 1003 141 q 866 -109 954 -32 q 679 -186 779 -186 q 573 -157 617 -186 q 528 -89 528 -128 q 540 -59 528 -73 q 568 -46 552 -46 q 618 -74 591 -46 q 726 -136 677 -136 q 780 -116 758 -136 q 820 -69 802 -96 q 901 158 838 -43 q 1019 550 965 359 l 1078 756 l 1045 758 q 870 707 943 758 q 797 596 797 657 q 814 549 797 576 q 830 511 830 525 q 817 480 830 494 q 785 467 804 467 q 731 549 731 467 q 786 690 731 626 q 918 777 841 753 q 1116 801 994 801 q 1209 800 1133 801 z "},"":{"ha":639,"x_min":109,"x_max":795,"o":"m 407 862 q 441 848 428 862 q 454 812 454 834 q 436 762 454 787 q 388 737 418 737 q 354 752 367 737 q 340 789 340 766 q 360 840 340 819 q 407 862 379 862 m 747 862 q 782 848 769 862 q 795 812 795 834 q 776 761 795 785 q 729 737 757 737 q 694 752 707 737 q 681 789 681 766 q 701 840 681 819 q 747 862 720 862 m 474 410 l 452 437 q 579 538 512 503 q 678 574 646 574 q 713 537 713 574 q 703 488 713 526 l 575 17 q 456 -264 524 -172 q 277 -355 388 -355 q 205 -338 231 -355 q 179 -296 179 -320 q 191 -269 179 -280 q 220 -257 203 -257 q 274 -275 239 -257 q 336 -295 315 -295 q 399 -256 377 -295 q 463 -47 420 -217 q 588 425 542 273 q 602 476 602 469 q 586 491 602 491 q 474 410 555 491 m 136 414 l 109 437 q 330 574 237 574 q 374 538 374 574 q 330 372 374 519 q 258 83 258 130 q 275 59 258 59 q 385 141 294 59 l 410 117 q 204 -19 271 -19 q 153 38 153 -19 q 247 424 153 119 q 260 476 260 468 q 246 493 260 493 q 136 414 215 493 z "},"":{"ha":806,"x_min":66,"x_max":852,"o":"m 66 -12 l 75 25 q 170 56 146 39 q 213 119 194 74 q 266 305 233 164 q 346 574 310 492 q 483 757 401 697 q 648 817 564 817 q 738 789 701 817 q 774 733 774 762 q 763 705 774 717 q 736 694 752 694 q 687 720 716 694 q 636 758 654 749 q 602 766 618 766 q 563 755 582 766 q 506 699 536 741 q 444 575 476 657 q 390 392 422 519 q 313 123 339 189 q 267 44 294 75 q 421 66 363 66 q 488 61 457 66 q 594 39 518 57 q 686 24 660 24 q 730 40 712 24 q 748 76 748 56 q 739 112 748 89 q 730 146 730 134 q 741 175 730 165 q 769 186 751 186 q 804 168 789 186 q 818 119 818 150 q 769 17 818 60 q 637 -26 720 -26 q 530 -20 595 -26 q 243 0 311 0 q 66 -12 143 0 m 723 1095 l 852 1095 l 622 899 l 582 899 l 723 1095 z "},"":{"ha":333,"x_min":131,"x_max":659,"o":"m 530 1095 l 659 1095 l 480 976 l 431 976 l 530 1095 m 400 163 l 423 139 q 303 35 378 88 q 179 -19 229 -19 q 131 41 131 -19 q 173 266 131 95 l 246 564 q 320 792 286 722 q 431 909 354 862 q 595 956 509 956 q 641 942 625 956 q 657 908 657 928 q 593 859 657 859 q 536 865 573 859 q 475 871 503 871 q 427 853 444 871 q 387 752 410 836 q 349 600 363 667 q 346 585 347 593 l 248 170 q 229 77 229 88 q 245 56 229 56 q 316 93 266 56 q 400 163 367 130 z "},"":{"ha":806,"x_min":66,"x_max":933,"o":"m 768 527 l 758 563 q 853 681 853 637 q 840 722 853 697 q 827 764 827 748 q 841 801 827 785 q 877 817 856 817 q 918 796 903 817 q 933 753 933 775 q 768 527 933 640 m 66 -12 l 75 25 q 172 58 146 39 q 219 134 199 77 q 266 305 239 191 q 356 595 310 492 q 483 757 401 697 q 648 817 564 817 q 737 790 700 817 q 774 733 774 763 q 763 705 774 717 q 736 694 751 694 q 687 720 716 694 q 602 766 635 766 q 493 679 547 766 q 390 392 440 592 q 321 145 346 215 q 267 44 297 75 q 421 66 359 66 q 594 39 482 66 q 686 24 660 24 q 730 39 712 24 q 748 76 748 55 q 739 112 748 89 q 730 146 730 134 q 769 186 730 186 q 804 167 791 186 q 818 119 818 149 q 771 19 818 64 q 637 -26 725 -26 q 530 -20 595 -26 q 243 0 315 0 q 66 -12 143 0 z "},"":{"ha":469,"x_min":131,"x_max":760,"o":"m 598 629 l 587 673 q 669 804 669 749 q 653 849 669 819 q 640 895 640 873 q 656 939 640 921 q 699 957 673 957 q 744 936 727 957 q 760 884 760 914 q 731 778 760 836 q 598 629 701 720 m 245 564 q 375 872 300 789 q 531 956 450 956 q 573 942 555 956 q 591 905 591 929 q 541 859 591 859 q 497 870 526 859 q 463 880 471 880 q 409 829 431 880 q 349 600 387 778 q 346 585 348 594 l 250 180 q 229 77 229 90 q 245 56 229 56 q 305 84 260 56 q 400 163 349 113 l 423 139 q 303 35 378 88 q 179 -19 229 -19 q 131 42 131 -19 q 173 266 131 92 l 245 564 z "},"":{"ha":806,"x_min":66,"x_max":818,"o":"m 66 -12 l 75 25 q 170 56 146 39 q 213 119 194 74 q 266 305 233 164 q 346 574 310 492 q 483 757 401 697 q 648 817 564 817 q 738 789 701 817 q 774 733 774 762 q 763 705 774 717 q 736 694 752 694 q 687 720 716 694 q 636 758 654 749 q 602 766 618 766 q 563 755 582 766 q 506 699 536 741 q 444 575 476 657 q 390 392 422 519 q 313 123 339 189 q 267 44 294 75 q 421 66 363 66 q 488 61 457 66 q 594 39 518 57 q 686 24 660 24 q 730 40 712 24 q 748 76 748 56 q 739 112 748 89 q 730 146 730 134 q 741 175 730 165 q 769 186 751 186 q 804 168 789 186 q 818 119 818 150 q 769 17 818 60 q 637 -26 720 -26 q 530 -20 595 -26 q 243 0 311 0 q 66 -12 143 0 m 599 464 q 647 444 627 464 q 667 395 667 424 q 647 346 667 366 q 599 326 627 326 q 550 346 570 326 q 530 395 530 366 q 550 444 530 424 q 599 464 570 464 z "},"":{"ha":456,"x_min":131,"x_max":657,"o":"m 400 163 l 423 139 q 298 30 370 79 q 179 -19 226 -19 q 144 -3 158 -19 q 131 41 131 13 q 173 266 131 95 l 246 564 q 313 780 286 725 q 432 909 355 863 q 595 956 509 956 q 641 942 624 956 q 657 908 657 928 q 641 872 657 886 q 593 859 625 859 q 536 865 573 859 q 475 871 503 871 q 433 859 448 871 q 398 791 414 843 q 346 585 382 739 l 279 300 q 229 77 229 87 q 244 56 229 56 q 288 73 259 56 q 400 163 344 109 m 458 547 q 507 527 487 547 q 527 478 527 507 q 507 429 527 449 q 458 409 487 409 q 410 429 430 409 q 389 478 389 449 q 410 527 389 507 q 458 547 430 547 z "},"":{"ha":972,"x_min":60,"x_max":1258,"o":"m 621 817 l 640 737 q 692 547 666 629 q 824 171 718 466 q 865 336 834 208 q 917 546 904 503 q 990 730 955 671 q 1069 815 1025 789 q 1167 841 1112 841 q 1235 824 1211 841 q 1258 783 1258 807 q 1245 753 1258 766 q 1216 741 1233 741 q 1187 747 1204 741 q 1147 763 1154 761 q 1120 766 1135 766 q 1063 743 1087 766 q 971 546 1021 704 q 842 41 920 388 l 819 -60 q 715 181 742 110 q 631 422 678 277 l 557 657 q 493 383 543 576 q 434 161 444 190 q 367 20 403 69 q 289 -51 332 -28 q 196 -73 247 -73 q 92 -45 132 -73 q 60 9 60 -24 q 72 34 60 23 q 100 45 83 45 q 145 23 121 45 q 224 -17 189 -17 q 300 18 263 -17 q 408 239 356 71 q 528 758 470 444 q 437 744 504 758 q 325 706 370 730 q 255 641 279 681 q 231 558 231 602 q 237 514 231 536 q 255 477 241 499 q 271 439 271 452 q 259 412 271 423 q 229 400 247 400 q 185 427 203 400 q 167 509 167 454 q 213 663 167 600 q 335 760 258 727 q 524 799 384 780 q 621 817 575 806 m 932 1095 l 1061 1095 l 831 899 l 791 899 l 932 1095 z "},"":{"ha":639,"x_min":115,"x_max":723,"o":"m 138 412 l 115 435 q 254 545 202 518 q 342 572 305 572 q 364 566 356 572 q 372 552 372 560 q 369 530 372 546 l 338 394 q 512 537 408 471 q 604 572 568 572 q 645 555 630 572 q 660 506 660 538 q 654 458 660 485 q 597 267 643 414 q 553 83 553 128 q 557 62 553 69 q 569 56 562 56 q 631 94 589 56 q 690 144 661 121 l 707 119 q 578 8 645 50 q 507 -19 535 -19 q 467 0 481 -19 q 453 60 453 18 q 528 361 453 121 q 551 460 551 446 q 526 481 551 481 q 456 453 499 481 q 350 354 393 411 q 304 237 323 317 l 250 1 l 149 1 q 198 195 177 102 l 258 453 q 262 475 262 469 q 248 494 262 494 q 217 479 237 494 q 138 412 175 452 m 594 850 l 723 850 l 493 653 l 453 653 l 594 850 z "},"":{"ha":972,"x_min":60,"x_max":1258,"o":"m 621 817 l 640 737 q 692 547 666 629 q 824 171 718 466 q 865 336 834 208 q 917 546 904 503 q 990 730 955 671 q 1069 815 1025 789 q 1167 841 1112 841 q 1235 824 1211 841 q 1258 783 1258 807 q 1245 753 1258 766 q 1216 741 1233 741 q 1187 747 1204 741 q 1147 763 1154 761 q 1120 766 1135 766 q 1063 743 1087 766 q 971 546 1021 704 q 842 41 920 388 l 819 -60 q 715 181 742 110 q 631 422 678 277 l 557 657 q 493 383 543 576 q 434 161 444 190 q 367 20 403 69 q 289 -51 332 -28 q 196 -73 247 -73 q 92 -45 132 -73 q 60 9 60 -24 q 72 34 60 23 q 100 45 83 45 q 145 23 121 45 q 224 -17 189 -17 q 300 18 263 -17 q 408 239 356 71 q 528 758 470 444 q 437 744 504 758 q 325 706 370 730 q 255 641 279 681 q 231 558 231 602 q 237 514 231 536 q 255 477 241 499 q 271 439 271 452 q 259 412 271 423 q 229 400 247 400 q 185 427 203 400 q 167 509 167 454 q 213 663 167 600 q 335 760 258 727 q 524 799 384 780 q 621 817 575 806 m 712 1097 l 753 1097 l 820 975 l 1005 1097 l 1044 1097 l 865 900 l 762 900 l 712 1097 z "},"":{"ha":639,"x_min":115,"x_max":732,"o":"m 138 412 l 115 435 q 254 545 202 518 q 342 572 305 572 q 364 566 356 572 q 372 552 372 560 q 369 530 372 546 l 338 394 q 512 537 408 471 q 604 572 568 572 q 645 555 630 572 q 660 506 660 538 q 654 458 660 485 q 597 267 643 414 q 553 83 553 128 q 557 62 553 69 q 569 56 562 56 q 631 94 589 56 q 690 144 661 121 l 707 119 q 578 8 645 50 q 507 -19 535 -19 q 467 0 481 -19 q 453 60 453 18 q 528 361 453 121 q 551 460 551 446 q 526 481 551 481 q 456 453 499 481 q 350 354 393 411 q 304 237 323 317 l 250 1 l 149 1 q 198 195 177 102 l 258 453 q 262 475 262 469 q 248 494 262 494 q 217 479 237 494 q 138 412 175 452 m 399 851 l 441 851 l 507 728 l 692 851 l 732 851 l 553 654 l 449 654 l 399 851 z "},"":{"ha":808,"x_min":189,"x_max":878,"o":"m 309 412 l 286 435 q 424 545 372 518 q 512 572 475 572 q 534 566 526 572 q 543 552 543 560 q 539 530 543 546 l 509 394 q 682 537 578 471 q 774 572 738 572 q 815 555 800 572 q 830 506 830 538 q 824 458 830 485 q 767 267 813 414 q 724 83 724 128 q 728 62 724 69 q 739 56 732 56 q 801 94 759 56 q 861 144 831 121 l 878 119 q 748 8 815 50 q 677 -19 705 -19 q 637 0 652 -19 q 623 60 623 18 q 699 361 623 121 q 722 460 722 446 q 696 481 722 481 q 627 453 669 481 q 520 354 563 411 q 475 237 493 317 l 420 1 l 319 1 q 368 195 347 102 l 429 453 q 432 475 432 469 q 418 494 432 494 q 387 479 408 494 q 309 412 345 452 m 201 623 l 189 666 q 263 746 246 716 q 281 804 281 777 q 264 849 281 819 q 252 895 252 873 q 268 940 252 922 q 309 957 284 957 q 353 937 336 957 q 371 884 371 917 q 334 765 371 827 q 201 623 297 703 z "},"":{"ha":833,"x_min":142,"x_max":949,"o":"m 610 812 q 764 772 695 812 q 871 659 833 732 q 909 488 909 585 q 840 235 909 360 q 673 45 772 109 q 453 -18 574 -18 q 228 68 314 -18 q 142 297 142 155 q 211 559 142 433 q 379 749 279 686 q 610 812 479 812 m 560 763 q 415 716 481 763 q 307 571 349 670 q 265 342 265 473 q 331 112 265 193 q 495 31 397 31 q 634 79 568 31 q 742 231 699 127 q 784 469 784 334 q 719 685 784 608 q 560 763 654 763 m 472 874 l 592 1099 l 746 1101 l 515 875 l 472 874 m 676 874 l 796 1099 l 949 1101 l 719 875 l 676 874 z "},"":{"ha":555,"x_min":118,"x_max":753,"o":"m 454 570 q 565 517 521 570 q 609 370 609 465 q 503 100 609 220 q 279 -20 397 -20 q 162 28 207 -20 q 118 157 118 75 q 199 420 118 300 q 454 570 302 570 m 397 519 q 285 437 339 519 q 231 210 231 355 q 264 71 231 121 q 330 33 289 33 q 433 104 387 33 q 493 331 493 195 q 466 476 493 433 q 397 519 438 519 m 275 628 l 395 853 l 549 855 l 318 629 l 275 628 m 479 628 l 600 853 l 753 855 l 522 629 l 479 628 z "},"":{"ha":833,"x_min":132,"x_max":1133,"o":"m 500 388 l 409 28 q 461 23 441 23 q 535 33 491 23 l 528 0 q 458 -9 483 -9 q 380 -5 431 -9 q 304 0 334 0 q 179 -16 250 0 l 189 22 q 286 60 264 41 q 338 162 320 89 l 433 541 q 451 627 451 614 q 443 645 451 639 q 409 650 434 651 l 418 683 q 582 708 486 684 q 561 632 574 682 l 510 432 q 565 425 543 425 q 710 485 650 425 q 770 625 770 544 q 722 729 770 688 q 590 770 673 770 q 382 718 484 770 q 229 590 280 667 q 178 431 178 514 q 231 322 178 368 q 263 290 257 300 q 269 268 269 279 q 259 243 269 254 q 233 233 248 233 q 168 275 197 233 q 132 412 132 331 q 189 607 132 517 q 364 756 247 697 q 610 815 481 815 q 809 770 731 815 q 887 635 887 724 q 815 480 887 552 q 618 388 744 408 q 659 304 650 326 q 702 180 673 267 q 844 -107 770 -24 q 961 -168 898 -168 q 1044 -109 1026 -168 q 1065 -63 1055 -72 q 1094 -51 1078 -51 q 1121 -62 1110 -51 q 1133 -90 1133 -74 q 1086 -170 1133 -132 q 968 -208 1040 -208 q 842 -176 902 -208 q 725 -72 782 -144 q 627 102 669 1 q 565 289 606 153 q 534 388 541 372 l 517 389 q 500 388 511 389 m 774 1095 l 903 1095 l 673 899 l 633 899 l 774 1095 z "},"":{"ha":416,"x_min":113,"x_max":628,"o":"m 243 0 l 142 0 l 190 182 q 250 437 224 317 q 256 475 256 467 q 241 491 256 491 q 210 477 231 491 q 134 408 189 463 l 113 432 q 243 537 178 502 q 342 572 308 572 q 362 566 355 572 q 369 551 369 560 q 360 505 369 543 l 331 383 q 486 568 399 491 q 555 604 527 604 q 589 591 575 604 q 602 560 602 578 q 589 529 602 542 q 523 498 576 516 q 441 458 473 481 q 372 385 410 434 q 319 300 334 336 q 274 132 304 264 l 243 0 m 499 850 l 628 850 l 398 653 l 358 653 l 499 850 z "},"":{"ha":833,"x_min":132,"x_max":1133,"o":"m 500 388 l 409 28 q 461 23 441 23 q 535 33 491 23 l 528 0 q 458 -9 483 -9 q 380 -5 431 -9 q 304 0 334 0 q 179 -16 250 0 l 189 22 q 286 60 264 41 q 338 162 320 89 l 433 541 q 451 627 451 614 q 443 645 451 639 q 409 650 434 651 l 418 683 q 582 708 486 684 q 561 632 574 682 l 510 432 q 565 425 543 425 q 710 485 650 425 q 770 625 770 544 q 722 729 770 688 q 590 770 673 770 q 382 718 484 770 q 229 590 280 667 q 178 431 178 514 q 231 322 178 368 q 263 290 257 300 q 269 268 269 279 q 259 243 269 254 q 233 233 248 233 q 168 275 197 233 q 132 412 132 331 q 189 607 132 517 q 364 756 247 697 q 610 815 481 815 q 809 770 731 815 q 887 635 887 724 q 815 480 887 552 q 618 388 744 408 q 659 304 650 326 q 702 180 673 267 q 844 -107 770 -24 q 961 -168 898 -168 q 1044 -109 1026 -168 q 1065 -63 1055 -72 q 1094 -51 1078 -51 q 1121 -62 1110 -51 q 1133 -90 1133 -74 q 1086 -170 1133 -132 q 968 -208 1040 -208 q 842 -176 902 -208 q 725 -72 782 -144 q 627 102 669 1 q 565 289 606 153 q 534 388 541 372 l 517 389 q 500 388 511 389 m 563 1097 l 604 1097 l 671 975 l 856 1097 l 895 1097 l 716 900 l 612 900 l 563 1097 z "},"":{"ha":416,"x_min":113,"x_max":645,"o":"m 243 0 l 142 0 l 190 182 q 250 437 224 317 q 256 475 256 467 q 241 491 256 491 q 210 477 231 491 q 134 408 189 463 l 113 432 q 243 537 178 502 q 342 572 308 572 q 362 566 355 572 q 369 551 369 560 q 360 505 369 543 l 331 383 q 486 568 399 491 q 555 604 527 604 q 589 591 575 604 q 602 560 602 578 q 589 529 602 542 q 523 498 576 516 q 441 458 473 481 q 372 385 410 434 q 319 300 334 336 q 274 132 304 264 l 243 0 m 313 851 l 354 851 l 420 728 l 606 851 l 645 851 l 466 654 l 362 654 l 313 851 z "},"":{"ha":639,"x_min":26,"x_max":786,"o":"m 698 550 l 663 550 q 670 658 670 621 q 642 740 670 710 q 566 770 614 770 q 435 716 491 770 q 380 595 380 663 q 395 530 380 559 q 463 449 410 501 q 588 302 558 355 q 618 199 618 250 q 573 57 618 125 q 440 -56 528 -12 q 254 -100 352 -100 q 92 -50 158 -100 q 26 56 26 0 q 43 105 26 85 q 83 125 60 125 q 121 106 106 125 q 140 58 130 96 q 166 -9 151 12 q 209 -43 182 -30 q 269 -56 237 -56 q 439 9 366 -56 q 511 154 511 75 q 502 208 511 181 q 469 269 493 235 q 393 350 452 292 q 321 428 336 407 q 290 489 300 458 q 279 551 279 520 q 321 675 279 612 q 428 774 362 737 q 578 811 494 811 q 682 798 621 811 q 743 788 718 791 q 720 705 728 744 q 698 550 712 666 m 657 1095 l 786 1095 l 556 899 l 516 899 l 657 1095 z "},"":{"ha":444,"x_min":88,"x_max":635,"o":"m 416 571 q 509 548 476 571 q 542 494 542 524 q 528 462 542 475 q 494 448 514 448 q 472 454 481 448 q 445 483 463 460 q 379 527 412 527 q 330 506 351 527 q 309 452 309 484 q 322 398 309 425 q 391 314 336 372 q 466 162 466 234 q 405 36 466 90 q 248 -18 344 -18 q 127 15 167 -18 q 88 96 88 48 q 103 136 88 120 q 140 151 118 151 q 172 139 159 151 q 186 109 186 126 q 184 92 186 102 q 184 77 184 83 q 203 39 184 54 q 253 23 221 23 q 317 36 290 23 q 361 74 345 48 q 376 124 376 99 q 362 173 376 149 q 296 254 347 197 q 226 405 226 332 q 279 521 226 471 q 416 571 333 571 m 506 850 l 635 850 l 405 653 l 365 653 l 506 850 z "},"":{"ha":694,"x_min":110,"x_max":1014,"o":"m 672 39 l 663 0 q 586 -10 617 -10 q 492 -4 557 -10 q 403 0 442 0 q 263 -12 332 0 l 273 25 q 409 102 383 33 q 535 584 435 170 l 574 746 q 514 747 534 747 q 246 685 324 747 q 168 530 168 623 q 175 492 168 507 q 205 452 182 478 q 228 406 228 427 q 214 375 228 387 q 182 362 199 362 q 130 399 149 362 q 110 491 110 437 q 213 713 110 610 q 519 815 316 815 q 714 798 581 815 q 852 785 809 785 q 930 838 930 785 q 928 857 930 842 q 926 873 926 869 q 938 904 926 892 q 967 916 950 916 q 1001 901 988 916 q 1014 861 1014 886 q 961 773 1014 812 q 775 735 908 735 q 677 739 725 735 q 502 33 615 517 q 577 27 545 27 q 672 39 625 27 m 304 -359 l 293 -323 q 389 -205 389 -250 q 376 -164 389 -189 q 362 -122 362 -138 q 377 -85 362 -101 q 412 -70 391 -70 q 452 -89 436 -70 q 469 -133 469 -109 q 304 -359 469 -246 z "},"":{"ha":444,"x_min":94,"x_max":507,"o":"m 308 675 l 416 716 l 367 526 l 507 526 l 496 478 l 356 478 l 296 251 q 269 109 269 149 q 297 74 269 74 q 471 174 342 74 l 496 143 q 308 12 365 43 q 217 -19 252 -19 q 163 59 163 -19 q 189 208 163 108 l 258 478 l 149 478 l 161 526 l 270 526 l 308 675 m 105 -359 l 94 -323 q 190 -205 190 -250 q 177 -164 190 -189 q 163 -122 163 -138 q 178 -85 163 -101 q 214 -70 193 -70 q 254 -89 237 -70 q 270 -133 270 -109 q 105 -359 270 -246 z "},"":{"ha":694,"x_min":110,"x_max":1014,"o":"m 672 39 l 663 0 q 586 -10 616 -10 q 492 -4 557 -10 q 403 0 442 0 q 263 -12 335 0 l 273 25 q 372 54 341 32 q 411 107 395 69 q 483 370 427 144 l 570 729 l 574 746 q 514 747 534 747 q 315 720 389 747 q 204 642 241 693 q 168 530 168 590 q 175 492 168 509 q 205 452 180 479 q 228 406 228 427 q 214 375 228 388 q 182 362 201 362 q 136 389 153 362 q 110 491 110 429 q 161 652 110 574 q 302 772 212 730 q 519 815 391 815 q 714 798 581 815 q 852 785 809 785 q 912 800 895 785 q 930 838 930 814 q 928 857 930 842 q 926 873 926 869 q 938 904 926 892 q 967 916 950 916 q 1001 901 987 916 q 1014 861 1014 886 q 959 772 1014 810 q 775 735 904 735 q 677 739 729 735 q 634 574 670 715 l 575 339 l 539 196 l 502 33 q 577 27 547 27 q 672 39 623 27 m 546 1097 l 587 1097 l 654 975 l 839 1097 l 878 1097 l 699 900 l 595 900 l 546 1097 z "},"":{"ha":444,"x_min":149,"x_max":660,"o":"m 308 675 l 416 716 l 367 526 l 507 526 l 496 478 l 356 478 l 296 251 q 269 109 269 149 q 276 82 269 90 q 298 74 284 74 q 362 99 319 74 q 471 174 419 132 l 496 143 q 298 6 348 31 q 217 -19 248 -19 q 177 -1 192 -19 q 163 59 163 18 q 189 208 163 108 l 258 478 l 149 478 l 161 526 l 270 526 l 308 675 m 490 623 l 478 666 q 552 746 535 716 q 570 804 570 777 q 553 849 570 819 q 541 895 541 873 q 557 940 541 922 q 598 957 573 957 q 642 937 625 957 q 660 884 660 917 q 623 765 660 827 q 490 623 586 703 z "},"":{"ha":1027,"x_min":161,"x_max":1107,"o":"m 629 810 q 494 503 561 690 q 448 282 448 371 q 495 128 448 183 q 615 73 543 73 q 743 107 683 73 q 889 243 822 152 q 1000 463 957 335 q 1042 702 1042 591 q 1009 848 1042 779 q 989 890 991 884 q 987 911 987 900 q 999 944 987 931 q 1030 957 1012 957 q 1080 923 1062 957 q 1107 780 1107 877 q 1016 367 1107 572 q 806 73 925 161 q 556 -15 687 -15 q 393 56 450 -15 q 336 231 336 127 q 362 406 336 316 q 505 756 397 523 q 353 735 420 758 q 257 677 286 713 q 227 608 227 642 q 243 569 227 593 q 259 526 259 541 q 247 493 259 506 q 216 480 235 480 q 177 500 194 480 q 161 553 161 521 q 191 658 161 606 q 270 743 222 711 q 390 789 319 774 q 536 803 425 797 q 629 810 612 807 m 831 1116 q 914 1081 880 1116 q 949 998 949 1046 q 914 914 949 949 q 831 879 880 879 q 747 914 781 879 q 712 998 712 949 q 747 1081 712 1046 q 831 1116 781 1116 m 830 1069 q 780 1048 801 1069 q 759 998 759 1027 q 780 947 759 968 q 830 926 801 926 q 881 947 860 926 q 901 998 901 968 q 881 1048 901 1027 q 830 1069 860 1069 z "},"":{"ha":639,"x_min":114,"x_max":707,"o":"m 576 553 l 673 553 l 609 316 q 553 81 553 110 q 559 62 553 68 q 572 55 565 55 q 600 65 584 55 q 684 144 622 81 l 707 119 q 506 -23 570 -23 q 469 -6 484 -23 q 454 41 454 10 q 469 135 454 76 q 319 14 408 66 q 217 -21 260 -21 q 180 -5 193 -21 q 166 44 166 10 q 172 101 166 71 q 217 273 181 144 q 262 469 262 436 q 249 488 262 488 q 216 475 237 488 q 144 414 195 463 l 114 438 q 253 545 205 519 q 330 570 300 570 q 356 558 346 570 q 366 522 366 547 q 317 292 366 475 q 274 104 274 127 q 283 79 274 90 q 303 69 292 69 q 411 132 341 69 q 503 275 481 195 l 576 553 m 517 870 q 601 835 566 870 q 635 751 635 800 q 601 668 635 703 q 517 633 566 633 q 433 668 468 633 q 399 751 399 703 q 433 835 399 800 q 517 870 468 870 m 517 823 q 467 802 488 823 q 446 751 446 781 q 467 701 446 722 q 517 680 488 680 q 567 701 547 680 q 588 751 588 722 q 567 802 588 781 q 517 823 547 823 z "},"":{"ha":1027,"x_min":161,"x_max":1107,"o":"m 629 810 q 494 503 561 690 q 448 282 448 371 q 495 128 448 183 q 615 73 543 73 q 743 107 683 73 q 889 243 822 152 q 1000 463 957 335 q 1042 702 1042 591 q 1009 848 1042 779 q 989 890 991 884 q 987 911 987 900 q 999 944 987 931 q 1030 957 1012 957 q 1080 923 1062 957 q 1107 780 1107 877 q 1016 367 1107 572 q 806 73 925 161 q 556 -15 687 -15 q 393 56 450 -15 q 336 231 336 127 q 362 406 336 316 q 505 756 397 523 q 353 735 420 758 q 257 677 286 713 q 227 608 227 642 q 243 569 227 593 q 259 526 259 541 q 247 493 259 506 q 216 480 235 480 q 177 500 194 480 q 161 553 161 521 q 191 658 161 606 q 270 743 222 711 q 390 789 319 774 q 536 803 425 797 q 629 810 612 807 m 622 874 l 742 1099 l 896 1101 l 665 875 l 622 874 m 826 874 l 946 1099 l 1099 1101 l 869 875 l 826 874 z "},"":{"ha":639,"x_min":114,"x_max":809,"o":"m 576 553 l 673 553 l 609 316 q 553 81 553 110 q 559 62 553 68 q 572 55 565 55 q 600 65 584 55 q 684 144 622 81 l 707 119 q 506 -23 570 -23 q 469 -6 484 -23 q 454 41 454 10 q 469 135 454 76 q 319 14 408 66 q 217 -21 260 -21 q 180 -5 193 -21 q 166 44 166 10 q 172 101 166 71 q 217 273 181 144 q 262 469 262 436 q 249 488 262 488 q 216 475 237 488 q 144 414 195 463 l 114 438 q 253 545 205 519 q 330 570 300 570 q 356 558 346 570 q 366 522 366 547 q 317 292 366 475 q 274 104 274 127 q 283 79 274 90 q 303 69 292 69 q 411 132 341 69 q 503 275 481 195 l 576 553 m 332 628 l 452 853 l 606 855 l 374 629 l 332 628 m 536 628 l 656 853 l 809 855 l 578 629 l 536 628 z "},"":{"ha":861,"x_min":92,"x_max":931,"o":"m 764 710 q 673 700 720 700 q 496 729 598 700 q 416 747 433 747 q 371 735 387 747 q 356 706 356 723 q 378 671 356 687 q 406 644 400 653 q 412 621 412 634 q 399 591 412 604 q 370 579 387 579 q 323 604 343 579 q 304 672 304 629 q 349 774 304 732 q 459 816 393 816 q 559 807 501 816 q 758 787 692 787 q 884 817 824 787 q 908 825 901 825 q 924 819 917 825 q 931 807 931 813 q 868 730 931 786 q 745 611 802 671 l 406 260 l 212 50 q 433 92 358 92 q 663 47 540 92 q 758 23 730 23 q 804 37 789 23 q 819 76 819 50 q 812 107 819 90 q 804 138 804 128 q 818 171 804 157 q 850 185 831 185 q 885 169 870 185 q 899 124 899 152 q 847 16 899 58 q 728 -27 795 -27 q 589 -14 688 -27 q 344 0 475 0 q 142 -21 193 0 q 111 -29 121 -29 q 97 -23 104 -29 q 92 -9 92 -18 q 118 35 92 10 q 221 140 146 61 q 412 335 283 205 l 616 543 q 764 710 690 618 m 727 1095 l 856 1095 l 626 899 l 586 899 l 727 1095 z "},"":{"ha":611,"x_min":50,"x_max":670,"o":"m 547 500 q 433 483 485 483 q 370 486 405 483 q 306 492 322 492 q 275 482 286 492 q 264 458 264 473 q 288 433 264 435 q 319 405 319 429 q 309 384 319 393 q 288 375 300 375 q 242 399 263 375 q 222 459 222 423 q 260 538 222 505 q 356 572 299 572 q 437 564 386 572 q 555 551 519 551 q 623 575 591 551 q 648 586 638 586 q 662 581 656 586 q 667 571 667 576 q 660 556 667 564 q 555 449 637 528 l 345 248 q 191 105 252 159 q 252 109 230 109 q 307 104 282 109 q 388 81 332 99 q 506 56 460 56 q 550 69 534 56 q 565 102 565 82 q 554 135 565 114 q 545 166 545 155 q 555 194 545 182 q 583 205 566 205 q 615 190 602 205 q 629 149 629 174 q 601 69 629 111 q 531 5 573 27 q 427 -18 489 -18 q 279 12 376 -18 q 159 35 197 35 q 106 11 136 35 q 75 -4 88 -4 q 50 8 50 -4 q 64 36 50 20 q 257 221 102 81 q 440 394 361 316 l 547 500 m 541 850 l 670 850 l 440 653 l 400 653 l 541 850 z "},"":{"ha":861,"x_min":92,"x_max":931,"o":"m 764 710 q 673 700 720 700 q 496 729 598 700 q 416 747 433 747 q 371 735 387 747 q 356 706 356 723 q 378 671 356 687 q 406 644 400 653 q 412 621 412 634 q 399 591 412 604 q 370 579 387 579 q 323 604 343 579 q 304 672 304 629 q 349 774 304 732 q 459 816 393 816 q 559 807 501 816 q 758 787 692 787 q 884 817 824 787 q 908 825 901 825 q 924 819 917 825 q 931 807 931 813 q 868 730 931 786 q 745 611 802 671 l 406 260 l 212 50 q 433 92 358 92 q 663 47 540 92 q 758 23 730 23 q 804 37 789 23 q 819 76 819 50 q 812 107 819 90 q 804 138 804 128 q 818 171 804 157 q 850 185 831 185 q 885 169 870 185 q 899 124 899 152 q 847 16 899 58 q 728 -27 795 -27 q 589 -14 688 -27 q 344 0 475 0 q 142 -21 193 0 q 111 -29 121 -29 q 97 -23 104 -29 q 92 -9 92 -18 q 118 35 92 10 q 221 140 146 61 q 412 335 283 205 l 616 543 q 764 710 690 618 m 660 1055 q 708 1035 688 1055 q 728 986 728 1015 q 708 937 728 957 q 660 917 688 917 q 611 937 631 917 q 591 986 591 957 q 611 1035 591 1015 q 660 1055 631 1055 z "},"":{"ha":611,"x_min":50,"x_max":667,"o":"m 547 500 q 433 483 485 483 q 370 486 405 483 q 306 492 322 492 q 275 482 286 492 q 264 458 264 473 q 288 433 264 435 q 319 405 319 429 q 309 384 319 393 q 288 375 300 375 q 242 399 263 375 q 222 459 222 423 q 260 538 222 505 q 356 572 299 572 q 437 564 386 572 q 555 551 519 551 q 623 575 591 551 q 648 586 638 586 q 662 581 656 586 q 667 571 667 576 q 660 556 667 564 q 555 449 637 528 l 345 248 q 191 105 252 159 q 252 109 230 109 q 307 104 282 109 q 388 81 332 99 q 506 56 460 56 q 550 69 534 56 q 565 102 565 82 q 554 135 565 114 q 545 166 545 155 q 555 194 545 182 q 583 205 566 205 q 615 190 602 205 q 629 149 629 174 q 601 69 629 111 q 531 5 573 27 q 427 -18 489 -18 q 279 12 376 -18 q 159 35 197 35 q 106 11 136 35 q 75 -4 88 -4 q 50 8 50 -4 q 64 36 50 20 q 257 221 102 81 q 440 394 361 316 l 547 500 m 482 808 q 531 788 511 808 q 551 740 551 768 q 531 691 551 711 q 482 671 511 671 q 433 691 454 671 q 413 740 413 711 q 433 788 413 768 q 482 808 454 808 z "},"":{"ha":897,"x_min":66,"x_max":859,"o":"m 850 920 l 859 709 l 835 709 q 761 834 821 806 q 615 862 701 862 l 342 862 l 342 116 q 372 51 341 75 q 476 24 402 26 l 476 0 l 66 0 l 66 24 q 166 47 134 24 q 197 133 197 70 l 197 791 q 167 871 197 848 q 66 895 137 895 l 66 920 l 850 920 z "},"":{"ha":1080,"x_min":73,"x_max":1006,"o":"m 1006 462 q 869 119 1006 260 q 543 -21 732 -21 q 213 120 353 -21 q 73 460 73 261 q 209 799 73 657 q 539 941 345 941 q 868 801 730 941 q 1006 462 1006 662 m 841 457 q 760 770 841 653 q 537 888 679 888 q 318 773 399 888 q 238 462 238 659 q 321 148 238 264 q 541 31 405 31 q 762 151 682 31 q 841 457 841 270 m 376 621 l 401 621 q 424 541 400 566 q 502 515 448 515 l 577 515 q 654 541 630 515 q 678 621 679 566 l 703 621 l 703 296 l 678 296 q 655 378 679 352 q 577 404 631 404 l 502 404 q 425 378 449 404 q 401 296 400 352 l 376 296 l 376 621 z "},"":{"ha":1080,"x_min":73,"x_max":1007,"o":"m 612 130 q 743 24 621 24 l 743 0 l 337 0 l 337 24 q 467 130 456 24 q 180 226 287 130 q 73 460 73 323 q 186 699 73 608 q 467 790 300 790 q 337 895 458 895 l 337 920 l 743 920 l 743 895 q 612 790 621 895 q 900 694 792 790 q 1007 460 1007 597 q 892 219 1007 309 q 612 130 778 130 m 467 753 q 329 714 389 751 q 244 618 269 678 q 219 452 219 558 q 467 167 219 177 l 467 753 m 612 753 l 612 167 q 784 230 707 167 q 861 468 861 292 q 612 753 861 743 z "},"":{"ha":744,"x_min":56,"x_max":716,"o":"m 532 621 l 644 621 l 576 304 q 542 176 561 231 q 622 62 555 62 q 692 150 679 62 l 716 150 q 679 25 709 70 q 606 -19 648 -19 q 524 127 543 -19 q 294 -19 452 -19 q 119 67 182 -19 q 56 308 56 154 q 126 552 56 465 q 296 640 197 640 q 490 426 431 640 l 532 621 m 477 364 q 309 600 409 600 q 217 526 252 600 q 182 300 182 451 q 215 82 182 141 q 300 24 248 24 q 383 72 346 24 q 453 262 420 121 l 477 364 z "},"":{"ha":657,"x_min":56,"x_max":602,"o":"m 336 579 q 242 670 298 622 q 147 776 164 738 q 130 845 130 814 q 307 963 130 963 q 483 929 412 963 q 553 846 553 895 q 537 806 553 823 q 499 788 522 788 q 426 834 468 788 q 349 905 378 888 q 279 922 320 922 q 199 901 229 922 q 170 848 170 880 q 196 783 170 815 q 329 677 221 751 q 490 554 439 602 q 571 441 541 506 q 602 303 602 377 q 513 78 602 175 q 309 -19 425 -19 q 129 58 203 -19 q 56 267 56 135 q 140 479 56 396 q 336 579 224 563 m 366 547 q 172 280 172 515 q 221 90 172 155 q 333 25 271 25 q 444 90 400 25 q 487 264 487 154 q 464 402 487 345 q 397 510 441 458 q 366 547 371 540 z "},"":{"ha":615,"x_min":56,"x_max":560,"o":"m 219 330 q 85 478 85 382 q 154 595 85 550 q 328 640 222 640 q 477 610 417 640 q 536 535 536 580 q 519 494 536 511 q 477 477 501 477 q 415 528 439 477 q 313 599 381 599 q 226 566 262 599 q 191 469 191 533 q 318 345 191 345 q 350 347 332 345 q 397 352 381 352 q 439 328 439 352 q 397 301 439 301 q 352 307 382 301 q 316 310 329 310 q 182 172 182 310 q 218 64 182 104 q 318 23 254 23 q 425 106 399 23 q 456 168 439 151 q 500 184 472 184 q 541 168 522 184 q 560 124 560 152 q 489 21 560 61 q 323 -19 418 -19 q 139 33 222 -19 q 56 171 56 84 q 219 330 56 277 z "},"":{"ha":812,"x_min":56,"x_max":782,"o":"m 782 621 l 782 522 l 486 522 q 620 407 557 487 q 682 236 682 326 q 590 51 682 121 q 391 -19 498 -19 q 155 81 254 -19 q 56 322 56 182 q 107 496 56 420 q 227 596 159 571 q 400 621 296 621 l 782 621 m 440 522 l 416 522 q 280 503 327 522 q 202 434 233 483 q 172 314 172 385 q 237 110 172 195 q 391 25 302 25 q 515 88 465 25 q 564 249 564 151 q 440 522 564 397 z "},"":{"ha":593,"x_min":44,"x_max":549,"o":"m 549 621 l 549 522 l 346 522 q 321 203 321 304 q 345 120 321 148 q 404 92 368 92 q 481 171 469 92 l 505 171 q 467 40 505 98 q 369 -19 429 -19 q 248 205 248 -19 q 272 522 248 300 l 212 522 q 126 504 157 522 q 68 429 95 486 l 44 429 q 98 551 68 509 q 155 607 127 593 q 233 621 184 621 l 549 621 z "},"":{"ha":777,"x_min":56,"x_max":722,"o":"m 313 640 l 313 615 q 174 336 174 578 q 348 22 174 70 l 348 418 q 357 539 348 500 q 402 609 367 579 q 489 640 438 640 q 595 604 541 640 q 685 496 649 568 q 722 333 722 425 q 646 101 722 203 q 418 -16 571 -2 l 418 -284 l 348 -284 l 348 -16 q 136 90 216 -4 q 56 334 56 183 q 132 554 56 472 q 313 640 208 636 m 418 37 q 621 314 621 68 q 578 498 621 422 q 473 575 536 575 q 432 550 447 575 q 417 441 417 525 l 418 37 z "},"":{"ha":694,"x_min":-8,"x_max":703,"o":"m -8 -104 l 703 -104 l 703 -174 l -8 -174 l -8 -104 m -8 -233 l 703 -233 l 703 -302 l -8 -302 l -8 -233 z "},"":{"ha":222,"x_min":228,"x_max":356,"o":"m 250 453 l 228 453 l 252 673 q 277 782 261 753 q 322 812 294 812 q 356 768 356 812 q 330 671 356 743 l 250 453 z "},"":{"ha":306,"x_min":182,"x_max":486,"o":"m 203 453 l 182 453 l 206 673 q 231 782 215 753 q 276 812 248 812 q 310 768 310 812 q 283 671 310 743 l 203 453 m 379 453 l 357 453 l 382 673 q 407 782 391 753 q 452 812 424 812 q 486 768 486 812 q 459 671 486 743 l 379 453 z "},"":{"ha":671,"x_min":183,"x_max":724,"o":"m 294 224 l 254 224 q 317 772 298 547 q 326 792 318 785 q 369 809 334 800 q 428 819 404 819 q 441 805 441 819 q 426 743 441 798 q 294 224 387 608 m 576 224 l 536 224 q 600 772 581 547 q 609 792 601 785 q 651 809 617 800 q 710 819 686 819 q 724 805 724 819 q 708 743 724 798 q 576 224 669 608 m 257 146 q 302 125 285 146 q 319 76 319 104 q 298 7 319 33 q 245 -18 277 -18 q 201 1 219 -18 q 183 48 183 20 q 202 114 183 81 q 257 146 221 146 m 539 146 q 585 125 568 146 q 602 76 602 104 q 581 7 602 33 q 528 -18 560 -18 q 483 1 500 -18 q 466 48 466 20 q 485 115 466 83 q 539 146 505 146 z "},"":{"ha":415,"x_min":142,"x_max":545,"o":"m 165 616 l 142 640 q 298 726 236 726 q 326 709 326 726 q 323 694 326 705 l 309 636 q 467 726 420 726 q 513 682 513 726 q 492 600 513 659 q 444 426 444 455 q 450 416 444 416 q 459 420 454 416 q 483 437 461 422 q 526 473 506 454 l 545 450 q 407 362 458 362 q 362 413 362 362 q 403 571 362 450 q 427 654 427 641 q 418 663 427 663 q 361 635 399 663 q 308 585 323 608 q 281 518 292 562 l 245 374 l 163 374 l 194 485 q 197 497 195 490 l 236 652 q 239 664 239 662 q 235 669 239 669 q 229 667 233 669 q 165 616 191 642 z "},"":{"ha":1491,"x_min":101,"x_max":1588,"o":"m 900 526 l 980 526 l 1018 675 l 1126 716 l 1077 526 l 1217 526 l 1206 478 l 1066 478 l 1006 251 q 979 109 979 149 q 1008 74 979 74 q 1105 119 1031 74 q 1185 152 1158 152 q 1219 140 1205 152 q 1233 109 1233 127 q 1232 92 1233 102 q 1230 77 1230 83 q 1249 39 1230 55 q 1300 23 1267 23 q 1392 53 1360 23 q 1423 124 1423 82 q 1409 173 1423 149 q 1343 254 1394 197 q 1272 405 1272 332 q 1324 519 1272 467 q 1463 571 1375 571 q 1559 546 1529 571 q 1588 494 1588 520 q 1575 463 1588 477 q 1542 448 1562 448 q 1492 483 1518 448 q 1426 527 1459 527 q 1379 507 1402 527 q 1356 453 1356 487 q 1371 395 1356 421 q 1437 314 1385 369 q 1513 162 1513 234 q 1453 38 1513 93 q 1295 -18 1394 -18 q 1135 90 1149 -18 q 927 -19 991 -19 q 873 59 873 -19 q 899 208 873 108 l 968 478 l 870 478 q 740 383 828 420 q 555 347 652 347 q 505 349 539 347 l 451 138 q 420 32 435 76 q 513 19 471 19 q 619 38 565 19 l 611 0 q 522 -14 559 -14 q 418 -7 486 -14 q 330 0 364 0 q 195 -16 264 0 l 203 20 q 317 74 289 31 q 356 163 346 117 q 359 176 358 170 l 462 583 q 469 621 469 611 q 439 650 469 650 q 425 649 434 650 l 433 680 q 602 707 533 688 q 565 583 585 663 l 515 392 q 579 388 553 388 q 742 464 680 388 q 804 622 804 541 q 756 729 804 688 q 604 770 708 770 q 288 653 427 770 q 148 391 148 535 q 219 254 148 309 q 252 207 252 230 q 241 181 252 191 q 216 172 229 172 q 137 229 174 172 q 101 366 101 287 q 249 675 101 538 q 634 813 396 813 q 852 757 781 813 q 923 620 923 701 q 900 526 923 574 z "},"":{"ha":844,"x_min":205,"x_max":855,"o":"m 269 -5 q 416 252 343 118 l 578 547 q 719 812 667 708 q 773 803 732 808 q 543 395 749 772 q 327 -10 336 18 q 292 -6 316 -7 q 269 -5 284 -6 m 455 556 l 469 520 q 287 438 363 438 q 205 534 205 438 q 274 723 205 633 q 431 812 343 812 q 484 799 464 812 q 504 768 504 787 q 462 734 504 734 q 421 747 444 734 q 382 761 396 761 q 319 701 349 761 q 290 566 290 642 q 330 492 290 492 q 444 547 378 492 l 455 556 m 738 362 q 855 235 855 362 q 790 69 855 150 q 637 -12 726 -12 q 554 20 584 -12 q 525 102 525 52 q 591 284 525 207 q 738 362 657 362 m 711 322 q 645 270 677 322 q 614 134 614 218 q 630 56 614 83 q 667 29 646 29 q 736 84 707 29 q 765 210 765 139 q 711 322 765 322 z "},"":{"ha":566,"x_min":116,"x_max":684,"o":"m 116 330 l 269 438 l 323 667 q 421 899 363 834 q 558 963 479 963 q 647 930 611 963 q 684 844 684 897 q 590 661 684 754 q 381 488 496 567 l 315 209 q 304 141 304 164 q 330 64 304 92 q 395 37 357 37 q 489 80 439 37 q 574 204 538 124 l 601 195 q 359 -16 505 -16 q 252 26 298 -16 q 207 151 207 68 q 218 227 207 184 l 258 392 l 133 305 l 116 330 m 393 532 q 588 708 532 637 q 644 837 644 779 q 573 909 644 909 q 447 753 484 909 l 393 532 z "},"":{"ha":1389,"x_min":54,"x_max":1335,"o":"m 334 594 l 385 594 q 253 385 330 479 l 1335 385 l 1335 316 l 253 316 q 387 106 322 247 l 334 106 q 54 338 183 278 l 54 368 q 334 594 174 416 z "},"":{"ha":694,"x_min":104,"x_max":591,"o":"m 104 712 q 330 992 281 872 l 361 992 q 591 711 420 862 l 591 659 q 382 792 451 724 l 382 -291 l 313 -291 l 313 792 q 104 660 219 715 l 104 712 z "},"":{"ha":1389,"x_min":54,"x_max":1335,"o":"m 1055 594 q 1335 368 1215 416 l 1335 338 q 1054 106 1205 278 l 1002 106 q 1135 316 1066 247 l 54 316 l 54 385 l 1135 385 q 1003 594 1058 479 l 1055 594 z "},"":{"ha":694,"x_min":104,"x_max":591,"o":"m 104 -11 l 104 41 q 313 -92 219 -14 l 313 992 l 382 992 l 382 -92 q 591 42 451 -22 l 591 -10 q 361 -291 420 -161 l 330 -291 q 104 -11 281 -172 z "},"":{"ha":1389,"x_min":54,"x_max":1335,"o":"m 1335 366 l 1335 336 q 1059 107 1212 282 l 1005 107 q 1137 318 1052 224 l 252 318 q 383 107 336 224 l 329 107 q 54 336 177 282 l 54 366 q 329 595 177 420 l 383 595 q 252 385 336 479 l 1137 385 q 1005 595 1052 479 l 1059 595 q 1335 366 1212 420 z "},"":{"ha":694,"x_min":103,"x_max":591,"o":"m 332 992 l 362 992 q 591 716 416 869 l 591 662 q 380 794 475 709 l 380 -92 q 591 40 475 -6 l 591 -14 q 362 -290 416 -166 l 332 -290 q 103 -14 278 -166 l 103 40 q 314 -92 219 -6 l 314 794 q 103 662 219 709 l 103 716 q 332 992 278 869 z "},"":{"ha":694,"x_min":103,"x_max":591,"o":"m 332 992 l 362 992 q 591 716 416 869 l 591 662 q 380 794 475 709 l 380 -92 q 591 40 475 -6 l 591 -14 q 362 -290 416 -166 l 332 -290 q 103 -14 278 -166 l 103 40 q 314 -92 219 -6 l 314 794 q 103 662 219 709 l 103 716 q 332 992 278 869 m 104 -354 l 591 -354 l 591 -420 l 104 -420 l 104 -354 z "},"":{"ha":1360,"x_min":245,"x_max":1114,"o":"m 245 867 l 313 867 l 313 68 l 1114 68 l 1114 0 l 245 0 l 245 867 z "},"":{"ha":998,"x_min":130,"x_max":869,"o":"m 205 0 l 130 0 l 130 254 q 132 409 131 334 q 145 539 133 483 q 185 641 157 595 q 263 728 214 688 q 374 791 313 769 q 499 812 435 812 q 681 765 597 812 q 807 651 766 718 q 859 511 849 585 q 869 254 869 437 l 869 0 l 795 0 l 795 258 q 787 485 795 416 q 746 609 779 553 q 645 703 713 664 q 499 741 576 741 q 353 702 422 741 q 253 608 284 662 q 213 486 221 555 q 205 258 205 416 l 205 0 z "},"":{"ha":722,"x_min":186,"x_max":786,"o":"m 786 665 l 786 590 l 186 590 l 186 665 l 786 665 m 786 434 l 786 359 l 186 359 l 186 434 l 786 434 m 786 203 l 786 127 l 186 127 l 186 203 l 786 203 z "},"":{"ha":839,"x_min":189,"x_max":829,"o":"m 189 640 l 829 640 l 829 0 l 189 0 l 189 640 m 241 589 l 241 52 l 778 52 l 778 589 l 241 589 z "},"":{"ha":492,"x_min":212,"x_max":526,"o":"m 526 616 l 526 302 l 212 302 l 212 616 l 526 616 z "},"":{"ha":492,"x_min":212,"x_max":526,"o":"m 526 616 l 526 302 l 212 302 l 212 616 l 526 616 m 474 565 l 263 564 l 263 353 l 474 353 l 474 565 z "},"":{"ha":839,"x_min":227,"x_max":825,"o":"m 526 690 q 737 603 649 690 q 825 392 825 515 q 737 181 825 269 q 526 93 650 93 q 315 181 403 93 q 227 392 227 269 q 316 605 227 520 q 526 690 406 690 z "},"":{"ha":492,"x_min":199,"x_max":539,"o":"m 369 629 q 488 581 437 629 q 539 459 539 532 q 489 339 539 389 q 369 289 439 289 q 249 339 298 289 q 199 459 199 389 q 249 579 199 530 q 369 629 299 629 m 369 578 q 286 544 321 578 q 250 459 250 510 q 285 375 250 410 q 369 340 320 340 q 453 375 418 340 q 488 459 488 410 q 452 544 488 509 q 369 578 417 578 z "},"":{"ha":463,"x_min":104,"x_max":296,"o":"m 115 -399 l 104 -360 q 209 -231 209 -279 q 194 -185 209 -213 q 180 -139 180 -157 q 196 -99 180 -117 q 235 -82 212 -82 q 278 -103 260 -82 q 296 -151 296 -124 q 115 -399 296 -276 z "},"":{"ha":861,"x_min":-71,"x_max":935,"o":"m 881 30 l 874 -9 q 831 -11 850 -11 q 768 -7 805 -11 q 687 0 704 0 q 600 -9 659 0 q 635 102 621 44 q 656 245 645 144 q 410 241 577 245 q 158 -89 238 -22 q 5 -157 77 -157 q -52 -142 -33 -157 q -71 -104 -71 -127 q -60 -75 -71 -87 q -33 -64 -49 -64 q -7 -67 -23 -64 q 47 -77 34 -77 q 148 -25 93 -77 q 412 328 237 59 q 733 770 610 631 q 524 741 566 755 q 439 687 467 723 q 410 614 410 651 q 419 579 410 602 q 429 543 429 554 q 417 516 429 528 q 389 505 406 505 q 352 522 366 505 q 338 574 338 539 q 364 668 338 623 q 437 745 389 714 q 555 792 484 776 q 684 808 592 801 q 785 821 764 814 q 846 855 817 829 q 817 709 825 772 l 764 317 l 733 37 q 823 24 783 24 q 881 30 850 24 m 663 295 q 728 697 695 570 q 621 553 642 583 l 447 295 q 608 293 503 293 q 663 295 633 293 m 621 987 l 935 987 l 899 929 l 587 929 l 621 987 z "},"":{"ha":583,"x_min":102,"x_max":656,"o":"m 581 582 l 625 591 l 574 420 q 517 184 544 317 q 502 90 502 111 q 519 69 502 69 q 553 83 530 69 q 634 146 595 109 l 656 119 q 557 34 578 49 q 474 -10 513 4 q 424 -20 448 -20 q 397 -12 406 -20 q 389 12 389 -3 q 394 40 389 22 l 421 132 q 282 12 363 62 q 191 -19 233 -19 q 131 9 152 -19 q 102 106 102 46 q 141 267 102 178 q 243 427 179 355 q 379 532 308 498 q 520 558 434 558 q 564 555 542 558 l 581 582 m 496 478 q 435 486 460 486 q 328 452 374 486 q 244 331 283 418 q 205 157 205 244 q 220 91 205 111 q 261 71 236 71 q 361 121 308 71 q 440 267 415 172 l 496 478 m 328 742 l 642 742 l 607 684 l 295 684 l 328 742 z "},"":{"ha":722,"x_min":133,"x_max":852,"o":"m 808 518 l 772 518 q 775 603 775 571 q 735 736 775 699 q 635 774 696 774 q 468 708 555 774 q 319 504 381 643 q 256 219 256 366 q 314 2 256 77 q 460 -74 372 -74 q 677 68 578 -74 q 699 83 688 83 q 713 77 707 83 q 720 64 720 71 q 674 -8 720 45 q 561 -97 629 -62 q 426 -133 492 -133 q 277 -91 346 -133 q 171 28 209 -50 q 133 212 133 105 q 211 507 133 360 q 405 734 288 654 q 633 814 522 814 q 712 806 673 814 q 852 759 729 802 q 808 518 813 642 m 665 1096 l 768 1096 l 817 899 l 779 899 l 708 1023 l 526 899 l 483 899 l 665 1096 z "},"":{"ha":472,"x_min":119,"x_max":597,"o":"m 490 147 l 505 108 q 232 -19 343 -19 q 146 23 173 -19 q 119 130 119 65 q 176 350 119 237 q 315 524 233 463 q 458 570 378 570 q 534 551 509 570 q 560 505 560 532 q 547 471 560 484 q 509 458 533 458 q 448 479 485 458 q 383 503 409 503 q 317 472 350 503 q 254 355 284 442 q 224 181 224 269 q 250 81 224 117 q 301 54 268 54 q 490 147 380 54 m 446 850 l 548 850 l 597 653 l 559 653 l 488 777 l 307 653 l 263 653 l 446 850 z "},"":{"ha":722,"x_min":133,"x_max":852,"o":"m 808 518 l 772 518 q 775 603 775 571 q 735 736 775 699 q 635 774 696 774 q 468 708 555 774 q 319 504 381 643 q 256 219 256 366 q 314 2 256 77 q 460 -74 372 -74 q 677 68 578 -74 q 699 83 688 83 q 713 77 707 83 q 720 64 720 71 q 674 -8 720 45 q 561 -97 629 -62 q 426 -133 492 -133 q 277 -91 346 -133 q 171 28 209 -50 q 133 212 133 105 q 211 507 133 360 q 405 734 288 654 q 633 814 522 814 q 712 806 673 814 q 852 759 729 802 q 808 518 813 642 m 671 1054 q 719 1034 699 1054 q 739 985 739 1014 q 719 936 739 956 q 671 916 699 916 q 622 936 642 916 q 602 985 602 956 q 622 1034 602 1014 q 671 1054 642 1054 z "},"":{"ha":472,"x_min":119,"x_max":560,"o":"m 490 147 l 505 108 q 232 -19 343 -19 q 146 23 173 -19 q 119 130 119 65 q 176 350 119 237 q 315 524 233 463 q 458 570 378 570 q 534 551 509 570 q 560 505 560 532 q 547 471 560 484 q 509 458 533 458 q 448 479 485 458 q 383 503 409 503 q 317 472 350 503 q 254 355 284 442 q 224 181 224 269 q 250 81 224 117 q 301 54 268 54 q 490 147 380 54 m 460 808 q 509 788 489 808 q 529 740 529 768 q 509 691 529 711 q 460 671 489 671 q 412 691 432 671 q 391 740 391 711 q 412 788 391 768 q 460 808 432 808 z "},"":{"ha":861,"x_min":92,"x_max":924,"o":"m 890 650 l 854 650 q 859 705 859 685 q 837 741 859 732 q 665 749 814 749 l 566 749 l 491 449 l 631 449 q 713 459 698 449 q 735 508 728 469 l 774 508 q 735 328 752 426 l 701 328 q 704 377 704 359 q 694 395 704 385 q 677 403 690 401 q 620 406 659 406 l 481 406 q 355 45 420 176 q 467 64 418 64 q 667 39 549 64 q 751 24 729 24 q 800 39 781 24 q 818 73 818 54 q 809 109 818 84 q 804 140 804 125 q 816 168 804 156 q 846 180 829 180 q 881 164 867 180 q 895 121 895 148 q 845 20 895 63 q 711 -24 794 -24 q 602 -16 668 -24 q 379 0 456 0 q 144 -16 279 0 l 155 21 q 250 54 235 43 q 273 85 264 64 q 358 343 306 149 q 463 753 410 537 q 309 714 382 753 q 196 613 237 675 q 155 483 155 551 q 161 432 155 454 q 187 371 167 410 q 200 332 200 347 q 188 306 200 317 q 157 294 175 294 q 115 321 130 294 q 92 426 92 359 q 199 682 92 568 q 513 795 307 795 l 746 795 q 924 810 867 795 q 890 650 897 698 m 558 987 l 872 987 l 837 929 l 525 929 l 558 987 z "}}}
